<?xml version="1.0" encoding="utf-8"?>
<!-- Generator: Adobe Illustrator 18.0.0, SVG Export Plug-In . SVG Version: 6.00 Build 0)  -->
<!DOCTYPE svg PUBLIC "-//W3C//DTD SVG 1.1//EN" "http://www.w3.org/Graphics/SVG/1.1/DTD/svg11.dtd" [
	<!ENTITY st0 "fill:#DEB237;">
	<!ENTITY st1 "fill:#F2ECE4;">
	<!ENTITY st2 "fill:#926152;">
	<!ENTITY st3 "fill:#FFFFFF;">
	<!ENTITY st4 "fill:#C27760;">
	<!ENTITY st5 "fill:#0061B2;">
	<!ENTITY st6 "fill:#FDB827;">
	<!ENTITY st7 "fill:#253B80;">
	<!ENTITY st8 "fill:#179BD7;">
	<!ENTITY st9 "fill:#222D65;">
	<!ENTITY st10 "fill:#231F20;">
	<!ENTITY st11 "fill:#F79410;">
	<!ENTITY st12 "fill:#FF5F00;">
	<!ENTITY st13 "fill:#EB001B;">
	<!ENTITY st14 "fill:#F79E1B;">
]>
<svg version="1.1" id="Layer_1" xmlns="http://www.w3.org/2000/svg" xmlns:xlink="http://www.w3.org/1999/xlink" x="0px" y="0px"
	 viewBox="0 0 4907.8 170.5" style="enable-background:new 0 0 4907.8 170.5;" xml:space="preserve">
<g>
	<g>
		<g>
			<g>
				<g>
					<g>
						<path style="&st4;" d="M115.1,59c-2,0-3.6-1.6-3.6-3.6c0-30.1-20.6-44.3-26.6-47.8c-6,3.5-26.6,17.7-26.6,47.8
							c0,2-1.6,3.6-3.6,3.6c-2,0-3.6-1.6-3.6-3.6C51.2,16.4,82,1,83.4,0.4c1-0.5,2.1-0.5,3.1,0c1.3,0.6,32.2,16.1,32.2,55.1
							C118.7,57.4,117.1,59,115.1,59z"/>
					</g>
				</g>
			</g>
		</g>
		<g>
			<g>
				<g>
					<g>
						<path style="&st4;" d="M115.1,119.4c-2,0-3.6-1.6-3.6-3.6c0-2,1.6-3.6,3.6-3.6c30.1,0,44.3-20.6,47.8-26.6
							c-3.5-6-17.7-26.6-47.8-26.6c-2,0-3.6-1.6-3.6-3.6s1.6-3.6,3.6-3.6c39,0,54.4,30.9,55.1,32.2c0.5,1,0.5,2.1,0,3.1
							C169.5,88.5,154.1,119.4,115.1,119.4z"/>
					</g>
				</g>
			</g>
		</g>
		<g>
			<g>
				<g>
					<g>
						<path style="&st4;" d="M55.4,118.7c-39,0-54.4-30.9-55.1-32.2c-0.5-1-0.5-2.1,0-3.1C1,82,16.4,51.2,55.4,51.2
							c2,0,3.6,1.6,3.6,3.6s-1.6,3.6-3.6,3.6c-30.1,0-44.3,20.6-47.8,26.6c3.5,6,17.7,26.6,47.8,26.6c2,0,3.6,1.6,3.6,3.6
							C59,117.1,57.4,118.7,55.4,118.7z"/>
					</g>
				</g>
			</g>
		</g>
		<g>
			<g>
				<g>
					<g>
						<path style="&st4;" d="M85.6,170.5c-0.5,0-1.1-0.1-1.6-0.4c-1.3-0.6-32.2-16.1-32.2-55.1c0-2,1.6-3.6,3.6-3.6s3.6,1.6,3.6,3.6
							c0,30.1,20.6,44.3,26.6,47.8c6-3.5,26.6-17.7,26.6-47.8c0-2,1.6-3.6,3.6-3.6s3.6,1.6,3.6,3.6c0,39-30.9,54.4-32.2,55.1
							C86.7,170.4,86.1,170.5,85.6,170.5z"/>
					</g>
				</g>
			</g>
		</g>
		<g>
			<g>
				<g>
					<g>
						<path style="&st4;" d="M115.1,119.4H54.7c-2,0-3.6-1.6-3.6-3.6V55.4c0-2,1.6-3.6,3.6-3.6h60.3c2,0,3.6,1.6,3.6,3.6v60.3
							C118.7,117.8,117.1,119.4,115.1,119.4z M58.3,112.2h53.2V59H58.3V112.2z"/>
					</g>
				</g>
			</g>
		</g>
		<g>
			<g>
				<g>
					<g>
						<path style="&st4;" d="M84.9,119.1c-0.9,0-1.8-0.4-2.5-1.1L52.5,88.1c-1.4-1.4-1.4-3.7,0-5.1l29.9-29.9c1.3-1.3,3.7-1.3,5.1,0
							l29.9,29.9c0.7,0.7,1.1,1.6,1.1,2.5s-0.4,1.9-1.1,2.5l-29.9,29.9C86.8,118.8,85.8,119.1,84.9,119.1z M60.1,85.6l24.8,24.8
							l24.8-24.8L84.9,60.8L60.1,85.6z"/>
					</g>
				</g>
			</g>
		</g>
	</g>
	<g>
		<g>
			<g>
				<g>
					<g>
						<path style="&st4;" d="M278.4,59c-2,0-3.6-1.6-3.6-3.6c0-30.1-20.6-44.3-26.6-47.8c-6,3.5-26.6,17.7-26.6,47.8
							c0,2-1.6,3.6-3.6,3.6c-2,0-3.6-1.6-3.6-3.6c0-39,30.9-54.4,32.2-55.1c1-0.5,2.1-0.5,3.1,0C251.1,1,282,16.4,282,55.4
							C282,57.4,280.4,59,278.4,59z"/>
					</g>
				</g>
			</g>
		</g>
		<g>
			<g>
				<g>
					<g>
						<path style="&st4;" d="M278.4,119.4c-2,0-3.6-1.6-3.6-3.6c0-2,1.6-3.6,3.6-3.6c30.1,0,44.3-20.6,47.8-26.6
							c-3.5-6-17.7-26.6-47.8-26.6c-2,0-3.6-1.6-3.6-3.6s1.6-3.6,3.6-3.6c39,0,54.4,30.9,55.1,32.2c0.5,1,0.5,2.1,0,3.1
							C332.9,88.5,317.5,119.4,278.4,119.4z"/>
					</g>
				</g>
			</g>
		</g>
		<g>
			<g>
				<g>
					<g>
						<path style="&st4;" d="M218.8,118.7c-39,0-54.4-30.9-55.1-32.2c-0.5-1-0.5-2.1,0-3.1c0.6-1.3,16.1-32.2,55.1-32.2
							c2,0,3.6,1.6,3.6,3.6s-1.6,3.6-3.6,3.6c-30.1,0-44.3,20.6-47.8,26.6c3.5,6,17.7,26.6,47.8,26.6c2,0,3.6,1.6,3.6,3.6
							C222.4,117.1,220.8,118.7,218.8,118.7z"/>
					</g>
				</g>
			</g>
		</g>
		<g>
			<g>
				<g>
					<g>
						<path style="&st4;" d="M249,170.5c-0.5,0-1.1-0.1-1.6-0.4c-1.3-0.6-32.2-16.1-32.2-55.1c0-2,1.6-3.6,3.6-3.6
							c2,0,3.6,1.6,3.6,3.6c0,30.1,20.6,44.3,26.6,47.8c6-3.5,26.6-17.7,26.6-47.8c0-2,1.6-3.6,3.6-3.6c2,0,3.6,1.6,3.6,3.6
							c0,39-30.9,54.4-32.2,55.1C250,170.4,249.5,170.5,249,170.5z"/>
					</g>
				</g>
			</g>
		</g>
		<g>
			<g>
				<g>
					<g>
						<path style="&st4;" d="M278.4,119.4h-60.3c-2,0-3.6-1.6-3.6-3.6V55.4c0-2,1.6-3.6,3.6-3.6h60.3c2,0,3.6,1.6,3.6,3.6v60.3
							C282,117.8,280.4,119.4,278.4,119.4z M221.7,112.2h53.2V59h-53.2V112.2z"/>
					</g>
				</g>
			</g>
		</g>
		<g>
			<g>
				<g>
					<g>
						<path style="&st4;" d="M248.3,119.1c-0.9,0-1.8-0.4-2.5-1.1l-29.9-29.9c-0.7-0.7-1.1-1.6-1.1-2.5s0.4-1.9,1.1-2.5l29.9-29.9
							c1.3-1.3,3.7-1.3,5.1,0l29.9,29.9c0.7,0.7,1.1,1.6,1.1,2.5s-0.4,1.9-1.1,2.5l-29.9,29.9C250.1,118.8,249.2,119.1,248.3,119.1z
							 M223.4,85.6l24.8,24.8l24.8-24.8l-24.8-24.8L223.4,85.6z"/>
					</g>
				</g>
			</g>
		</g>
	</g>
	<g>
		<g>
			<g>
				<g>
					<g>
						<path style="&st4;" d="M441.8,59c-2,0-3.6-1.6-3.6-3.6c0-30.1-20.6-44.3-26.6-47.8c-6,3.5-26.6,17.7-26.6,47.8
							c0,2-1.6,3.6-3.6,3.6c-2,0-3.6-1.6-3.6-3.6c0-39,30.9-54.4,32.2-55.1c1-0.5,2.1-0.5,3.1,0c1.3,0.6,32.2,16.1,32.2,55.1
							C445.4,57.4,443.8,59,441.8,59z"/>
					</g>
				</g>
			</g>
		</g>
		<g>
			<g>
				<g>
					<g>
						<path style="&st4;" d="M441.8,119.4c-2,0-3.6-1.6-3.6-3.6c0-2,1.6-3.6,3.6-3.6c30.1,0,44.3-20.6,47.8-26.6
							c-3.5-6-17.7-26.6-47.8-26.6c-2,0-3.6-1.6-3.6-3.6s1.6-3.6,3.6-3.6c39,0,54.4,30.9,55.1,32.2c0.5,1,0.5,2.1,0,3.1
							C496.2,88.5,480.8,119.4,441.8,119.4z"/>
					</g>
				</g>
			</g>
		</g>
		<g>
			<g>
				<g>
					<g>
						<path style="&st4;" d="M382.1,118.7c-39,0-54.4-30.9-55.1-32.2c-0.5-1-0.5-2.1,0-3.1c0.6-1.3,16.1-32.2,55.1-32.2
							c2,0,3.6,1.6,3.6,3.6s-1.6,3.6-3.6,3.6c-30.1,0-44.3,20.6-47.8,26.6c3.5,6,17.7,26.6,47.8,26.6c2,0,3.6,1.6,3.6,3.6
							C385.7,117.1,384.1,118.7,382.1,118.7z"/>
					</g>
				</g>
			</g>
		</g>
		<g>
			<g>
				<g>
					<g>
						<path style="&st4;" d="M412.3,170.5c-0.5,0-1.1-0.1-1.6-0.4c-1.3-0.6-32.2-16.1-32.2-55.1c0-2,1.6-3.6,3.6-3.6
							s3.6,1.6,3.6,3.6c0,30.1,20.6,44.3,26.6,47.8c6-3.5,26.6-17.7,26.6-47.8c0-2,1.6-3.6,3.6-3.6s3.6,1.6,3.6,3.6
							c0,39-30.9,54.4-32.2,55.1C413.4,170.4,412.9,170.5,412.3,170.5z"/>
					</g>
				</g>
			</g>
		</g>
		<g>
			<g>
				<g>
					<g>
						<path style="&st4;" d="M441.8,119.4h-60.3c-2,0-3.6-1.6-3.6-3.6V55.4c0-2,1.6-3.6,3.6-3.6h60.3c2,0,3.6,1.6,3.6,3.6v60.3
							C445.4,117.8,443.8,119.4,441.8,119.4z M385,112.2h53.2V59H385V112.2z"/>
					</g>
				</g>
			</g>
		</g>
		<g>
			<g>
				<g>
					<g>
						<path style="&st4;" d="M411.6,119.1c-0.9,0-1.8-0.4-2.5-1.1l-29.9-29.9c-0.7-0.7-1.1-1.6-1.1-2.5s0.4-1.9,1.1-2.5l29.9-29.9
							c1.3-1.3,3.7-1.3,5.1,0l29.9,29.9c0.7,0.7,1.1,1.6,1.1,2.5s-0.4,1.9-1.1,2.5l-29.9,29.9C413.5,118.8,412.5,119.1,411.6,119.1z
							 M386.8,85.6l24.8,24.8l24.8-24.8l-24.8-24.8L386.8,85.6z"/>
					</g>
				</g>
			</g>
		</g>
	</g>
	<g>
		<g>
			<g>
				<g>
					<g>
						<path style="&st4;" d="M605.1,59c-2,0-3.6-1.6-3.6-3.6c0-30.1-20.6-44.3-26.6-47.8c-6,3.5-26.6,17.7-26.6,47.8
							c0,2-1.6,3.6-3.6,3.6c-2,0-3.6-1.6-3.6-3.6c0-39,30.9-54.4,32.2-55.1c1-0.5,2.1-0.5,3.1,0c1.3,0.6,32.2,16.1,32.2,55.1
							C608.7,57.4,607.1,59,605.1,59z"/>
					</g>
				</g>
			</g>
		</g>
		<g>
			<g>
				<g>
					<g>
						<path style="&st4;" d="M605.1,119.4c-2,0-3.6-1.6-3.6-3.6c0-2,1.6-3.6,3.6-3.6c30.1,0,44.3-20.6,47.8-26.6
							c-3.5-6-17.7-26.6-47.8-26.6c-2,0-3.6-1.6-3.6-3.6s1.6-3.6,3.6-3.6c39,0,54.4,30.9,55.1,32.2c0.5,1,0.5,2.1,0,3.1
							C659.6,88.5,644.2,119.4,605.1,119.4z"/>
					</g>
				</g>
			</g>
		</g>
		<g>
			<g>
				<g>
					<g>
						<path style="&st4;" d="M545.5,118.7c-39,0-54.4-30.9-55.1-32.2c-0.5-1-0.5-2.1,0-3.1c0.6-1.3,16.1-32.2,55.1-32.2
							c2,0,3.6,1.6,3.6,3.6s-1.6,3.6-3.6,3.6c-30.1,0-44.3,20.6-47.8,26.6c3.5,6,17.7,26.6,47.8,26.6c2,0,3.6,1.6,3.6,3.6
							C549.1,117.1,547.5,118.7,545.5,118.7z"/>
					</g>
				</g>
			</g>
		</g>
		<g>
			<g>
				<g>
					<g>
						<path style="&st4;" d="M575.7,170.5c-0.5,0-1.1-0.1-1.6-0.4c-1.3-0.6-32.2-16.1-32.2-55.1c0-2,1.6-3.6,3.6-3.6
							c2,0,3.6,1.6,3.6,3.6c0,30.1,20.6,44.3,26.6,47.8c6-3.5,26.6-17.7,26.6-47.8c0-2,1.6-3.6,3.6-3.6s3.6,1.6,3.6,3.6
							c0,39-30.9,54.4-32.2,55.1C576.7,170.4,576.2,170.5,575.7,170.5z"/>
					</g>
				</g>
			</g>
		</g>
		<g>
			<g>
				<g>
					<g>
						<path style="&st4;" d="M605.1,119.4h-60.3c-2,0-3.6-1.6-3.6-3.6V55.4c0-2,1.6-3.6,3.6-3.6h60.3c2,0,3.6,1.6,3.6,3.6v60.3
							C608.7,117.8,607.1,119.4,605.1,119.4z M548.4,112.2h53.2V59h-53.2V112.2z"/>
					</g>
				</g>
			</g>
		</g>
		<g>
			<g>
				<g>
					<g>
						<path style="&st4;" d="M575,119.1c-0.9,0-1.8-0.4-2.5-1.1l-29.9-29.9c-1.4-1.4-1.4-3.7,0-5.1l29.9-29.9c1.3-1.3,3.7-1.3,5.1,0
							l29.9,29.9c0.7,0.7,1.1,1.6,1.1,2.5s-0.4,1.9-1.1,2.5l-29.9,29.9C576.8,118.8,575.9,119.1,575,119.1z M550.1,85.6l24.8,24.8
							l24.8-24.8L575,60.8L550.1,85.6z"/>
					</g>
				</g>
			</g>
		</g>
	</g>
	<g>
		<g>
			<g>
				<g>
					<g>
						<path style="&st4;" d="M768.5,59c-2,0-3.6-1.6-3.6-3.6c0-30.1-20.6-44.3-26.6-47.8c-6,3.5-26.6,17.7-26.6,47.8
							c0,2-1.6,3.6-3.6,3.6c-2,0-3.6-1.6-3.6-3.6c0-39,30.9-54.4,32.2-55.1c1-0.5,2.1-0.5,3.1,0c1.3,0.6,32.2,16.1,32.2,55.1
							C772.1,57.4,770.5,59,768.5,59z"/>
					</g>
				</g>
			</g>
		</g>
		<g>
			<g>
				<g>
					<g>
						<path style="&st4;" d="M768.5,119.4c-2,0-3.6-1.6-3.6-3.6c0-2,1.6-3.6,3.6-3.6c30.1,0,44.3-20.6,47.8-26.6
							c-3.5-6-17.7-26.6-47.8-26.6c-2,0-3.6-1.6-3.6-3.6s1.6-3.6,3.6-3.6c39,0,54.4,30.9,55.1,32.2c0.5,1,0.5,2.1,0,3.1
							C822.9,88.5,807.5,119.4,768.5,119.4z"/>
					</g>
				</g>
			</g>
		</g>
		<g>
			<g>
				<g>
					<g>
						<path style="&st4;" d="M708.9,118.7c-39,0-54.4-30.9-55.1-32.2c-0.5-1-0.5-2.1,0-3.1c0.6-1.3,16.1-32.2,55.1-32.2
							c2,0,3.6,1.6,3.6,3.6s-1.6,3.6-3.6,3.6c-30.1,0-44.3,20.6-47.8,26.6c3.5,6,17.7,26.6,47.8,26.6c2,0,3.6,1.6,3.6,3.6
							C712.4,117.1,710.8,118.7,708.9,118.7z"/>
					</g>
				</g>
			</g>
		</g>
		<g>
			<g>
				<g>
					<g>
						<path style="&st4;" d="M739,170.5c-0.5,0-1.1-0.1-1.6-0.4c-1.3-0.6-32.2-16.1-32.2-55.1c0-2,1.6-3.6,3.6-3.6
							c2,0,3.6,1.6,3.6,3.6c0,30.1,20.6,44.3,26.6,47.8c6-3.5,26.6-17.7,26.6-47.8c0-2,1.6-3.6,3.6-3.6s3.6,1.6,3.6,3.6
							c0,39-30.9,54.4-32.2,55.1C740.1,170.4,739.6,170.5,739,170.5z"/>
					</g>
				</g>
			</g>
		</g>
		<g>
			<g>
				<g>
					<g>
						<path style="&st4;" d="M768.5,119.4h-60.3c-2,0-3.6-1.6-3.6-3.6V55.4c0-2,1.6-3.6,3.6-3.6h60.3c2,0,3.6,1.6,3.6,3.6v60.3
							C772.1,117.8,770.5,119.4,768.5,119.4z M711.7,112.2h53.2V59h-53.2V112.2z"/>
					</g>
				</g>
			</g>
		</g>
		<g>
			<g>
				<g>
					<g>
						<path style="&st4;" d="M738.3,119.1c-0.9,0-1.8-0.4-2.5-1.1l-29.9-29.9c-0.7-0.7-1.1-1.6-1.1-2.5s0.4-1.9,1.1-2.5l29.9-29.9
							c1.3-1.3,3.7-1.3,5.1,0l29.9,29.9c0.7,0.7,1.1,1.6,1.1,2.5s-0.4,1.9-1.1,2.5l-29.9,29.9C740.2,118.8,739.3,119.1,738.3,119.1z
							 M713.5,85.6l24.8,24.8l24.8-24.8l-24.8-24.8L713.5,85.6z"/>
					</g>
				</g>
			</g>
		</g>
	</g>
	<g>
		<g>
			<g>
				<g>
					<g>
						<path style="&st4;" d="M931.9,59c-2,0-3.6-1.6-3.6-3.6c0-30.1-20.6-44.3-26.6-47.8c-6,3.5-26.6,17.7-26.6,47.8
							c0,2-1.6,3.6-3.6,3.6c-2,0-3.6-1.6-3.6-3.6c0-39,30.9-54.4,32.2-55.1c1-0.5,2.1-0.5,3.1,0c1.3,0.6,32.2,16.1,32.2,55.1
							C935.4,57.4,933.8,59,931.9,59z"/>
					</g>
				</g>
			</g>
		</g>
		<g>
			<g>
				<g>
					<g>
						<path style="&st4;" d="M931.9,119.4c-2,0-3.6-1.6-3.6-3.6c0-2,1.6-3.6,3.6-3.6c30.1,0,44.3-20.6,47.8-26.6
							c-3.5-6-17.7-26.6-47.8-26.6c-2,0-3.6-1.6-3.6-3.6s1.6-3.6,3.6-3.6c39,0,54.4,30.9,55.1,32.2c0.5,1,0.5,2.1,0,3.1
							C986.3,88.5,970.9,119.4,931.9,119.4z"/>
					</g>
				</g>
			</g>
		</g>
		<g>
			<g>
				<g>
					<g>
						<path style="&st4;" d="M872.2,118.7c-39,0-54.4-30.9-55.1-32.2c-0.5-1-0.5-2.1,0-3.1c0.6-1.3,16.1-32.2,55.1-32.2
							c2,0,3.6,1.6,3.6,3.6s-1.6,3.6-3.6,3.6c-30.1,0-44.3,20.6-47.8,26.6c3.5,6,17.7,26.6,47.8,26.6c2,0,3.6,1.6,3.6,3.6
							C875.8,117.1,874.2,118.7,872.2,118.7z"/>
					</g>
				</g>
			</g>
		</g>
		<g>
			<g>
				<g>
					<g>
						<path style="&st4;" d="M902.4,170.5c-0.5,0-1.1-0.1-1.6-0.4c-1.3-0.6-32.2-16.1-32.2-55.1c0-2,1.6-3.6,3.6-3.6
							c2,0,3.6,1.6,3.6,3.6c0,30.1,20.6,44.3,26.6,47.8c6-3.5,26.6-17.7,26.6-47.8c0-2,1.6-3.6,3.6-3.6s3.6,1.6,3.6,3.6
							c0,39-30.9,54.4-32.2,55.1C903.5,170.4,902.9,170.5,902.4,170.5z"/>
					</g>
				</g>
			</g>
		</g>
		<g>
			<g>
				<g>
					<g>
						<path style="&st4;" d="M931.9,119.4h-60.3c-2,0-3.6-1.6-3.6-3.6V55.4c0-2,1.6-3.6,3.6-3.6h60.3c2,0,3.6,1.6,3.6,3.6v60.3
							C935.4,117.8,933.8,119.4,931.9,119.4z M875.1,112.2h53.2V59h-53.2V112.2z"/>
					</g>
				</g>
			</g>
		</g>
		<g>
			<g>
				<g>
					<g>
						<path style="&st4;" d="M901.7,119.1c-0.9,0-1.8-0.4-2.5-1.1l-29.9-29.9c-0.7-0.7-1.1-1.6-1.1-2.5s0.4-1.9,1.1-2.5l29.9-29.9
							c1.3-1.3,3.7-1.3,5.1,0l29.9,29.9c0.7,0.7,1.1,1.6,1.1,2.5s-0.4,1.9-1.1,2.5l-29.9,29.9C903.5,118.8,902.6,119.1,901.7,119.1z
							 M876.8,85.6l24.8,24.8l24.8-24.8l-24.8-24.8L876.8,85.6z"/>
					</g>
				</g>
			</g>
		</g>
	</g>
	<g>
		<g>
			<g>
				<g>
					<g>
						<path style="&st4;" d="M1095.2,59c-2,0-3.6-1.6-3.6-3.6c0-30.1-20.6-44.3-26.6-47.8c-6,3.5-26.6,17.7-26.6,47.8
							c0,2-1.6,3.6-3.6,3.6c-2,0-3.6-1.6-3.6-3.6c0-39,30.9-54.4,32.2-55.1c1-0.5,2.1-0.5,3.1,0c1.3,0.6,32.2,16.1,32.2,55.1
							C1098.8,57.4,1097.2,59,1095.2,59z"/>
					</g>
				</g>
			</g>
		</g>
		<g>
			<g>
				<g>
					<g>
						<path style="&st4;" d="M1095.2,119.4c-2,0-3.6-1.6-3.6-3.6c0-2,1.6-3.6,3.6-3.6c30.1,0,44.3-20.6,47.8-26.6
							c-3.5-6-17.7-26.6-47.8-26.6c-2,0-3.6-1.6-3.6-3.6s1.6-3.6,3.6-3.6c39,0,54.4,30.9,55.1,32.2c0.5,1,0.5,2.1,0,3.1
							C1149.7,88.5,1134.2,119.4,1095.2,119.4z"/>
					</g>
				</g>
			</g>
		</g>
		<g>
			<g>
				<g>
					<g>
						<path style="&st4;" d="M1035.6,118.7c-39,0-54.4-30.9-55.1-32.2c-0.5-1-0.5-2.1,0-3.1c0.6-1.3,16.1-32.2,55.1-32.2
							c2,0,3.6,1.6,3.6,3.6s-1.6,3.6-3.6,3.6c-30.1,0-44.3,20.6-47.8,26.6c3.5,6,17.7,26.6,47.8,26.6c2,0,3.6,1.6,3.6,3.6
							C1039.1,117.1,1037.5,118.7,1035.6,118.7z"/>
					</g>
				</g>
			</g>
		</g>
		<g>
			<g>
				<g>
					<g>
						<path style="&st4;" d="M1065.7,170.5c-0.5,0-1.1-0.1-1.6-0.4c-1.3-0.6-32.2-16.1-32.2-55.1c0-2,1.6-3.6,3.6-3.6
							s3.6,1.6,3.6,3.6c0,30.1,20.6,44.3,26.6,47.8c6-3.5,26.6-17.7,26.6-47.8c0-2,1.6-3.6,3.6-3.6c2,0,3.6,1.6,3.6,3.6
							c0,39-30.9,54.4-32.2,55.1C1066.8,170.4,1066.3,170.5,1065.7,170.5z"/>
					</g>
				</g>
			</g>
		</g>
		<g>
			<g>
				<g>
					<g>
						<path style="&st4;" d="M1095.2,119.4h-60.3c-2,0-3.6-1.6-3.6-3.6V55.4c0-2,1.6-3.6,3.6-3.6h60.3c2,0,3.6,1.6,3.6,3.6v60.3
							C1098.8,117.8,1097.2,119.4,1095.2,119.4z M1038.5,112.2h53.2V59h-53.2V112.2z"/>
					</g>
				</g>
			</g>
		</g>
		<g>
			<g>
				<g>
					<g>
						<path style="&st4;" d="M1065,119.1c-0.9,0-1.8-0.4-2.5-1.1l-29.9-29.9c-1.4-1.4-1.4-3.7,0-5.1l29.9-29.9
							c1.3-1.3,3.7-1.3,5.1,0l29.9,29.9c0.7,0.7,1.1,1.6,1.1,2.5s-0.4,1.9-1.1,2.5l-29.9,29.9C1066.9,118.8,1066,119.1,1065,119.1z
							 M1040.2,85.6l24.8,24.8l24.8-24.8L1065,60.8L1040.2,85.6z"/>
					</g>
				</g>
			</g>
		</g>
	</g>
	<g>
		<g>
			<g>
				<g>
					<g>
						<path style="&st4;" d="M1258.6,59c-2,0-3.6-1.6-3.6-3.6c0-30.1-20.6-44.3-26.6-47.8c-6,3.5-26.6,17.7-26.6,47.8
							c0,2-1.6,3.6-3.6,3.6s-3.6-1.6-3.6-3.6c0-39,30.9-54.4,32.2-55.1c1-0.5,2.1-0.5,3.1,0c1.3,0.6,32.2,16.1,32.2,55.1
							C1262.2,57.4,1260.5,59,1258.6,59z"/>
					</g>
				</g>
			</g>
		</g>
		<g>
			<g>
				<g>
					<g>
						<path style="&st4;" d="M1258.6,119.4c-2,0-3.6-1.6-3.6-3.6c0-2,1.6-3.6,3.6-3.6c30.1,0,44.3-20.6,47.8-26.6
							c-3.5-6-17.7-26.6-47.8-26.6c-2,0-3.6-1.6-3.6-3.6s1.6-3.6,3.6-3.6c39,0,54.4,30.9,55.1,32.2c0.5,1,0.5,2.1,0,3.1
							C1313,88.5,1297.6,119.4,1258.6,119.4z"/>
					</g>
				</g>
			</g>
		</g>
		<g>
			<g>
				<g>
					<g>
						<path style="&st4;" d="M1198.9,118.7c-39,0-54.4-30.9-55.1-32.2c-0.5-1-0.5-2.1,0-3.1c0.6-1.3,16.1-32.2,55.1-32.2
							c2,0,3.6,1.6,3.6,3.6s-1.6,3.6-3.6,3.6c-30.1,0-44.3,20.6-47.8,26.6c3.5,6,17.7,26.6,47.8,26.6c2,0,3.6,1.6,3.6,3.6
							C1202.5,117.1,1200.9,118.7,1198.9,118.7z"/>
					</g>
				</g>
			</g>
		</g>
		<g>
			<g>
				<g>
					<g>
						<path style="&st4;" d="M1229.1,170.5c-0.5,0-1.1-0.1-1.6-0.4c-1.3-0.6-32.2-16.1-32.2-55.1c0-2,1.6-3.6,3.6-3.6
							s3.6,1.6,3.6,3.6c0,30.1,20.6,44.3,26.6,47.8c6-3.5,26.6-17.7,26.6-47.8c0-2,1.6-3.6,3.6-3.6c2,0,3.6,1.6,3.6,3.6
							c0,39-30.9,54.4-32.2,55.1C1230.2,170.4,1229.6,170.5,1229.1,170.5z"/>
					</g>
				</g>
			</g>
		</g>
		<g>
			<g>
				<g>
					<g>
						<path style="&st4;" d="M1258.6,119.4h-60.3c-2,0-3.6-1.6-3.6-3.6V55.4c0-2,1.6-3.6,3.6-3.6h60.3c2,0,3.6,1.6,3.6,3.6v60.3
							C1262.2,117.8,1260.5,119.4,1258.6,119.4z M1201.8,112.2h53.2V59h-53.2V112.2z"/>
					</g>
				</g>
			</g>
		</g>
		<g>
			<g>
				<g>
					<g>
						<path style="&st4;" d="M1228.4,119.1c-0.9,0-1.8-0.4-2.5-1.1L1196,88.1c-0.7-0.7-1.1-1.6-1.1-2.5s0.4-1.9,1.1-2.5l29.9-29.9
							c1.3-1.3,3.7-1.3,5.1,0l29.9,29.9c0.7,0.7,1.1,1.6,1.1,2.5s-0.4,1.9-1.1,2.5l-29.9,29.9
							C1230.2,118.8,1229.3,119.1,1228.4,119.1z M1203.6,85.6l24.8,24.8l24.8-24.8l-24.8-24.8L1203.6,85.6z"/>
					</g>
				</g>
			</g>
		</g>
	</g>
	<g>
		<g>
			<g>
				<g>
					<g>
						<path style="&st4;" d="M1421.9,59c-2,0-3.6-1.6-3.6-3.6c0-29.8-20.7-44.3-26.6-47.8c-6,3.5-26.6,17.7-26.6,47.8
							c0,2-1.6,3.6-3.6,3.6s-3.6-1.6-3.6-3.6c0-39,30.9-54.4,32.2-55.1c1-0.5,2.1-0.5,3.1,0c1.3,0.6,32.2,16.1,32.2,55.1
							C1425.5,57.4,1423.9,59,1421.9,59z"/>
					</g>
				</g>
			</g>
		</g>
		<g>
			<g>
				<g>
					<g>
						<path style="&st4;" d="M1421.9,119.4c-2,0-3.6-1.6-3.6-3.6c0-2,1.6-3.6,3.6-3.6c30.1,0,44.3-20.6,47.8-26.6
							c-3.5-6-17.7-26.6-47.8-26.6c-2,0-3.6-1.6-3.6-3.6s1.6-3.6,3.6-3.6c39,0,54.4,30.9,55.1,32.2c0.5,1,0.5,2.1,0,3.1
							C1476.4,88.5,1460.9,119.4,1421.9,119.4z"/>
					</g>
				</g>
			</g>
		</g>
		<g>
			<g>
				<g>
					<g>
						<path style="&st4;" d="M1362.3,118.7c-39,0-54.4-30.9-55.1-32.2c-0.5-1-0.5-2.1,0-3.1c0.6-1.3,16.1-32.2,55.1-32.2
							c2,0,3.6,1.6,3.6,3.6s-1.6,3.6-3.6,3.6c-30.1,0-44.3,20.6-47.8,26.6c3.5,6,17.7,26.6,47.8,26.6c2,0,3.6,1.6,3.6,3.6
							C1365.9,117.1,1364.3,118.7,1362.3,118.7z"/>
					</g>
				</g>
			</g>
		</g>
		<g>
			<g>
				<g>
					<g>
						<path style="&st4;" d="M1392.4,170.5c-0.5,0-1.1-0.1-1.6-0.4c-1.3-0.6-32.2-16.1-32.2-55.1c0-2,1.6-3.6,3.6-3.6
							s3.6,1.6,3.6,3.6c0,30.1,20.6,44.3,26.6,47.8c6-3.5,26.6-17.7,26.6-47.8c0-2,1.6-3.6,3.6-3.6c2,0,3.6,1.6,3.6,3.6
							c0,39-30.9,54.4-32.2,55.1C1393.5,170.4,1393,170.5,1392.4,170.5z"/>
					</g>
				</g>
			</g>
		</g>
		<g>
			<g>
				<g>
					<g>
						<path style="&st4;" d="M1421.9,119.4h-60.3c-2,0-3.6-1.6-3.6-3.6V55.4c0-2,1.6-3.6,3.6-3.6h60.3c2,0,3.6,1.6,3.6,3.6v60.3
							C1425.5,117.8,1423.9,119.4,1421.9,119.4z M1365.2,112.2h53.2V59h-53.2V112.2z"/>
					</g>
				</g>
			</g>
		</g>
		<g>
			<g>
				<g>
					<g>
						<path style="&st4;" d="M1391.8,119.1c-0.9,0-1.8-0.4-2.5-1.1l-29.9-29.9c-0.7-0.7-1.1-1.6-1.1-2.5s0.4-1.9,1.1-2.5l29.9-29.9
							c1.3-1.3,3.7-1.3,5.1,0l29.9,29.9c1.4,1.4,1.4,3.7,0,5.1l-29.9,29.9C1393.6,118.8,1392.7,119.1,1391.8,119.1z M1366.9,85.6
							l24.8,24.8l24.8-24.8l-24.8-24.8L1366.9,85.6z"/>
					</g>
				</g>
			</g>
		</g>
	</g>
	<g>
		<g>
			<g>
				<g>
					<g>
						<path style="&st4;" d="M1585.3,59c-2,0-3.6-1.6-3.6-3.6c0-30.1-20.6-44.3-26.6-47.8c-6,3.5-26.6,17.7-26.6,47.8
							c0,2-1.6,3.6-3.6,3.6s-3.6-1.6-3.6-3.6c0-39,30.9-54.4,32.2-55.1c1-0.5,2.1-0.5,3.1,0c1.3,0.6,32.2,16.1,32.2,55.1
							C1588.9,57.4,1587.3,59,1585.3,59z"/>
					</g>
				</g>
			</g>
		</g>
		<g>
			<g>
				<g>
					<g>
						<path style="&st4;" d="M1585.3,119.4c-2,0-3.6-1.6-3.6-3.6c0-2,1.6-3.6,3.6-3.6c30.1,0,44.3-20.6,47.8-26.6
							c-3.5-6-17.7-26.6-47.8-26.6c-2,0-3.6-1.6-3.6-3.6s1.6-3.6,3.6-3.6c39,0,54.4,30.9,55.1,32.2c0.5,1,0.5,2.1,0,3.1
							C1639.7,88.5,1624.3,119.4,1585.3,119.4z"/>
					</g>
				</g>
			</g>
		</g>
		<g>
			<g>
				<g>
					<g>
						<path style="&st4;" d="M1525.6,118.7c-39,0-54.4-30.9-55.1-32.2c-0.5-1-0.5-2.1,0-3.1c0.6-1.3,16.1-32.2,55.1-32.2
							c2,0,3.6,1.6,3.6,3.6s-1.6,3.6-3.6,3.6c-30.1,0-44.3,20.6-47.8,26.6c3.5,6,17.7,26.6,47.8,26.6c2,0,3.6,1.6,3.6,3.6
							C1529.2,117.1,1527.6,118.7,1525.6,118.7z"/>
					</g>
				</g>
			</g>
		</g>
		<g>
			<g>
				<g>
					<g>
						<path style="&st4;" d="M1555.8,170.5c-0.5,0-1.1-0.1-1.6-0.4c-1.3-0.6-32.2-16.1-32.2-55.1c0-2,1.6-3.6,3.6-3.6
							c2,0,3.6,1.6,3.6,3.6c0,30.1,20.6,44.3,26.6,47.8c6-3.5,26.6-17.7,26.6-47.8c0-2,1.6-3.6,3.6-3.6s3.6,1.6,3.6,3.6
							c0,39-30.9,54.4-32.2,55.1C1556.9,170.4,1556.3,170.5,1555.8,170.5z"/>
					</g>
				</g>
			</g>
		</g>
		<g>
			<g>
				<g>
					<g>
						<path style="&st4;" d="M1585.3,119.4h-60.3c-2,0-3.6-1.6-3.6-3.6V55.4c0-2,1.6-3.6,3.6-3.6h60.3c2,0,3.6,1.6,3.6,3.6v60.3
							C1588.9,117.8,1587.3,119.4,1585.3,119.4z M1528.5,112.2h53.2V59h-53.2V112.2z"/>
					</g>
				</g>
			</g>
		</g>
		<g>
			<g>
				<g>
					<g>
						<path style="&st4;" d="M1555.1,119.1c-0.9,0-1.8-0.4-2.5-1.1l-29.9-29.9c-1.4-1.4-1.4-3.7,0-5.1l29.9-29.9
							c1.3-1.3,3.7-1.3,5.1,0l29.9,29.9c0.7,0.7,1.1,1.6,1.1,2.5s-0.4,1.9-1.1,2.5l-29.9,29.9C1556.9,118.8,1556,119.1,1555.1,119.1
							z M1530.3,85.6l24.8,24.8l24.8-24.8l-24.8-24.8L1530.3,85.6z"/>
					</g>
				</g>
			</g>
		</g>
	</g>
	<g>
		<g>
			<g>
				<g>
					<g>
						<path style="&st4;" d="M1748.6,59c-2,0-3.6-1.6-3.6-3.6c0-30.1-20.6-44.3-26.6-47.8c-6,3.5-26.6,17.7-26.6,47.8
							c0,2-1.6,3.6-3.6,3.6s-3.6-1.6-3.6-3.6c0-39,30.9-54.4,32.2-55.1c1-0.5,2.1-0.5,3.1,0c1.3,0.6,32.2,16.1,32.2,55.1
							C1752.2,57.4,1750.6,59,1748.6,59z"/>
					</g>
				</g>
			</g>
		</g>
		<g>
			<g>
				<g>
					<g>
						<path style="&st4;" d="M1748.6,119.4c-2,0-3.6-1.6-3.6-3.6c0-2,1.6-3.6,3.6-3.6c30.1,0,44.3-20.6,47.8-26.6
							c-3.5-6-17.7-26.6-47.8-26.6c-2,0-3.6-1.6-3.6-3.6s1.6-3.6,3.6-3.6c39,0,54.4,30.9,55.1,32.2c0.5,1,0.5,2.1,0,3.1
							C1803.1,88.5,1787.7,119.4,1748.6,119.4z"/>
					</g>
				</g>
			</g>
		</g>
		<g>
			<g>
				<g>
					<g>
						<path style="&st4;" d="M1689,118.7c-39,0-54.4-30.9-55.1-32.2c-0.5-1-0.5-2.1,0-3.1c0.6-1.3,16.1-32.2,55.1-32.2
							c2,0,3.6,1.6,3.6,3.6s-1.6,3.6-3.6,3.6c-30.1,0-44.3,20.6-47.8,26.6c3.5,6,17.7,26.6,47.8,26.6c2,0,3.6,1.6,3.6,3.6
							C1692.6,117.1,1691,118.7,1689,118.7z"/>
					</g>
				</g>
			</g>
		</g>
		<g>
			<g>
				<g>
					<g>
						<path style="&st4;" d="M1719.2,170.5c-0.5,0-1.1-0.1-1.6-0.4c-1.3-0.6-32.2-16.1-32.2-55.1c0-2,1.6-3.6,3.6-3.6
							c2,0,3.6,1.6,3.6,3.6c0,30.1,20.6,44.3,26.6,47.8c6-3.5,26.6-17.7,26.6-47.8c0-2,1.6-3.6,3.6-3.6s3.6,1.6,3.6,3.6
							c0,39-30.9,54.4-32.2,55.1C1720.2,170.4,1719.7,170.5,1719.2,170.5z"/>
					</g>
				</g>
			</g>
		</g>
		<g>
			<g>
				<g>
					<g>
						<path style="&st4;" d="M1748.6,119.4h-60.3c-2,0-3.6-1.6-3.6-3.6V55.4c0-2,1.6-3.6,3.6-3.6h60.3c2,0,3.6,1.6,3.6,3.6v60.3
							C1752.2,117.8,1750.6,119.4,1748.6,119.4z M1691.9,112.2h53.2V59h-53.2V112.2z"/>
					</g>
				</g>
			</g>
		</g>
		<g>
			<g>
				<g>
					<g>
						<path style="&st4;" d="M1718.5,119.1c-0.9,0-1.8-0.4-2.5-1.1L1686,88.1c-0.7-0.7-1.1-1.6-1.1-2.5s0.4-1.9,1.1-2.5l29.9-29.9
							c1.3-1.3,3.7-1.3,5.1,0l29.9,29.9c0.7,0.7,1.1,1.6,1.1,2.5s-0.4,1.9-1.1,2.5l-29.9,29.9
							C1720.3,118.8,1719.4,119.1,1718.5,119.1z M1693.6,85.6l24.8,24.8l24.8-24.8l-24.8-24.8L1693.6,85.6z"/>
					</g>
				</g>
			</g>
		</g>
	</g>
	<g>
		<g>
			<g>
				<g>
					<g>
						<path style="&st4;" d="M1912,59c-2,0-3.6-1.6-3.6-3.6c0-29.8-20.7-44.3-26.6-47.8c-6,3.5-26.6,17.7-26.6,47.8
							c0,2-1.6,3.6-3.6,3.6s-3.6-1.6-3.6-3.6c0-39,30.9-54.4,32.2-55.1c1-0.5,2.1-0.5,3.1,0c1.3,0.6,32.2,16.1,32.2,55.1
							C1915.6,57.4,1914,59,1912,59z"/>
					</g>
				</g>
			</g>
		</g>
		<g>
			<g>
				<g>
					<g>
						<path style="&st4;" d="M1912,119.4c-2,0-3.6-1.6-3.6-3.6c0-2,1.6-3.6,3.6-3.6c30.1,0,44.3-20.6,47.8-26.6
							c-3.5-6-17.7-26.6-47.8-26.6c-2,0-3.6-1.6-3.6-3.6s1.6-3.6,3.6-3.6c39,0,54.4,30.9,55.1,32.2c0.5,1,0.5,2.1,0,3.1
							C1966.4,88.5,1951,119.4,1912,119.4z"/>
					</g>
				</g>
			</g>
		</g>
		<g>
			<g>
				<g>
					<g>
						<path style="&st4;" d="M1852.3,118.7c-39,0-54.4-30.9-55.1-32.2c-0.5-1-0.5-2.1,0-3.1c0.6-1.3,16.1-32.2,55.1-32.2
							c2,0,3.6,1.6,3.6,3.6s-1.6,3.6-3.6,3.6c-30.1,0-44.3,20.6-47.8,26.6c3.5,6,17.7,26.6,47.8,26.6c2,0,3.6,1.6,3.6,3.6
							C1855.9,117.1,1854.3,118.7,1852.3,118.7z"/>
					</g>
				</g>
			</g>
		</g>
		<g>
			<g>
				<g>
					<g>
						<path style="&st4;" d="M1882.5,170.5c-0.5,0-1.1-0.1-1.6-0.4c-1.3-0.6-32.2-16.1-32.2-55.1c0-2,1.6-3.6,3.6-3.6
							c2,0,3.6,1.6,3.6,3.6c0,30.1,20.6,44.3,26.6,47.8c6-3.5,26.6-17.7,26.6-47.8c0-2,1.6-3.6,3.6-3.6s3.6,1.6,3.6,3.6
							c0,39-30.9,54.4-32.2,55.1C1883.6,170.4,1883,170.5,1882.5,170.5z"/>
					</g>
				</g>
			</g>
		</g>
		<g>
			<g>
				<g>
					<g>
						<path style="&st4;" d="M1912,119.4h-60.3c-2,0-3.6-1.6-3.6-3.6V55.4c0-2,1.6-3.6,3.6-3.6h60.3c2,0,3.6,1.6,3.6,3.6v60.3
							C1915.6,117.8,1914,119.4,1912,119.4z M1855.2,112.2h53.2V59h-53.2V112.2z"/>
					</g>
				</g>
			</g>
		</g>
		<g>
			<g>
				<g>
					<g>
						<path style="&st4;" d="M1881.8,119.1c-0.9,0-1.8-0.4-2.5-1.1l-29.9-29.9c-0.7-0.7-1.1-1.6-1.1-2.5s0.4-1.9,1.1-2.5l29.9-29.9
							c1.3-1.3,3.7-1.3,5.1,0l29.9,29.9c1.4,1.4,1.4,3.7,0,5.1l-29.9,29.9C1883.6,118.8,1882.7,119.1,1881.8,119.1z M1857,85.6
							l24.8,24.8l24.8-24.8l-24.8-24.8L1857,85.6z"/>
					</g>
				</g>
			</g>
		</g>
	</g>
	<g>
		<g>
			<g>
				<g>
					<g>
						<path style="&st4;" d="M2075.3,59c-2,0-3.6-1.6-3.6-3.6c0-30.1-20.6-44.3-26.6-47.8c-6,3.5-26.6,17.7-26.6,47.8
							c0,2-1.6,3.6-3.6,3.6c-2,0-3.6-1.6-3.6-3.6c0-39,30.9-54.4,32.2-55.1c1-0.5,2.1-0.5,3.1,0c1.3,0.6,32.2,16.1,32.2,55.1
							C2078.9,57.4,2077.3,59,2075.3,59z"/>
					</g>
				</g>
			</g>
		</g>
		<g>
			<g>
				<g>
					<g>
						<path style="&st4;" d="M2075.3,119.4c-2,0-3.6-1.6-3.6-3.6c0-2,1.6-3.6,3.6-3.6c30.1,0,44.3-20.6,47.8-26.6
							c-3.5-6-17.7-26.6-47.8-26.6c-2,0-3.6-1.6-3.6-3.6s1.6-3.6,3.6-3.6c39,0,54.4,30.9,55.1,32.2c0.5,1,0.5,2.1,0,3.1
							C2129.8,88.5,2114.4,119.4,2075.3,119.4z"/>
					</g>
				</g>
			</g>
		</g>
		<g>
			<g>
				<g>
					<g>
						<path style="&st4;" d="M2015.7,118.7c-39,0-54.4-30.9-55.1-32.2c-0.5-1-0.5-2.1,0-3.1c0.6-1.3,16.1-32.2,55.1-32.2
							c2,0,3.6,1.6,3.6,3.6s-1.6,3.6-3.6,3.6c-30.1,0-44.3,20.6-47.8,26.6c3.5,6,17.7,26.6,47.8,26.6c2,0,3.6,1.6,3.6,3.6
							C2019.3,117.1,2017.7,118.7,2015.7,118.7z"/>
					</g>
				</g>
			</g>
		</g>
		<g>
			<g>
				<g>
					<g>
						<path style="&st4;" d="M2045.9,170.5c-0.5,0-1.1-0.1-1.6-0.4c-1.3-0.6-32.2-16.1-32.2-55.1c0-2,1.6-3.6,3.6-3.6
							s3.6,1.6,3.6,3.6c0,30.1,20.6,44.3,26.6,47.8c6-3.5,26.6-17.7,26.6-47.8c0-2,1.6-3.6,3.6-3.6s3.6,1.6,3.6,3.6
							c0,39-30.9,54.4-32.2,55.1C2046.9,170.4,2046.4,170.5,2045.9,170.5z"/>
					</g>
				</g>
			</g>
		</g>
		<g>
			<g>
				<g>
					<g>
						<path style="&st4;" d="M2075.3,119.4H2015c-2,0-3.6-1.6-3.6-3.6V55.4c0-2,1.6-3.6,3.6-3.6h60.3c2,0,3.6,1.6,3.6,3.6v60.3
							C2078.9,117.8,2077.3,119.4,2075.3,119.4z M2018.6,112.2h53.2V59h-53.2V112.2z"/>
					</g>
				</g>
			</g>
		</g>
		<g>
			<g>
				<g>
					<g>
						<path style="&st4;" d="M2045.2,119.1c-0.9,0-1.8-0.4-2.5-1.1l-29.9-29.9c-1.4-1.4-1.4-3.7,0-5.1l29.9-29.9
							c1.3-1.3,3.7-1.3,5.1,0l29.9,29.9c0.7,0.7,1.1,1.6,1.1,2.5s-0.4,1.9-1.1,2.5l-29.9,29.9C2047,118.8,2046.1,119.1,2045.2,119.1
							z M2020.3,85.6l24.8,24.8l24.8-24.8l-24.8-24.8L2020.3,85.6z"/>
					</g>
				</g>
			</g>
		</g>
	</g>
	<g>
		<g>
			<g>
				<g>
					<g>
						<path style="&st4;" d="M2238.7,59c-2,0-3.6-1.6-3.6-3.6c0-30.1-20.6-44.3-26.6-47.8c-6,3.5-26.6,17.7-26.6,47.8
							c0,2-1.6,3.6-3.6,3.6s-3.6-1.6-3.6-3.6c0-39,30.9-54.4,32.2-55.1c1-0.5,2.1-0.5,3.1,0c1.3,0.6,32.2,16.1,32.2,55.1
							C2242.3,57.4,2240.7,59,2238.7,59z"/>
					</g>
				</g>
			</g>
		</g>
		<g>
			<g>
				<g>
					<g>
						<path style="&st4;" d="M2238.7,119.4c-2,0-3.6-1.6-3.6-3.6c0-2,1.6-3.6,3.6-3.6c30.1,0,44.3-20.6,47.8-26.6
							c-3.5-6-17.7-26.6-47.8-26.6c-2,0-3.6-1.6-3.6-3.6s1.6-3.6,3.6-3.6c39,0,54.4,30.9,55.1,32.2c0.5,1,0.5,2.1,0,3.1
							C2293.1,88.5,2277.7,119.4,2238.7,119.4z"/>
					</g>
				</g>
			</g>
		</g>
		<g>
			<g>
				<g>
					<g>
						<path style="&st4;" d="M2179,118.7c-39,0-54.4-30.9-55.1-32.2c-0.5-1-0.5-2.1,0-3.1c0.6-1.3,16.1-32.2,55.1-32.2
							c2,0,3.6,1.6,3.6,3.6s-1.6,3.6-3.6,3.6c-30.1,0-44.3,20.6-47.8,26.6c3.5,6,17.7,26.6,47.8,26.6c2,0,3.6,1.6,3.6,3.6
							C2182.6,117.1,2181,118.7,2179,118.7z"/>
					</g>
				</g>
			</g>
		</g>
		<g>
			<g>
				<g>
					<g>
						<path style="&st4;" d="M2209.2,170.5c-0.5,0-1.1-0.1-1.6-0.4c-1.3-0.6-32.2-16.1-32.2-55.1c0-2,1.6-3.6,3.6-3.6
							c2,0,3.6,1.6,3.6,3.6c0,30.1,20.6,44.3,26.6,47.8c6-3.5,26.6-17.7,26.6-47.8c0-2,1.6-3.6,3.6-3.6s3.6,1.6,3.6,3.6
							c0,39-30.9,54.4-32.2,55.1C2210.3,170.4,2209.7,170.5,2209.2,170.5z"/>
					</g>
				</g>
			</g>
		</g>
		<g>
			<g>
				<g>
					<g>
						<path style="&st4;" d="M2238.7,119.4h-60.3c-2,0-3.6-1.6-3.6-3.6V55.4c0-2,1.6-3.6,3.6-3.6h60.3c2,0,3.6,1.6,3.6,3.6v60.3
							C2242.3,117.8,2240.7,119.4,2238.7,119.4z M2181.9,112.2h53.2V59h-53.2V112.2z"/>
					</g>
				</g>
			</g>
		</g>
		<g>
			<g>
				<g>
					<g>
						<path style="&st4;" d="M2208.5,119.1c-0.9,0-1.8-0.4-2.5-1.1l-29.9-29.9c-0.7-0.7-1.1-1.6-1.1-2.5s0.4-1.9,1.1-2.5l29.9-29.9
							c1.3-1.3,3.7-1.3,5.1,0l29.9,29.9c0.7,0.7,1.1,1.6,1.1,2.5s-0.4,1.9-1.1,2.5l-29.9,29.9
							C2210.4,118.8,2209.4,119.1,2208.5,119.1z M2183.7,85.6l24.8,24.8l24.8-24.8l-24.8-24.8L2183.7,85.6z"/>
					</g>
				</g>
			</g>
		</g>
	</g>
	<g>
		<g>
			<g>
				<g>
					<g>
						<path style="&st4;" d="M2402,59c-2,0-3.6-1.6-3.6-3.6c0-29.8-20.7-44.3-26.6-47.8c-6,3.5-26.6,17.7-26.6,47.8
							c0,2-1.6,3.6-3.6,3.6s-3.6-1.6-3.6-3.6c0-39,30.9-54.4,32.2-55.1c1-0.5,2.1-0.5,3.1,0c1.3,0.6,32.2,16.1,32.2,55.1
							C2405.6,57.4,2404,59,2402,59z"/>
					</g>
				</g>
			</g>
		</g>
		<g>
			<g>
				<g>
					<g>
						<path style="&st4;" d="M2402,119.4c-2,0-3.6-1.6-3.6-3.6c0-2,1.6-3.6,3.6-3.6c30.1,0,44.3-20.6,47.8-26.6
							c-3.5-6-17.7-26.6-47.8-26.6c-2,0-3.6-1.6-3.6-3.6s1.6-3.6,3.6-3.6c39,0,54.4,30.9,55.1,32.2c0.5,1,0.5,2.1,0,3.1
							C2456.5,88.5,2441.1,119.4,2402,119.4z"/>
					</g>
				</g>
			</g>
		</g>
		<g>
			<g>
				<g>
					<g>
						<path style="&st4;" d="M2342.4,118.7c-39,0-54.4-30.9-55.1-32.2c-0.5-1-0.5-2.1,0-3.1c0.6-1.3,16.1-32.2,55.1-32.2
							c2,0,3.6,1.6,3.6,3.6s-1.6,3.6-3.6,3.6c-30.1,0-44.3,20.6-47.8,26.6c3.5,6,17.7,26.6,47.8,26.6c2,0,3.6,1.6,3.6,3.6
							C2346,117.1,2344.4,118.7,2342.4,118.7z"/>
					</g>
				</g>
			</g>
		</g>
		<g>
			<g>
				<g>
					<g>
						<path style="&st4;" d="M2372.6,170.5c-0.5,0-1.1-0.1-1.6-0.4c-1.3-0.6-32.2-16.1-32.2-55.1c0-2,1.6-3.6,3.6-3.6
							c2,0,3.6,1.6,3.6,3.6c0,30.1,20.6,44.3,26.6,47.8c6-3.5,26.6-17.7,26.6-47.8c0-2,1.6-3.6,3.6-3.6s3.6,1.6,3.6,3.6
							c0,39-30.9,54.4-32.2,55.1C2373.6,170.4,2373.1,170.5,2372.6,170.5z"/>
					</g>
				</g>
			</g>
		</g>
		<g>
			<g>
				<g>
					<g>
						<path style="&st4;" d="M2402,119.4h-60.3c-2,0-3.6-1.6-3.6-3.6V55.4c0-2,1.6-3.6,3.6-3.6h60.3c2,0,3.6,1.6,3.6,3.6v60.3
							C2405.6,117.8,2404,119.4,2402,119.4z M2345.3,112.2h53.2V59h-53.2V112.2z"/>
					</g>
				</g>
			</g>
		</g>
		<g>
			<g>
				<g>
					<g>
						<path style="&st4;" d="M2371.9,119.1c-0.9,0-1.8-0.4-2.5-1.1l-29.9-29.9c-0.7-0.7-1.1-1.6-1.1-2.5s0.4-1.9,1.1-2.5l29.9-29.9
							c1.3-1.3,3.7-1.3,5.1,0l29.9,29.9c1.4,1.4,1.4,3.7,0,5.1l-29.9,29.9C2373.7,118.8,2372.8,119.1,2371.9,119.1z M2347,85.6
							l24.8,24.8l24.8-24.8l-24.8-24.8L2347,85.6z"/>
					</g>
				</g>
			</g>
		</g>
	</g>
	<g>
		<g>
			<g>
				<g>
					<g>
						<path style="&st4;" d="M2565.4,59c-2,0-3.6-1.6-3.6-3.6c0-30.1-20.6-44.3-26.6-47.8c-6,3.5-26.6,17.7-26.6,47.8
							c0,2-1.6,3.6-3.6,3.6s-3.6-1.6-3.6-3.6c0-39,30.9-54.4,32.2-55.1c1-0.5,2.1-0.5,3.1,0c1.3,0.6,32.2,16.1,32.2,55.1
							C2569,57.4,2567.4,59,2565.4,59z"/>
					</g>
				</g>
			</g>
		</g>
		<g>
			<g>
				<g>
					<g>
						<path style="&st4;" d="M2565.4,119.4c-2,0-3.6-1.6-3.6-3.6c0-2,1.6-3.6,3.6-3.6c29.8,0,44.3-20.7,47.8-26.6
							c-3.5-6-17.7-26.6-47.8-26.6c-2,0-3.6-1.6-3.6-3.6s1.6-3.6,3.6-3.6c39,0,54.4,30.9,55.1,32.2c0.5,1,0.5,2.1,0,3.1
							C2619.8,88.5,2604.4,119.4,2565.4,119.4z"/>
					</g>
				</g>
			</g>
		</g>
		<g>
			<g>
				<g>
					<g>
						<path style="&st4;" d="M2505.8,118.7c-39,0-54.4-30.9-55.1-32.2c-0.5-1-0.5-2.1,0-3.1c0.6-1.3,16.1-32.2,55.1-32.2
							c2,0,3.6,1.6,3.6,3.6s-1.6,3.6-3.6,3.6c-30.1,0-44.3,20.6-47.8,26.6c3.5,6,17.7,26.6,47.8,26.6c2,0,3.6,1.6,3.6,3.6
							C2509.3,117.1,2507.7,118.7,2505.8,118.7z"/>
					</g>
				</g>
			</g>
		</g>
		<g>
			<g>
				<g>
					<g>
						<path style="&st4;" d="M2535.9,170.5c-0.5,0-1.1-0.1-1.6-0.4c-1.3-0.6-32.2-16.1-32.2-55.1c0-2,1.6-3.6,3.6-3.6
							c2,0,3.6,1.6,3.6,3.6c0,30.1,20.6,44.3,26.6,47.8c6-3.5,26.6-17.7,26.6-47.8c0-2,1.6-3.6,3.6-3.6s3.6,1.6,3.6,3.6
							c0,39-30.9,54.4-32.2,55.1C2537,170.4,2536.5,170.5,2535.9,170.5z"/>
					</g>
				</g>
			</g>
		</g>
		<g>
			<g>
				<g>
					<g>
						<path style="&st4;" d="M2565.4,119.4h-60.3c-2,0-3.6-1.6-3.6-3.6V55.4c0-2,1.6-3.6,3.6-3.6h60.3c2,0,3.6,1.6,3.6,3.6v60.3
							C2569,117.8,2567.4,119.4,2565.4,119.4z M2508.6,112.2h53.2V59h-53.2V112.2z"/>
					</g>
				</g>
			</g>
		</g>
		<g>
			<g>
				<g>
					<g>
						<path style="&st4;" d="M2535.2,119.1c-0.9,0-1.8-0.4-2.5-1.1l-29.9-29.9c-0.7-0.7-1.1-1.6-1.1-2.5s0.4-1.9,1.1-2.5l29.9-29.9
							c0.7-0.7,1.6-1.1,2.5-1.1l0,0c1,0,1.9,0.4,2.5,1.1l29.9,29.9c1.4,1.4,1.4,3.7,0,5.1l-29.9,29.9
							C2537.1,118.8,2536.1,119.1,2535.2,119.1z M2510.4,85.6l24.8,24.8l24.8-24.8l-24.8-24.8L2510.4,85.6z"/>
					</g>
				</g>
			</g>
		</g>
	</g>
	<g>
		<g>
			<g>
				<g>
					<g>
						<path style="&st4;" d="M2728.8,59c-2,0-3.6-1.6-3.6-3.6c0-30.1-20.6-44.3-26.6-47.8c-6,3.5-26.6,17.7-26.6,47.8
							c0,2-1.6,3.6-3.6,3.6s-3.6-1.6-3.6-3.6c0-39,30.9-54.4,32.2-55.1c1-0.5,2.1-0.5,3.1,0c1.3,0.6,32.2,16.1,32.2,55.1
							C2732.3,57.4,2730.7,59,2728.8,59z"/>
					</g>
				</g>
			</g>
		</g>
		<g>
			<g>
				<g>
					<g>
						<path style="&st4;" d="M2728.8,119.4c-2,0-3.6-1.6-3.6-3.6c0-2,1.6-3.6,3.6-3.6c30.1,0,44.3-20.6,47.8-26.6
							c-3.5-6-17.7-26.6-47.8-26.6c-2,0-3.6-1.6-3.6-3.6s1.6-3.6,3.6-3.6c39,0,54.4,30.9,55.1,32.2c0.5,1,0.5,2.1,0,3.1
							C2783.2,88.5,2767.8,119.4,2728.8,119.4z"/>
					</g>
				</g>
			</g>
		</g>
		<g>
			<g>
				<g>
					<g>
						<path style="&st4;" d="M2669.1,118.7c-39,0-54.4-30.9-55.1-32.2c-0.5-1-0.5-2.1,0-3.1c0.6-1.3,16.1-32.2,55.1-32.2
							c2,0,3.6,1.6,3.6,3.6s-1.6,3.6-3.6,3.6c-30.1,0-44.3,20.6-47.8,26.6c3.5,6,17.7,26.6,47.8,26.6c2,0,3.6,1.6,3.6,3.6
							C2672.7,117.1,2671.1,118.7,2669.1,118.7z"/>
					</g>
				</g>
			</g>
		</g>
		<g>
			<g>
				<g>
					<g>
						<path style="&st4;" d="M2699.3,170.5c-0.5,0-1.1-0.1-1.6-0.4c-1.3-0.6-32.2-16.1-32.2-55.1c0-2,1.6-3.6,3.6-3.6
							c2,0,3.6,1.6,3.6,3.6c0,30.1,20.6,44.3,26.6,47.8c6-3.5,26.6-17.7,26.6-47.8c0-2,1.6-3.6,3.6-3.6c2,0,3.6,1.6,3.6,3.6
							c0,39-30.9,54.4-32.2,55.1C2700.3,170.4,2699.8,170.5,2699.3,170.5z"/>
					</g>
				</g>
			</g>
		</g>
		<g>
			<g>
				<g>
					<g>
						<path style="&st4;" d="M2728.8,119.4h-60.3c-2,0-3.6-1.6-3.6-3.6V55.4c0-2,1.6-3.6,3.6-3.6h60.3c2,0,3.6,1.6,3.6,3.6v60.3
							C2732.3,117.8,2730.7,119.4,2728.8,119.4z M2672,112.2h53.2V59H2672V112.2z"/>
					</g>
				</g>
			</g>
		</g>
		<g>
			<g>
				<g>
					<g>
						<path style="&st4;" d="M2698.6,119.1c-0.9,0-1.8-0.4-2.5-1.1l-29.9-29.9c-0.7-0.7-1.1-1.6-1.1-2.5s0.4-1.9,1.1-2.5l29.9-29.9
							c1.4-1.4,3.7-1.4,5.1,0l29.9,29.9c0.7,0.7,1.1,1.6,1.1,2.5s-0.4,1.9-1.1,2.5l-29.9,29.9
							C2700.4,118.8,2699.5,119.1,2698.6,119.1z M2673.7,85.6l24.8,24.8l24.8-24.8l-24.8-24.8L2673.7,85.6z"/>
					</g>
				</g>
			</g>
		</g>
	</g>
	<g>
		<g>
			<g>
				<g>
					<g>
						<path style="&st4;" d="M2892.1,59c-2,0-3.6-1.6-3.6-3.6c0-30.1-20.6-44.3-26.6-47.8c-6,3.5-26.6,17.7-26.6,47.8
							c0,2-1.6,3.6-3.6,3.6s-3.6-1.6-3.6-3.6c0-39,30.9-54.4,32.2-55.1c1-0.5,2.1-0.5,3.1,0c1.3,0.6,32.2,16.1,32.2,55.1
							C2895.7,57.4,2894.1,59,2892.1,59z"/>
					</g>
				</g>
			</g>
		</g>
		<g>
			<g>
				<g>
					<g>
						<path style="&st4;" d="M2892.1,119.4c-2,0-3.6-1.6-3.6-3.6c0-2,1.6-3.6,3.6-3.6c30.1,0,44.3-20.6,47.8-26.6
							c-3.5-6-17.7-26.6-47.8-26.6c-2,0-3.6-1.6-3.6-3.6s1.6-3.6,3.6-3.6c39,0,54.4,30.9,55.1,32.2c0.5,1,0.5,2.1,0,3.1
							C2946.5,88.5,2931.1,119.4,2892.1,119.4z"/>
					</g>
				</g>
			</g>
		</g>
		<g>
			<g>
				<g>
					<g>
						<path style="&st4;" d="M2832.5,118.7c-39,0-54.4-30.9-55.1-32.2c-0.5-1-0.5-2.1,0-3.1c0.6-1.3,16.1-32.2,55.1-32.2
							c2,0,3.6,1.6,3.6,3.6s-1.6,3.6-3.6,3.6c-29.8,0-44.3,20.7-47.8,26.6c3.5,6,17.7,26.6,47.8,26.6c2,0,3.6,1.6,3.6,3.6
							C2836,117.1,2834.4,118.7,2832.5,118.7z"/>
					</g>
				</g>
			</g>
		</g>
		<g>
			<g>
				<g>
					<g>
						<path style="&st4;" d="M2862.6,170.5c-0.5,0-1.1-0.1-1.6-0.4c-1.3-0.6-32.2-16.1-32.2-55.1c0-2,1.6-3.6,3.6-3.6
							s3.6,1.6,3.6,3.6c0,30.1,20.6,44.3,26.6,47.8c6-3.5,26.6-17.7,26.6-47.8c0-2,1.6-3.6,3.6-3.6c2,0,3.6,1.6,3.6,3.6
							c0,39-30.9,54.4-32.2,55.1C2863.7,170.4,2863.2,170.5,2862.6,170.5z"/>
					</g>
				</g>
			</g>
		</g>
		<g>
			<g>
				<g>
					<g>
						<path style="&st4;" d="M2892.1,119.4h-60.3c-2,0-3.6-1.6-3.6-3.6V55.4c0-2,1.6-3.6,3.6-3.6h60.3c2,0,3.6,1.6,3.6,3.6v60.3
							C2895.7,117.8,2894.1,119.4,2892.1,119.4z M2835.4,112.2h53.2V59h-53.2V112.2z"/>
					</g>
				</g>
			</g>
		</g>
		<g>
			<g>
				<g>
					<g>
						<path style="&st4;" d="M2861.9,119.1c-0.9,0-1.8-0.4-2.5-1.1l-29.9-29.9c-1.4-1.4-1.4-3.7,0-5.1l29.9-29.9
							c1.3-1.3,3.7-1.3,5.1,0l29.9,29.9c0.7,0.7,1.1,1.6,1.1,2.5s-0.4,1.9-1.1,2.5l-29.9,29.9
							C2863.8,118.8,2862.9,119.1,2861.9,119.1z M2837.1,85.6l24.8,24.8l24.8-24.8l-24.8-24.8L2837.1,85.6z"/>
					</g>
				</g>
			</g>
		</g>
	</g>
	<g>
		<g>
			<g>
				<g>
					<g>
						<path style="&st4;" d="M3055.5,59c-2,0-3.6-1.6-3.6-3.6c0-30.1-20.6-44.3-26.6-47.8c-6,3.5-26.6,17.7-26.6,47.8
							c0,2-1.6,3.6-3.6,3.6s-3.6-1.6-3.6-3.6c0-39,30.9-54.4,32.2-55.1c1-0.5,2.1-0.5,3.1,0c1.3,0.6,32.2,16.1,32.2,55.1
							C3059,57.4,3057.4,59,3055.5,59z"/>
					</g>
				</g>
			</g>
		</g>
		<g>
			<g>
				<g>
					<g>
						<path style="&st4;" d="M3055.5,119.4c-2,0-3.6-1.6-3.6-3.6c0-2,1.6-3.6,3.6-3.6c29.8,0,44.3-20.7,47.8-26.6
							c-3.5-6-17.7-26.6-47.8-26.6c-2,0-3.6-1.6-3.6-3.6s1.6-3.6,3.6-3.6c39,0,54.4,30.9,55.1,32.2c0.5,1,0.5,2.1,0,3.1
							C3109.9,88.5,3094.5,119.4,3055.5,119.4z"/>
					</g>
				</g>
			</g>
		</g>
		<g>
			<g>
				<g>
					<g>
						<path style="&st4;" d="M2995.8,118.7c-39,0-54.4-30.9-55.1-32.2c-0.5-1-0.5-2.1,0-3.1c0.6-1.3,16.1-32.2,55.1-32.2
							c2,0,3.6,1.6,3.6,3.6s-1.6,3.6-3.6,3.6c-30.1,0-44.3,20.6-47.8,26.6c3.5,6,17.7,26.6,47.8,26.6c2,0,3.6,1.6,3.6,3.6
							C2999.4,117.1,2997.8,118.7,2995.8,118.7z"/>
					</g>
				</g>
			</g>
		</g>
		<g>
			<g>
				<g>
					<g>
						<path style="&st4;" d="M3026,170.5c-0.5,0-1.1-0.1-1.6-0.4c-1.3-0.6-32.2-16.1-32.2-55.1c0-2,1.6-3.6,3.6-3.6
							c2,0,3.6,1.6,3.6,3.6c0,30.1,20.6,44.3,26.6,47.8c6-3.5,26.6-17.7,26.6-47.8c0-2,1.6-3.6,3.6-3.6c2,0,3.6,1.6,3.6,3.6
							c0,39-30.9,54.4-32.2,55.1C3027.1,170.4,3026.5,170.5,3026,170.5z"/>
					</g>
				</g>
			</g>
		</g>
		<g>
			<g>
				<g>
					<g>
						<path style="&st4;" d="M3055.5,119.4h-60.3c-2,0-3.6-1.6-3.6-3.6V55.4c0-2,1.6-3.6,3.6-3.6h60.3c2,0,3.6,1.6,3.6,3.6v60.3
							C3059,117.8,3057.4,119.4,3055.5,119.4z M2998.7,112.2h53.2V59h-53.2V112.2z"/>
					</g>
				</g>
			</g>
		</g>
		<g>
			<g>
				<g>
					<g>
						<path style="&st4;" d="M3025.3,119.1c-0.9,0-1.8-0.4-2.5-1.1l-29.9-29.9c-0.7-0.7-1.1-1.6-1.1-2.5s0.4-1.9,1.1-2.5l29.9-29.9
							c0.7-0.7,1.6-1.1,2.5-1.1l0,0c1,0,1.9,0.4,2.5,1.1l29.9,29.9c1.4,1.4,1.4,3.7,0,5.1l-29.9,29.9
							C3027.1,118.8,3026.2,119.1,3025.3,119.1z M3000.5,85.6l24.8,24.8l24.8-24.8l-24.8-24.8L3000.5,85.6z"/>
					</g>
				</g>
			</g>
		</g>
	</g>
	<g>
		<g>
			<g>
				<g>
					<g>
						<path style="&st4;" d="M3218.8,59c-2,0-3.6-1.6-3.6-3.6c0-30.1-20.6-44.3-26.6-47.8c-6,3.5-26.6,17.7-26.6,47.8
							c0,2-1.6,3.6-3.6,3.6s-3.6-1.6-3.6-3.6c0-39,30.9-54.4,32.2-55.1c1-0.5,2.1-0.5,3.1,0c1.3,0.6,32.2,16.1,32.2,55.1
							C3222.4,57.4,3220.8,59,3218.8,59z"/>
					</g>
				</g>
			</g>
		</g>
		<g>
			<g>
				<g>
					<g>
						<path style="&st4;" d="M3218.8,119.4c-2,0-3.6-1.6-3.6-3.6c0-2,1.6-3.6,3.6-3.6c30.1,0,44.3-20.6,47.8-26.6
							c-3.5-6-17.7-26.6-47.8-26.6c-2,0-3.6-1.6-3.6-3.6s1.6-3.6,3.6-3.6c39,0,54.4,30.9,55.1,32.2c0.5,1,0.5,2.1,0,3.1
							C3273.3,88.5,3257.8,119.4,3218.8,119.4z"/>
					</g>
				</g>
			</g>
		</g>
		<g>
			<g>
				<g>
					<g>
						<path style="&st4;" d="M3159.2,118.7c-39,0-54.4-30.9-55.1-32.2c-0.5-1-0.5-2.1,0-3.1c0.6-1.3,16.1-32.2,55.1-32.2
							c2,0,3.6,1.6,3.6,3.6s-1.6,3.6-3.6,3.6c-30.1,0-44.3,20.6-47.8,26.6c3.5,6,17.7,26.6,47.8,26.6c2,0,3.6,1.6,3.6,3.6
							C3162.8,117.1,3161.1,118.7,3159.2,118.7z"/>
					</g>
				</g>
			</g>
		</g>
		<g>
			<g>
				<g>
					<g>
						<path style="&st4;" d="M3189.3,170.5c-0.5,0-1.1-0.1-1.6-0.4c-1.3-0.6-32.2-16.1-32.2-55.1c0-2,1.6-3.6,3.6-3.6
							s3.6,1.6,3.6,3.6c0,30.1,20.6,44.3,26.6,47.8c6-3.5,26.6-17.7,26.6-47.8c0-2,1.6-3.6,3.6-3.6c2,0,3.6,1.6,3.6,3.6
							c0,39-30.9,54.4-32.2,55.1C3190.4,170.4,3189.9,170.5,3189.3,170.5z"/>
					</g>
				</g>
			</g>
		</g>
		<g>
			<g>
				<g>
					<g>
						<path style="&st4;" d="M3218.8,119.4h-60.3c-2,0-3.6-1.6-3.6-3.6V55.4c0-2,1.6-3.6,3.6-3.6h60.3c2,0,3.6,1.6,3.6,3.6v60.3
							C3222.4,117.8,3220.8,119.4,3218.8,119.4z M3162.1,112.2h53.2V59h-53.2V112.2z"/>
					</g>
				</g>
			</g>
		</g>
		<g>
			<g>
				<g>
					<g>
						<path style="&st4;" d="M3188.6,119.1c-0.9,0-1.8-0.4-2.5-1.1l-29.9-29.9c-0.7-0.7-1.1-1.6-1.1-2.5s0.4-1.9,1.1-2.5l29.9-29.9
							c1.4-1.4,3.7-1.4,5.1,0l29.9,29.9c0.7,0.7,1.1,1.6,1.1,2.5s-0.4,1.9-1.1,2.5l-29.9,29.9
							C3190.5,118.8,3189.6,119.1,3188.6,119.1z M3163.8,85.6l24.8,24.8l24.8-24.8l-24.8-24.8L3163.8,85.6z"/>
					</g>
				</g>
			</g>
		</g>
	</g>
	<g>
		<g>
			<g>
				<g>
					<g>
						<path style="&st4;" d="M3382.2,59c-2,0-3.6-1.6-3.6-3.6c0-30.1-20.6-44.3-26.6-47.8c-6,3.5-26.6,17.7-26.6,47.8
							c0,2-1.6,3.6-3.6,3.6c-2,0-3.6-1.6-3.6-3.6c0-39,30.9-54.4,32.2-55.1c1-0.5,2.1-0.5,3.1,0c1.3,0.6,32.2,16.1,32.2,55.1
							C3385.8,57.4,3384.2,59,3382.2,59z"/>
					</g>
				</g>
			</g>
		</g>
		<g>
			<g>
				<g>
					<g>
						<path style="&st4;" d="M3382.2,119.4c-2,0-3.6-1.6-3.6-3.6c0-2,1.6-3.6,3.6-3.6c30.1,0,44.3-20.6,47.8-26.6
							c-3.5-6-17.7-26.6-47.8-26.6c-2,0-3.6-1.6-3.6-3.6s1.6-3.6,3.6-3.6c39,0,54.4,30.9,55.1,32.2c0.5,1,0.5,2.1,0,3.1
							C3436.6,88.5,3421.2,119.4,3382.2,119.4z"/>
					</g>
				</g>
			</g>
		</g>
		<g>
			<g>
				<g>
					<g>
						<path style="&st4;" d="M3322.5,118.7c-39,0-54.4-30.9-55.1-32.2c-0.5-1-0.5-2.1,0-3.1c0.6-1.3,16.1-32.2,55.1-32.2
							c2,0,3.6,1.6,3.6,3.6s-1.6,3.6-3.6,3.6c-29.8,0-44.3,20.7-47.8,26.6c3.5,6,17.7,26.6,47.8,26.6c2,0,3.6,1.6,3.6,3.6
							C3326.1,117.1,3324.5,118.7,3322.5,118.7z"/>
					</g>
				</g>
			</g>
		</g>
		<g>
			<g>
				<g>
					<g>
						<path style="&st4;" d="M3352.7,170.5c-0.5,0-1.1-0.1-1.6-0.4c-1.3-0.6-32.2-16.1-32.2-55.1c0-2,1.6-3.6,3.6-3.6
							s3.6,1.6,3.6,3.6c0,30.1,20.6,44.3,26.6,47.8c6-3.5,26.6-17.7,26.6-47.8c0-2,1.6-3.6,3.6-3.6c2,0,3.6,1.6,3.6,3.6
							c0,39-30.9,54.4-32.2,55.1C3353.8,170.4,3353.2,170.5,3352.7,170.5z"/>
					</g>
				</g>
			</g>
		</g>
		<g>
			<g>
				<g>
					<g>
						<path style="&st4;" d="M3382.2,119.4h-60.3c-2,0-3.6-1.6-3.6-3.6V55.4c0-2,1.6-3.6,3.6-3.6h60.3c2,0,3.6,1.6,3.6,3.6v60.3
							C3385.8,117.8,3384.2,119.4,3382.2,119.4z M3325.4,112.2h53.2V59h-53.2V112.2z"/>
					</g>
				</g>
			</g>
		</g>
		<g>
			<g>
				<g>
					<g>
						<path style="&st4;" d="M3352,119.1c-0.9,0-1.8-0.4-2.5-1.1l-29.9-29.9c-1.4-1.4-1.4-3.7,0-5.1l29.9-29.9
							c1.3-1.3,3.7-1.3,5.1,0l29.9,29.9c0.7,0.7,1.1,1.6,1.1,2.5s-0.4,1.9-1.1,2.5l-29.9,29.9C3353.8,118.8,3352.9,119.1,3352,119.1
							z M3327.2,85.6l24.8,24.8l24.8-24.8L3352,60.8L3327.2,85.6z"/>
					</g>
				</g>
			</g>
		</g>
	</g>
	<g>
		<g>
			<g>
				<g>
					<g>
						<path style="&st4;" d="M3545.5,59c-2,0-3.6-1.6-3.6-3.6c0-30.1-20.6-44.3-26.6-47.8c-6,3.5-26.6,17.7-26.6,47.8
							c0,2-1.6,3.6-3.6,3.6s-3.6-1.6-3.6-3.6c0-39,30.9-54.4,32.2-55.1c1-0.5,2.1-0.5,3.1,0c1.3,0.6,32.2,16.1,32.2,55.1
							C3549.1,57.4,3547.5,59,3545.5,59z"/>
					</g>
				</g>
			</g>
		</g>
		<g>
			<g>
				<g>
					<g>
						<path style="&st4;" d="M3545.5,119.4c-2,0-3.6-1.6-3.6-3.6c0-2,1.6-3.6,3.6-3.6c29.8,0,44.3-20.7,47.8-26.6
							c-3.5-6-17.7-26.6-47.8-26.6c-2,0-3.6-1.6-3.6-3.6s1.6-3.6,3.6-3.6c39,0,54.4,30.9,55.1,32.2c0.5,1,0.5,2.1,0,3.1
							C3600,88.5,3584.5,119.4,3545.5,119.4z"/>
					</g>
				</g>
			</g>
		</g>
		<g>
			<g>
				<g>
					<g>
						<path style="&st4;" d="M3485.9,118.7c-39,0-54.4-30.9-55.1-32.2c-0.5-1-0.5-2.1,0-3.1c0.6-1.3,16.1-32.2,55.1-32.2
							c2,0,3.6,1.6,3.6,3.6s-1.6,3.6-3.6,3.6c-30.1,0-44.3,20.6-47.8,26.6c3.5,6,17.7,26.6,47.8,26.6c2,0,3.6,1.6,3.6,3.6
							C3489.5,117.1,3487.9,118.7,3485.9,118.7z"/>
					</g>
				</g>
			</g>
		</g>
		<g>
			<g>
				<g>
					<g>
						<path style="&st4;" d="M3516,170.5c-0.5,0-1.1-0.1-1.6-0.4c-1.3-0.6-32.2-16.1-32.2-55.1c0-2,1.6-3.6,3.6-3.6s3.6,1.6,3.6,3.6
							c0,30.1,20.6,44.3,26.6,47.8c6-3.5,26.6-17.7,26.6-47.8c0-2,1.6-3.6,3.6-3.6c2,0,3.6,1.6,3.6,3.6c0,39-30.9,54.4-32.2,55.1
							C3517.1,170.4,3516.6,170.5,3516,170.5z"/>
					</g>
				</g>
			</g>
		</g>
		<g>
			<g>
				<g>
					<g>
						<path style="&st4;" d="M3545.5,119.4h-60.3c-2,0-3.6-1.6-3.6-3.6V55.4c0-2,1.6-3.6,3.6-3.6h60.3c2,0,3.6,1.6,3.6,3.6v60.3
							C3549.1,117.8,3547.5,119.4,3545.5,119.4z M3488.8,112.2h53.2V59h-53.2V112.2z"/>
					</g>
				</g>
			</g>
		</g>
		<g>
			<g>
				<g>
					<g>
						<path style="&st4;" d="M3515.4,119.1c-0.9,0-1.8-0.4-2.5-1.1l-29.9-29.9c-0.7-0.7-1.1-1.6-1.1-2.5s0.4-1.9,1.1-2.5l29.9-29.9
							c0.7-0.7,1.6-1.1,2.5-1.1l0,0c1,0,1.9,0.4,2.5,1.1l29.9,29.9c1.4,1.4,1.4,3.7,0,5.1l-29.9,29.9
							C3517.2,118.8,3516.3,119.1,3515.4,119.1z M3490.5,85.6l24.8,24.8l24.8-24.8l-24.8-24.8L3490.5,85.6z"/>
					</g>
				</g>
			</g>
		</g>
	</g>
	<g>
		<g>
			<g>
				<g>
					<g>
						<path style="&st4;" d="M3708.9,59c-2,0-3.6-1.6-3.6-3.6c0-30.1-20.6-44.3-26.6-47.8c-6,3.5-26.6,17.7-26.6,47.8
							c0,2-1.6,3.6-3.6,3.6c-2,0-3.6-1.6-3.6-3.6c0-39,30.9-54.4,32.2-55.1c1-0.5,2.1-0.5,3.1,0c1.3,0.6,32.2,16.1,32.2,55.1
							C3712.5,57.4,3710.9,59,3708.9,59z"/>
					</g>
				</g>
			</g>
		</g>
		<g>
			<g>
				<g>
					<g>
						<path style="&st4;" d="M3708.9,119.4c-2,0-3.6-1.6-3.6-3.6c0-2,1.6-3.6,3.6-3.6c30.1,0,44.3-20.6,47.8-26.6
							c-3.5-6-17.7-26.6-47.8-26.6c-2,0-3.6-1.6-3.6-3.6s1.6-3.6,3.6-3.6c39,0,54.4,30.9,55.1,32.2c0.5,1,0.5,2.1,0,3.1
							C3763.3,88.5,3747.9,119.4,3708.9,119.4z"/>
					</g>
				</g>
			</g>
		</g>
		<g>
			<g>
				<g>
					<g>
						<path style="&st4;" d="M3649.2,118.7c-39,0-54.4-30.9-55.1-32.2c-0.5-1-0.5-2.1,0-3.1c0.6-1.3,16.1-32.2,55.1-32.2
							c2,0,3.6,1.6,3.6,3.6s-1.6,3.6-3.6,3.6c-30.1,0-44.3,20.6-47.8,26.6c3.5,6,17.7,26.6,47.8,26.6c2,0,3.6,1.6,3.6,3.6
							C3652.8,117.1,3651.2,118.7,3649.2,118.7z"/>
					</g>
				</g>
			</g>
		</g>
		<g>
			<g>
				<g>
					<g>
						<path style="&st4;" d="M3679.4,170.5c-0.5,0-1.1-0.1-1.6-0.4c-1.3-0.6-32.2-16.1-32.2-55.1c0-2,1.6-3.6,3.6-3.6
							s3.6,1.6,3.6,3.6c0,30.1,20.6,44.3,26.6,47.8c6-3.5,26.6-17.7,26.6-47.8c0-2,1.6-3.6,3.6-3.6c2,0,3.6,1.6,3.6,3.6
							c0,39-30.9,54.4-32.2,55.1C3680.5,170.4,3679.9,170.5,3679.4,170.5z"/>
					</g>
				</g>
			</g>
		</g>
		<g>
			<g>
				<g>
					<g>
						<path style="&st4;" d="M3708.9,119.4h-60.3c-2,0-3.6-1.6-3.6-3.6V55.4c0-2,1.6-3.6,3.6-3.6h60.3c2,0,3.6,1.6,3.6,3.6v60.3
							C3712.5,117.8,3710.9,119.4,3708.9,119.4z M3652.1,112.2h53.2V59h-53.2V112.2z"/>
					</g>
				</g>
			</g>
		</g>
		<g>
			<g>
				<g>
					<g>
						<path style="&st4;" d="M3678.7,119.1c-0.9,0-1.8-0.4-2.5-1.1l-29.9-29.9c-0.7-0.7-1.1-1.6-1.1-2.5s0.4-1.9,1.1-2.5l29.9-29.9
							c1.4-1.4,3.7-1.4,5.1,0l29.9,29.9c0.7,0.7,1.1,1.6,1.1,2.5s-0.4,1.9-1.1,2.5l-29.9,29.9
							C3680.5,118.8,3679.6,119.1,3678.7,119.1z M3653.9,85.6l24.8,24.8l24.8-24.8l-24.8-24.8L3653.9,85.6z"/>
					</g>
				</g>
			</g>
		</g>
	</g>
	<g>
		<g>
			<g>
				<g>
					<g>
						<path style="&st4;" d="M3872.2,59c-2,0-3.6-1.6-3.6-3.6c0-30.1-20.6-44.3-26.6-47.8c-6,3.5-26.6,17.7-26.6,47.8
							c0,2-1.6,3.6-3.6,3.6c-2,0-3.6-1.6-3.6-3.6c0-39,30.9-54.4,32.2-55.1c1-0.5,2.1-0.5,3.1,0c1.3,0.6,32.2,16.1,32.2,55.1
							C3875.8,57.4,3874.2,59,3872.2,59z"/>
					</g>
				</g>
			</g>
		</g>
		<g>
			<g>
				<g>
					<g>
						<path style="&st4;" d="M3872.2,119.4c-2,0-3.6-1.6-3.6-3.6c0-2,1.6-3.6,3.6-3.6c30.1,0,44.3-20.6,47.8-26.6
							c-3.5-6-17.7-26.6-47.8-26.6c-2,0-3.6-1.6-3.6-3.6s1.6-3.6,3.6-3.6c39,0,54.4,30.9,55.1,32.2c0.5,1,0.5,2.1,0,3.1
							C3926.7,88.5,3911.3,119.4,3872.2,119.4z"/>
					</g>
				</g>
			</g>
		</g>
		<g>
			<g>
				<g>
					<g>
						<path style="&st4;" d="M3812.6,118.7c-39,0-54.4-30.9-55.1-32.2c-0.5-1-0.5-2.1,0-3.1c0.6-1.3,16.1-32.2,55.1-32.2
							c2,0,3.6,1.6,3.6,3.6s-1.6,3.6-3.6,3.6c-29.8,0-44.3,20.7-47.8,26.6c3.5,6,17.7,26.6,47.8,26.6c2,0,3.6,1.6,3.6,3.6
							C3816.2,117.1,3814.6,118.7,3812.6,118.7z"/>
					</g>
				</g>
			</g>
		</g>
		<g>
			<g>
				<g>
					<g>
						<path style="&st4;" d="M3842.8,170.5c-0.5,0-1.1-0.1-1.6-0.4c-1.3-0.6-32.2-16.1-32.2-55.1c0-2,1.6-3.6,3.6-3.6
							c2,0,3.6,1.6,3.6,3.6c0,30.1,20.6,44.3,26.6,47.8c6-3.5,26.6-17.7,26.6-47.8c0-2,1.6-3.6,3.6-3.6s3.6,1.6,3.6,3.6
							c0,39-30.9,54.4-32.2,55.1C3843.8,170.4,3843.3,170.5,3842.8,170.5z"/>
					</g>
				</g>
			</g>
		</g>
		<g>
			<g>
				<g>
					<g>
						<path style="&st4;" d="M3872.2,119.4h-60.3c-2,0-3.6-1.6-3.6-3.6V55.4c0-2,1.6-3.6,3.6-3.6h60.3c2,0,3.6,1.6,3.6,3.6v60.3
							C3875.8,117.8,3874.2,119.4,3872.2,119.4z M3815.5,112.2h53.2V59h-53.2V112.2z"/>
					</g>
				</g>
			</g>
		</g>
		<g>
			<g>
				<g>
					<g>
						<path style="&st4;" d="M3842.1,119.1c-0.9,0-1.8-0.4-2.5-1.1l-29.9-29.9c-1.4-1.4-1.4-3.7,0-5.1l29.9-29.9
							c1.3-1.3,3.7-1.3,5.1,0l29.9,29.9c0.7,0.7,1.1,1.6,1.1,2.5s-0.4,1.9-1.1,2.5l-29.9,29.9C3843.9,118.8,3843,119.1,3842.1,119.1
							z M3817.2,85.6l24.8,24.8l24.8-24.8l-24.8-24.8L3817.2,85.6z"/>
					</g>
				</g>
			</g>
		</g>
	</g>
	<g>
		<g>
			<g>
				<g>
					<g>
						<path style="&st4;" d="M4035.6,59c-2,0-3.6-1.6-3.6-3.6c0-30.1-20.6-44.3-26.6-47.8c-6,3.5-26.6,17.7-26.6,47.8
							c0,2-1.6,3.6-3.6,3.6c-2,0-3.6-1.6-3.6-3.6c0-39,30.9-54.4,32.2-55.1c1-0.5,2.1-0.5,3.1,0c1.3,0.6,32.2,16.1,32.2,55.1
							C4039.2,57.4,4037.6,59,4035.6,59z"/>
					</g>
				</g>
			</g>
		</g>
		<g>
			<g>
				<g>
					<g>
						<path style="&st4;" d="M4035.6,119.4c-2,0-3.6-1.6-3.6-3.6c0-2,1.6-3.6,3.6-3.6c29.8,0,44.3-20.7,47.8-26.6
							c-3.5-6-17.7-26.6-47.8-26.6c-2,0-3.6-1.6-3.6-3.6s1.6-3.6,3.6-3.6c39,0,54.4,30.9,55.1,32.2c0.5,1,0.5,2.1,0,3.1
							C4090,88.5,4074.6,119.4,4035.6,119.4z"/>
					</g>
				</g>
			</g>
		</g>
		<g>
			<g>
				<g>
					<g>
						<path style="&st4;" d="M3975.9,118.7c-39,0-54.4-30.9-55.1-32.2c-0.5-1-0.5-2.1,0-3.1c0.6-1.3,16.1-32.2,55.1-32.2
							c2,0,3.6,1.6,3.6,3.6s-1.6,3.6-3.6,3.6c-30.1,0-44.3,20.6-47.8,26.6c3.5,6,17.7,26.6,47.8,26.6c2,0,3.6,1.6,3.6,3.6
							C3979.5,117.1,3977.9,118.7,3975.9,118.7z"/>
					</g>
				</g>
			</g>
		</g>
		<g>
			<g>
				<g>
					<g>
						<path style="&st4;" d="M4006.1,170.5c-0.5,0-1.1-0.1-1.6-0.4c-1.3-0.6-32.2-16.1-32.2-55.1c0-2,1.6-3.6,3.6-3.6
							s3.6,1.6,3.6,3.6c0,30.1,20.6,44.3,26.6,47.8c6-3.5,26.6-17.7,26.6-47.8c0-2,1.6-3.6,3.6-3.6c2,0,3.6,1.6,3.6,3.6
							c0,39-30.9,54.4-32.2,55.1C4007.2,170.4,4006.6,170.5,4006.1,170.5z"/>
					</g>
				</g>
			</g>
		</g>
		<g>
			<g>
				<g>
					<g>
						<path style="&st4;" d="M4035.6,119.4h-60.3c-2,0-3.6-1.6-3.6-3.6V55.4c0-2,1.6-3.6,3.6-3.6h60.3c2,0,3.6,1.6,3.6,3.6v60.3
							C4039.2,117.8,4037.6,119.4,4035.6,119.4z M3978.8,112.2h53.2V59h-53.2V112.2z"/>
					</g>
				</g>
			</g>
		</g>
		<g>
			<g>
				<g>
					<g>
						<path style="&st4;" d="M4005.4,119.1c-0.9,0-1.8-0.4-2.5-1.1L3973,88.1c-0.7-0.7-1.1-1.6-1.1-2.5s0.4-1.9,1.1-2.5l29.9-29.9
							c0.7-0.7,1.6-1.1,2.5-1.1l0,0c1,0,1.9,0.4,2.5,1.1l29.9,29.9c1.4,1.4,1.4,3.7,0,5.1l-29.9,29.9
							C4007.3,118.8,4006.3,119.1,4005.4,119.1z M3980.6,85.6l24.8,24.8l24.8-24.8l-24.8-24.8L3980.6,85.6z"/>
					</g>
				</g>
			</g>
		</g>
	</g>
	<g>
		<g>
			<g>
				<g>
					<g>
						<path style="&st4;" d="M4198.9,59c-2,0-3.6-1.6-3.6-3.6c0-30.1-20.6-44.3-26.6-47.8c-6,3.5-26.6,17.7-26.6,47.8
							c0,2-1.6,3.6-3.6,3.6c-2,0-3.6-1.6-3.6-3.6c0-39,30.9-54.4,32.2-55.1c1-0.5,2.1-0.5,3.1,0c1.3,0.6,32.2,16.1,32.2,55.1
							C4202.5,57.4,4200.9,59,4198.9,59z"/>
					</g>
				</g>
			</g>
		</g>
		<g>
			<g>
				<g>
					<g>
						<path style="&st4;" d="M4198.9,119.4c-2,0-3.6-1.6-3.6-3.6c0-2,1.6-3.6,3.6-3.6c30.1,0,44.3-20.6,47.8-26.6
							c-3.5-6-17.7-26.6-47.8-26.6c-2,0-3.6-1.6-3.6-3.6s1.6-3.6,3.6-3.6c39,0,54.4,30.9,55.1,32.2c0.5,1,0.5,2.1,0,3.1
							C4253.4,88.5,4238,119.4,4198.9,119.4z"/>
					</g>
				</g>
			</g>
		</g>
		<g>
			<g>
				<g>
					<g>
						<path style="&st4;" d="M4139.3,118.7c-39,0-54.4-30.9-55.1-32.2c-0.5-1-0.5-2.1,0-3.1c0.6-1.3,16.1-32.2,55.1-32.2
							c2,0,3.6,1.6,3.6,3.6s-1.6,3.6-3.6,3.6c-30.1,0-44.3,20.6-47.8,26.6c3.5,6,17.7,26.6,47.8,26.6c2,0,3.6,1.6,3.6,3.6
							C4142.9,117.1,4141.3,118.7,4139.3,118.7z"/>
					</g>
				</g>
			</g>
		</g>
		<g>
			<g>
				<g>
					<g>
						<path style="&st4;" d="M4169.5,170.5c-0.5,0-1.1-0.1-1.6-0.4c-1.3-0.6-32.2-16.1-32.2-55.1c0-2,1.6-3.6,3.6-3.6
							c2,0,3.6,1.6,3.6,3.6c0,30.1,20.6,44.3,26.6,47.8c6-3.5,26.6-17.7,26.6-47.8c0-2,1.6-3.6,3.6-3.6s3.6,1.6,3.6,3.6
							c0,39-30.9,54.4-32.2,55.1C4170.5,170.4,4170,170.5,4169.5,170.5z"/>
					</g>
				</g>
			</g>
		</g>
		<g>
			<g>
				<g>
					<g>
						<path style="&st4;" d="M4198.9,119.4h-60.3c-2,0-3.6-1.6-3.6-3.6V55.4c0-2,1.6-3.6,3.6-3.6h60.3c2,0,3.6,1.6,3.6,3.6v60.3
							C4202.5,117.8,4200.9,119.4,4198.9,119.4z M4142.2,112.2h53.2V59h-53.2V112.2z"/>
					</g>
				</g>
			</g>
		</g>
		<g>
			<g>
				<g>
					<g>
						<path style="&st4;" d="M4168.8,119.1c-0.9,0-1.8-0.4-2.5-1.1l-29.9-29.9c-0.7-0.7-1.1-1.6-1.1-2.5s0.4-1.9,1.1-2.5l29.9-29.9
							c1.4-1.4,3.7-1.4,5.1,0l29.9,29.9c0.7,0.7,1.1,1.6,1.1,2.5s-0.4,1.9-1.1,2.5l-29.9,29.9
							C4170.6,118.8,4169.7,119.1,4168.8,119.1z M4143.9,85.6l24.8,24.8l24.8-24.8l-24.8-24.8L4143.9,85.6z"/>
					</g>
				</g>
			</g>
		</g>
	</g>
	<g>
		<g>
			<g>
				<g>
					<g>
						<path style="&st4;" d="M4362.3,59c-2,0-3.6-1.6-3.6-3.6c0-30.1-20.6-44.3-26.6-47.8c-6,3.5-26.6,17.7-26.6,47.8
							c0,2-1.6,3.6-3.6,3.6c-2,0-3.6-1.6-3.6-3.6c0-39,30.9-54.4,32.2-55.1c1-0.5,2.1-0.5,3.1,0c1.3,0.6,32.2,16.1,32.2,55.1
							C4365.9,57.4,4364.3,59,4362.3,59z"/>
					</g>
				</g>
			</g>
		</g>
		<g>
			<g>
				<g>
					<g>
						<path style="&st4;" d="M4362.3,119.4c-2,0-3.6-1.6-3.6-3.6c0-2,1.6-3.6,3.6-3.6c30.1,0,44.3-20.6,47.8-26.6
							c-3.5-6-17.7-26.6-47.8-26.6c-2,0-3.6-1.6-3.6-3.6s1.6-3.6,3.6-3.6c39,0,54.4,30.9,55.1,32.2c0.5,1,0.5,2.1,0,3.1
							C4416.7,88.5,4401.3,119.4,4362.3,119.4z"/>
					</g>
				</g>
			</g>
		</g>
		<g>
			<g>
				<g>
					<g>
						<path style="&st4;" d="M4302.6,118.7c-39,0-54.4-30.9-55.1-32.2c-0.5-1-0.5-2.1,0-3.1c0.6-1.3,16.1-32.2,55.1-32.2
							c2,0,3.6,1.6,3.6,3.6s-1.6,3.6-3.6,3.6c-30.1,0-44.3,20.6-47.8,26.6c3.5,6,17.7,26.6,47.8,26.6c2,0,3.6,1.6,3.6,3.6
							C4306.2,117.1,4304.6,118.7,4302.6,118.7z"/>
					</g>
				</g>
			</g>
		</g>
		<g>
			<g>
				<g>
					<g>
						<path style="&st4;" d="M4332.8,170.5c-0.5,0-1.1-0.1-1.6-0.4c-1.3-0.6-32.2-16.1-32.2-55.1c0-2,1.6-3.6,3.6-3.6
							s3.6,1.6,3.6,3.6c0,30.1,20.6,44.3,26.6,47.8c6-3.5,26.6-17.7,26.6-47.8c0-2,1.6-3.6,3.6-3.6s3.6,1.6,3.6,3.6
							c0,39-30.9,54.4-32.2,55.1C4333.9,170.4,4333.4,170.5,4332.8,170.5z"/>
					</g>
				</g>
			</g>
		</g>
		<g>
			<g>
				<g>
					<g>
						<path style="&st4;" d="M4362.3,119.4H4302c-2,0-3.6-1.6-3.6-3.6V55.4c0-2,1.6-3.6,3.6-3.6h60.3c2,0,3.6,1.6,3.6,3.6v60.3
							C4365.9,117.8,4364.3,119.4,4362.3,119.4z M4305.5,112.2h53.2V59h-53.2V112.2z"/>
					</g>
				</g>
			</g>
		</g>
		<g>
			<g>
				<g>
					<g>
						<path style="&st4;" d="M4332.1,119.1c-0.9,0-1.8-0.4-2.5-1.1l-29.9-29.9c-1.4-1.4-1.4-3.7,0-5.1l29.9-29.9
							c1.3-1.3,3.7-1.3,5.1,0l29.9,29.9c0.7,0.7,1.1,1.6,1.1,2.5s-0.4,1.9-1.1,2.5l-29.9,29.9C4334,118.8,4333,119.1,4332.1,119.1z
							 M4307.3,85.6l24.8,24.8l24.8-24.8l-24.8-24.8L4307.3,85.6z"/>
					</g>
				</g>
			</g>
		</g>
	</g>
	<g>
		<g>
			<g>
				<g>
					<g>
						<path style="&st4;" d="M4525.7,59c-2,0-3.6-1.6-3.6-3.6c0-30.1-20.6-44.3-26.6-47.8c-6,3.5-26.6,17.7-26.6,47.8
							c0,2-1.6,3.6-3.6,3.6c-2,0-3.6-1.6-3.6-3.6c0-39,30.9-54.4,32.2-55.1c1-0.5,2.1-0.5,3.1,0c1.3,0.6,32.2,16.1,32.2,55.1
							C4529.2,57.4,4527.6,59,4525.7,59z"/>
					</g>
				</g>
			</g>
		</g>
		<g>
			<g>
				<g>
					<g>
						<path style="&st4;" d="M4525.7,119.4c-2,0-3.6-1.6-3.6-3.6c0-2,1.6-3.6,3.6-3.6c29.8,0,44.3-20.7,47.8-26.6
							c-3.5-6-17.7-26.6-47.8-26.6c-2,0-3.6-1.6-3.6-3.6s1.6-3.6,3.6-3.6c39,0,54.4,30.9,55.1,32.2c0.5,1,0.5,2.1,0,3.1
							C4580.1,88.5,4564.7,119.4,4525.7,119.4z"/>
					</g>
				</g>
			</g>
		</g>
		<g>
			<g>
				<g>
					<g>
						<path style="&st4;" d="M4466,118.7c-39,0-54.4-30.9-55.1-32.2c-0.5-1-0.5-2.1,0-3.1c0.6-1.3,16.1-32.2,55.1-32.2
							c2,0,3.6,1.6,3.6,3.6s-1.6,3.6-3.6,3.6c-30.1,0-44.3,20.6-47.8,26.6c3.5,6,17.7,26.6,47.8,26.6c2,0,3.6,1.6,3.6,3.6
							C4469.6,117.1,4468,118.7,4466,118.7z"/>
					</g>
				</g>
			</g>
		</g>
		<g>
			<g>
				<g>
					<g>
						<path style="&st4;" d="M4496.2,170.5c-0.5,0-1.1-0.1-1.6-0.4c-1.3-0.6-32.2-16.1-32.2-55.1c0-2,1.6-3.6,3.6-3.6
							c2,0,3.6,1.6,3.6,3.6c0,30.1,20.6,44.3,26.6,47.8c6-3.5,26.6-17.7,26.6-47.8c0-2,1.6-3.6,3.6-3.6s3.6,1.6,3.6,3.6
							c0,39-30.9,54.4-32.2,55.1C4497.2,170.4,4496.7,170.5,4496.2,170.5z"/>
					</g>
				</g>
			</g>
		</g>
		<g>
			<g>
				<g>
					<g>
						<path style="&st4;" d="M4525.7,119.4h-60.3c-2,0-3.6-1.6-3.6-3.6V55.4c0-2,1.6-3.6,3.6-3.6h60.3c2,0,3.6,1.6,3.6,3.6v60.3
							C4529.2,117.8,4527.6,119.4,4525.7,119.4z M4468.9,112.2h53.2V59h-53.2V112.2z"/>
					</g>
				</g>
			</g>
		</g>
		<g>
			<g>
				<g>
					<g>
						<path style="&st4;" d="M4495.5,119.1c-0.9,0-1.8-0.4-2.5-1.1L4463,88.1c-0.7-0.7-1.1-1.6-1.1-2.5s0.4-1.9,1.1-2.5l29.9-29.9
							c0.7-0.7,1.6-1.1,2.5-1.1l0,0c1,0,1.9,0.4,2.5,1.1l29.9,29.9c1.4,1.4,1.4,3.7,0,5.1l-29.9,29.9
							C4497.3,118.8,4496.4,119.1,4495.5,119.1z M4470.6,85.6l24.8,24.8l24.8-24.8l-24.8-24.8L4470.6,85.6z"/>
					</g>
				</g>
			</g>
		</g>
	</g>
	<g>
		<g>
			<g>
				<g>
					<g>
						<path style="&st4;" d="M4689,59c-2,0-3.6-1.6-3.6-3.6c0-30.1-20.6-44.3-26.6-47.8c-6,3.5-26.6,17.7-26.6,47.8
							c0,2-1.6,3.6-3.6,3.6c-2,0-3.6-1.6-3.6-3.6c0-39,30.9-54.4,32.2-55.1c1-0.5,2.1-0.5,3.1,0c1.3,0.6,32.2,16.1,32.2,55.1
							C4692.6,57.4,4691,59,4689,59z"/>
					</g>
				</g>
			</g>
		</g>
		<g>
			<g>
				<g>
					<g>
						<path style="&st4;" d="M4689,119.4c-2,0-3.6-1.6-3.6-3.6c0-2,1.6-3.6,3.6-3.6c30.1,0,44.3-20.6,47.8-26.6
							c-3.5-6-17.7-26.6-47.8-26.6c-2,0-3.6-1.6-3.6-3.6s1.6-3.6,3.6-3.6c39,0,54.4,30.9,55.1,32.2c0.5,1,0.5,2.1,0,3.1
							C4743.4,88.5,4728,119.4,4689,119.4z"/>
					</g>
				</g>
			</g>
		</g>
		<g>
			<g>
				<g>
					<g>
						<path style="&st4;" d="M4629.4,118.7c-39,0-54.4-30.9-55.1-32.2c-0.5-1-0.5-2.1,0-3.1c0.6-1.3,16.1-32.2,55.1-32.2
							c2,0,3.6,1.6,3.6,3.6s-1.6,3.6-3.6,3.6c-30.1,0-44.3,20.6-47.8,26.6c3.5,6,17.7,26.6,47.8,26.6c2,0,3.6,1.6,3.6,3.6
							C4632.9,117.1,4631.3,118.7,4629.4,118.7z"/>
					</g>
				</g>
			</g>
		</g>
		<g>
			<g>
				<g>
					<g>
						<path style="&st4;" d="M4659.5,170.5c-0.5,0-1.1-0.1-1.6-0.4c-1.3-0.6-32.2-16.1-32.2-55.1c0-2,1.6-3.6,3.6-3.6
							c2,0,3.6,1.6,3.6,3.6c0,30.1,20.6,44.3,26.6,47.8c6-3.5,26.6-17.7,26.6-47.8c0-2,1.6-3.6,3.6-3.6s3.6,1.6,3.6,3.6
							c0,39-30.9,54.4-32.2,55.1C4660.6,170.4,4660.1,170.5,4659.5,170.5z"/>
					</g>
				</g>
			</g>
		</g>
		<g>
			<g>
				<g>
					<g>
						<path style="&st4;" d="M4689,119.4h-60.3c-2,0-3.6-1.6-3.6-3.6V55.4c0-2,1.6-3.6,3.6-3.6h60.3c2,0,3.6,1.6,3.6,3.6v60.3
							C4692.6,117.8,4691,119.4,4689,119.4z M4632.2,112.2h53.2V59h-53.2V112.2z"/>
					</g>
				</g>
			</g>
		</g>
		<g>
			<g>
				<g>
					<g>
						<path style="&st4;" d="M4658.8,119.1c-0.9,0-1.8-0.4-2.5-1.1l-29.9-29.9c-0.7-0.7-1.1-1.6-1.1-2.5s0.4-1.9,1.1-2.5l29.9-29.9
							c1.4-1.4,3.7-1.4,5.1,0l29.9,29.9c0.7,0.7,1.1,1.6,1.1,2.5s-0.4,1.9-1.1,2.5l-29.9,29.9
							C4660.7,118.8,4659.8,119.1,4658.8,119.1z M4634,85.6l24.8,24.8l24.8-24.8l-24.8-24.8L4634,85.6z"/>
					</g>
				</g>
			</g>
		</g>
	</g>
	<g>
		<g>
			<g>
				<g>
					<g>
						<path style="&st4;" d="M4852.4,59c-2,0-3.6-1.6-3.6-3.6c0-30.1-20.6-44.3-26.6-47.8c-6,3.5-26.6,17.7-26.6,47.8
							c0,2-1.6,3.6-3.6,3.6c-2,0-3.6-1.6-3.6-3.6c0-39,30.9-54.4,32.2-55.1c1-0.5,2.1-0.5,3.1,0c1.3,0.6,32.2,16.1,32.2,55.1
							C4855.9,57.4,4854.3,59,4852.4,59z"/>
					</g>
				</g>
			</g>
		</g>
		<g>
			<g>
				<g>
					<g>
						<path style="&st4;" d="M4852.4,119.4c-2,0-3.6-1.6-3.6-3.6c0-2,1.6-3.6,3.6-3.6c30.1,0,44.3-20.6,47.8-26.6
							c-3.5-6-17.7-26.6-47.8-26.6c-2,0-3.6-1.6-3.6-3.6s1.6-3.6,3.6-3.6c39,0,54.4,30.9,55.1,32.2c0.5,1,0.5,2.1,0,3.1
							C4906.8,88.5,4891.4,119.4,4852.4,119.4z"/>
					</g>
				</g>
			</g>
		</g>
		<g>
			<g>
				<g>
					<g>
						<path style="&st4;" d="M4792.7,118.7c-39,0-54.4-30.9-55.1-32.2c-0.5-1-0.5-2.1,0-3.1c0.6-1.3,16.1-32.2,55.1-32.2
							c2,0,3.6,1.6,3.6,3.6s-1.6,3.6-3.6,3.6c-30.1,0-44.3,20.6-47.8,26.6c3.5,6,17.7,26.6,47.8,26.6c2,0,3.6,1.6,3.6,3.6
							C4796.3,117.1,4794.7,118.7,4792.7,118.7z"/>
					</g>
				</g>
			</g>
		</g>
		<g>
			<g>
				<g>
					<g>
						<path style="&st4;" d="M4822.9,170.5c-0.5,0-1.1-0.1-1.6-0.4c-1.3-0.6-32.2-16.1-32.2-55.1c0-2,1.6-3.6,3.6-3.6
							c2,0,3.6,1.6,3.6,3.6c0,30.1,20.6,44.3,26.6,47.8c6-3.5,26.6-17.7,26.6-47.8c0-2,1.6-3.6,3.6-3.6c2,0,3.6,1.6,3.6,3.6
							c0,39-30.9,54.4-32.2,55.1C4824,170.4,4823.4,170.5,4822.9,170.5z"/>
					</g>
				</g>
			</g>
		</g>
		<g>
			<g>
				<g>
					<g>
						<path style="&st4;" d="M4852.4,119.4H4792c-2,0-3.6-1.6-3.6-3.6V55.4c0-2,1.6-3.6,3.6-3.6h60.3c2,0,3.6,1.6,3.6,3.6v60.3
							C4855.9,117.8,4854.3,119.4,4852.4,119.4z M4795.6,112.2h53.2V59h-53.2V112.2z"/>
					</g>
				</g>
			</g>
		</g>
		<g>
			<g>
				<g>
					<g>
						<path style="&st4;" d="M4822.2,119.1c-0.9,0-1.8-0.4-2.5-1.1l-29.9-29.9c-1.4-1.4-1.4-3.7,0-5.1l29.9-29.9
							c1.3-1.3,3.7-1.3,5.1,0l29.9,29.9c0.7,0.7,1.1,1.6,1.1,2.5s-0.4,1.9-1.1,2.5l-29.9,29.9C4824,118.8,4823.1,119.1,4822.2,119.1
							z M4797.4,85.6l24.8,24.8l24.8-24.8l-24.8-24.8L4797.4,85.6z"/>
					</g>
				</g>
			</g>
		</g>
	</g>
</g>
</svg>
