<?xml version="1.0" encoding="utf-8"?>
<!-- Generator: Adobe Illustrator 18.0.0, SVG Export Plug-In . SVG Version: 6.00 Build 0)  -->
<!DOCTYPE svg PUBLIC "-//W3C//DTD SVG 1.1//EN" "http://www.w3.org/Graphics/SVG/1.1/DTD/svg11.dtd" [
	<!ENTITY st0 "fill:#DEB237;">
	<!ENTITY st1 "fill:#F2ECE4;">
	<!ENTITY st2 "fill:#926152;">
	<!ENTITY st3 "fill:#FFFFFF;">
	<!ENTITY st4 "fill:#C27760;">
	<!ENTITY st5 "fill:#0061B2;">
	<!ENTITY st6 "fill:#FDB827;">
	<!ENTITY st7 "fill:#253B80;">
	<!ENTITY st8 "fill:#179BD7;">
	<!ENTITY st9 "fill:#222D65;">
	<!ENTITY st10 "fill:#231F20;">
	<!ENTITY st11 "fill:#F79410;">
	<!ENTITY st12 "fill:#FF5F00;">
	<!ENTITY st13 "fill:#EB001B;">
	<!ENTITY st14 "fill:#F79E1B;">
]>
<svg version="1.1" id="Layer_1" xmlns="http://www.w3.org/2000/svg" xmlns:xlink="http://www.w3.org/1999/xlink" x="0px" y="0px"
	 viewBox="0 0 119.8 119.8" style="enable-background:new 0 0 119.8 119.8;" xml:space="preserve">
<g>
	<g>
		<path style="&st0;" d="M114.3,61.9c-3.7,6.3-8.7,11.3-15,15c-6.3,3.7-13.2,5.5-20.7,5.5c-2.7,0-5.2-0.2-7.7-0.7L65.3,88
			c-1.1,1.2-2.5,1.9-4.2,1.9h-8.7v9.4c0,1.6-0.5,2.9-1.6,4c-1.1,1.1-2.4,1.6-4,1.6h-9.4v9.4c0,1.6-0.5,2.9-1.6,4s-2.4,1.6-4,1.6H5.6
			c-1.6,0-2.9-0.5-4-1.6s-1.6-2.4-1.6-4V95.9c0-1.6,0.5-2.9,1.6-4L39.5,54c-1.4-4.2-2.1-8.5-2.1-12.9c0-7.5,1.8-14.4,5.5-20.7
			c3.7-6.3,8.7-11.3,15-15S71.1,0,78.6,0C86.1,0,93,1.8,99.3,5.5s11.3,8.7,15,15s5.5,13.2,5.5,20.7S118,55.6,114.3,61.9z M81.9,37.9
			c2.2,2.2,4.8,3.3,8,3.3c3.1,0,5.8-1.1,8-3.3c2.2-2.2,3.3-4.8,3.3-8s-1.1-5.8-3.3-8s-4.8-3.3-8-3.3c-3.1,0-5.8,1.1-8,3.3
			c-2.2,2.2-3.3,4.8-3.3,8S79.7,35.7,81.9,37.9z"/>
	</g>
</g>
</svg>
