<?xml version="1.0" encoding="utf-8"?>
<!-- Generator: Adobe Illustrator 18.0.0, SVG Export Plug-In . SVG Version: 6.00 Build 0)  -->
<!DOCTYPE svg PUBLIC "-//W3C//DTD SVG 1.1//EN" "http://www.w3.org/Graphics/SVG/1.1/DTD/svg11.dtd" [
	<!ENTITY st0 "fill:#DEB237;">
	<!ENTITY st1 "fill:#F2ECE4;">
	<!ENTITY st2 "fill:#926152;">
	<!ENTITY st3 "fill:#FFFFFF;">
	<!ENTITY st4 "fill:#C27760;">
	<!ENTITY st5 "fill:#0061B2;">
	<!ENTITY st6 "fill:#FDB827;">
	<!ENTITY st7 "fill:#253B80;">
	<!ENTITY st8 "fill:#179BD7;">
	<!ENTITY st9 "fill:#222D65;">
	<!ENTITY st10 "fill:#231F20;">
	<!ENTITY st11 "fill:#F79410;">
	<!ENTITY st12 "fill:#FF5F00;">
	<!ENTITY st13 "fill:#EB001B;">
	<!ENTITY st14 "fill:#F79E1B;">
]>
<svg version="1.1" id="Layer_1" xmlns="http://www.w3.org/2000/svg" xmlns:xlink="http://www.w3.org/1999/xlink" x="0px" y="0px"
	 viewBox="0 0 269.3 219.3" style="enable-background:new 0 0 269.3 219.3;" xml:space="preserve">
<g>
	<g>
		<g>
			<path style="&st4;" d="M110.1,0v17.4c-24.9,13-42.8,26.6-53.6,40.8s-16.2,29.6-16.2,46.3c0,9.9,1.4,16.7,4.3,20.4
				c2.6,4,5.7,6,9.4,6s8.6-1.1,14.9-3.2c6.2-2.1,11.9-3.2,17-3.2c11.6,0,21.7,4.3,30.4,12.9c8.6,8.6,12.9,19.2,12.9,31.7
				c0,13.6-5.2,25.3-15.7,35.1S90,218.9,74.4,218.9c-19,0-36.1-8.2-51.4-24.7S0,157.5,0,133.5c0-28.3,9.4-54.8,28.3-79.3
				S74.4,11.6,110.1,0z M248.9,1.3v16.2c-28.6,16.4-47.5,31.2-56.5,44.2c-9.1,13-13.6,28.3-13.6,45.9c0,7.9,1.6,13.9,4.7,17.9
				s6.4,6,9.8,6c3.1,0,7.8-1.1,14-3.4c6.2-2.3,12.5-3.4,18.7-3.4c11.6,0,21.7,4.2,30.4,12.5c8.6,8.4,12.9,18.6,12.9,30.8
				c0,13.9-5.5,25.9-16.3,36.1c-10.9,10.2-24.3,15.3-40.2,15.3c-18.7,0-35.6-8.1-50.6-24.2s-22.5-36.3-22.5-60.4
				c0-29.8,9.5-56.9,28.5-81.4S214,11.5,248.9,1.3z"/>
		</g>
	</g>
</g>
</svg>
