<?xml version="1.0" encoding="utf-8"?>
<!-- Generator: Adobe Illustrator 18.0.0, SVG Export Plug-In . SVG Version: 6.00 Build 0)  -->
<!DOCTYPE svg PUBLIC "-//W3C//DTD SVG 1.1//EN" "http://www.w3.org/Graphics/SVG/1.1/DTD/svg11.dtd" [
	<!ENTITY st0 "fill:#DEB237;">
	<!ENTITY st1 "fill:#F2ECE4;">
	<!ENTITY st2 "fill:#926152;">
	<!ENTITY st3 "fill:#FFFFFF;">
	<!ENTITY st4 "fill:#C27760;">
	<!ENTITY st5 "fill:#0061B2;">
	<!ENTITY st6 "fill:#FDB827;">
	<!ENTITY st7 "fill:#253B80;">
	<!ENTITY st8 "fill:#179BD7;">
	<!ENTITY st9 "fill:#222D65;">
	<!ENTITY st10 "fill:#231F20;">
	<!ENTITY st11 "fill:#F79410;">
	<!ENTITY st12 "fill:#FF5F00;">
	<!ENTITY st13 "fill:#EB001B;">
	<!ENTITY st14 "fill:#F79E1B;">
]>
<svg version="1.1" id="Layer_1" xmlns="http://www.w3.org/2000/svg" xmlns:xlink="http://www.w3.org/1999/xlink" x="0px" y="0px"
	 viewBox="0 0 134.2 178.9" style="enable-background:new 0 0 134.2 178.9;" xml:space="preserve">
<g>
	<g>
		<path style="&st0;" d="M78.3,47.5c0,2.3,0.8,4.3,2.4,5.9c1.6,1.6,3.6,2.4,5.9,2.4h47.5v114.6c0,2.3-0.8,4.3-2.4,5.9
			c-1.6,1.6-3.6,2.4-5.9,2.4H8.4c-2.3,0-4.3-0.8-5.9-2.4c-1.6-1.6-2.4-3.6-2.4-5.9V8.4c0-2.3,0.8-4.3,2.4-5.9S6.1,0,8.4,0h69.9V47.5
			z M100.7,82.5c0-1.2-0.4-2.2-1.2-3s-1.8-1.2-3-1.2H37.7c-1.2,0-2.2,0.4-3,1.2c-0.8,0.8-1.2,1.8-1.2,3v2.8c0,1.2,0.4,2.2,1.2,3
			c0.8,0.8,1.8,1.2,3,1.2h58.7c1.2,0,2.2-0.4,3-1.2c0.8-0.8,1.2-1.8,1.2-3V82.5z M100.7,107.6v-2.8c0-1.2-0.4-2.2-1.2-3
			c-0.8-0.8-1.8-1.2-3-1.2H37.7c-1.2,0-2.2,0.4-3,1.2c-0.8,0.8-1.2,1.8-1.2,3v2.8c0,1.2,0.4,2.2,1.2,3c0.8,0.8,1.8,1.2,3,1.2h58.7
			c1.2,0,2.2-0.4,3-1.2S100.7,108.8,100.7,107.6z M100.7,130v-2.8c0-1.2-0.4-2.2-1.2-3s-1.8-1.2-3-1.2H37.7c-1.2,0-2.2,0.4-3,1.2
			c-0.8,0.8-1.2,1.8-1.2,3v2.8c0,1.2,0.4,2.2,1.2,3c0.8,0.8,1.8,1.2,3,1.2h58.7c1.2,0,2.2-0.4,3-1.2
			C100.2,132.2,100.7,131.2,100.7,130z M134.2,42.6c0-2.3-0.8-4.3-2.4-5.9L97.5,2.4C95.9,0.8,93.9,0,91.6,0h-2.1v44.7h44.7V42.6z"/>
	</g>
</g>
</svg>
