<?xml version="1.0" encoding="utf-8"?>
<!-- Generator: Adobe Illustrator 18.0.0, SVG Export Plug-In . SVG Version: 6.00 Build 0)  -->
<!DOCTYPE svg PUBLIC "-//W3C//DTD SVG 1.1//EN" "http://www.w3.org/Graphics/SVG/1.1/DTD/svg11.dtd" [
	<!ENTITY st0 "fill:#DEB237;">
	<!ENTITY st1 "fill:#F2ECE4;">
	<!ENTITY st2 "fill:#926152;">
	<!ENTITY st3 "fill:#FFFFFF;">
	<!ENTITY st4 "fill:#C27760;">
	<!ENTITY st5 "fill:#0061B2;">
	<!ENTITY st6 "fill:#FDB827;">
	<!ENTITY st7 "fill:#253B80;">
	<!ENTITY st8 "fill:#179BD7;">
	<!ENTITY st9 "fill:#222D65;">
	<!ENTITY st10 "fill:#231F20;">
	<!ENTITY st11 "fill:#F79410;">
	<!ENTITY st12 "fill:#FF5F00;">
	<!ENTITY st13 "fill:#EB001B;">
	<!ENTITY st14 "fill:#F79E1B;">
]>
<svg version="1.1" id="Layer_1" xmlns="http://www.w3.org/2000/svg" xmlns:xlink="http://www.w3.org/1999/xlink" x="0px" y="0px"
	 viewBox="0 0 449 349.3" style="enable-background:new 0 0 449 349.3;" xml:space="preserve">
<g transform="translate(1565.7 -1106.8)">
	<g transform="matrix(3.1437 0 0 3.1437 -4835.7 -1027.6)">
		<g transform="matrix(1.25 0 0 -1.25 1102.5 727.74)">
			<g>
				<g>
					<path style="&st10;" d="M62.1-48.6v-0.2h0.2c0,0,0.1,0,0.1,0c0,0,0,0,0,0.1s0,0.1,0,0.1c0,0-0.1,0-0.1,0H62.1z M62.3-48.5
						c0.1,0,0.2,0,0.3-0.1c0.1,0,0.1-0.1,0.1-0.2c0-0.1,0-0.1-0.1-0.2c0,0-0.1-0.1-0.2-0.1l0.3-0.3h-0.2L62.1-49h-0.1v-0.3h-0.2v0.9
						H62.3z M62.2-49.6c0.1,0,0.2,0,0.3,0.1c0.1,0,0.2,0.1,0.2,0.2c0.1,0.1,0.1,0.1,0.2,0.2c0,0.1,0.1,0.2,0.1,0.3
						c0,0.1,0,0.2-0.1,0.3c0,0.1-0.1,0.2-0.2,0.2c-0.1,0.1-0.1,0.1-0.2,0.2c-0.1,0-0.2,0.1-0.3,0.1c-0.1,0-0.2,0-0.3-0.1
						c-0.1,0-0.2-0.1-0.2-0.2c-0.1-0.1-0.1-0.1-0.2-0.2c0-0.1-0.1-0.2-0.1-0.3c0-0.1,0-0.2,0.1-0.3c0-0.1,0.1-0.2,0.2-0.2
						c0.1-0.1,0.1-0.1,0.2-0.2C62-49.6,62.1-49.6,62.2-49.6 M62.2-48c0.1,0,0.3,0,0.4-0.1c0.1,0,0.2-0.1,0.3-0.2
						c0.1-0.1,0.2-0.2,0.2-0.3c0-0.1,0.1-0.2,0.1-0.4c0-0.1,0-0.2-0.1-0.4c0-0.1-0.1-0.2-0.2-0.3c-0.1-0.1-0.2-0.2-0.3-0.2
						c-0.1,0-0.2-0.1-0.4-0.1c-0.1,0-0.3,0-0.4,0.1c-0.1,0-0.2,0.1-0.3,0.2c-0.1,0.1-0.2,0.2-0.2,0.3c0,0.1-0.1,0.2-0.1,0.4
						c0,0.1,0,0.2,0.1,0.4c0,0.1,0.1,0.2,0.2,0.3c0.1,0.1,0.2,0.2,0.3,0.2C62-48,62.1-48,62.2-48 M-25.3-44.7c0,1.6,1.1,3,2.8,3
						c1.7,0,2.8-1.3,2.8-3s-1.1-3-2.8-3C-24.2-47.7-25.3-46.3-25.3-44.7 M-17.7-44.7v4.7h-2v-1.1c-0.6,0.8-1.6,1.4-3,1.4
						c-2.6,0-4.7-2.1-4.7-4.9c0-2.9,2.1-4.9,4.7-4.9c1.3,0,2.3,0.5,3,1.4v-1.1h2V-44.7z M51.2-44.7c0,1.6,1.1,3,2.8,3
						c1.7,0,2.8-1.3,2.8-3s-1.1-3-2.8-3C52.3-47.7,51.2-46.3,51.2-44.7 M58.8-44.7v8.5h-2v-4.9c-0.6,0.8-1.6,1.4-3,1.4
						c-2.6,0-4.7-2.1-4.7-4.9c0-2.9,2.1-4.9,4.7-4.9c1.3,0,2.3,0.5,3,1.4v-1.1h2V-44.7z M7.6-41.6c1.3,0,2.2-0.8,2.4-2.3H5.1
						C5.4-42.5,6.2-41.6,7.6-41.6 M7.7-39.7c-2.7,0-4.7-2-4.7-4.9c0-3,2-4.9,4.8-4.9c1.4,0,2.7,0.4,3.8,1.3l-1,1.5
						c-0.8-0.6-1.8-1-2.7-1c-1.3,0-2.5,0.6-2.8,2.3h7c0,0.3,0,0.5,0,0.8C12.1-41.7,10.3-39.7,7.7-39.7 M32.3-44.7c0,1.6,1.1,3,2.8,3
						c1.7,0,2.8-1.3,2.8-3s-1.1-3-2.8-3C33.4-47.7,32.3-46.3,32.3-44.7 M39.9-44.7v4.7h-2v-1.1c-0.6,0.8-1.6,1.4-3,1.4
						c-2.6,0-4.7-2.1-4.7-4.9c0-2.9,2.1-4.9,4.7-4.9c1.3,0,2.3,0.5,3,1.4v-1.1h2V-44.7z M20.8-44.7c0-2.8,2-4.9,5-4.9
						c1.4,0,2.4,0.3,3.4,1.1l-1,1.6c-0.8-0.6-1.6-0.8-2.5-0.8c-1.6,0-2.8,1.2-2.8,3c0,1.8,1.2,3,2.8,3c0.9,0,1.7-0.3,2.5-0.8l1,1.6
						c-1,0.8-2,1.1-3.4,1.1C22.8-39.7,20.8-41.8,20.8-44.7 M47.1-39.7c-1.2,0-1.9-0.6-2.5-1.4v1.1h-2v-9.4h2v5.3
						c0,1.6,0.7,2.4,2,2.4c0.4,0,0.8-0.1,1.3-0.2l0.6,1.9C48.1-39.8,47.5-39.7,47.1-39.7 M-7.6-40.7c-1,0.6-2.3,1-3.8,1
						c-2.4,0-3.9-1.1-3.9-3c0-1.5,1.1-2.5,3.2-2.8l1-0.1c1.1-0.2,1.6-0.5,1.6-1c0-0.7-0.7-1.1-2.1-1.1c-1.4,0-2.4,0.5-3.1,1l-1-1.6
						c1.1-0.8,2.5-1.2,4.1-1.2c2.7,0,4.3,1.3,4.3,3.1c0,1.6-1.2,2.5-3.3,2.8l-1,0.1c-0.9,0.1-1.6,0.3-1.6,0.9c0,0.7,0.7,1.1,1.8,1.1
						c1.2,0,2.4-0.5,2.9-0.8L-7.6-40.7z M18.7-39.7c-1.2,0-1.9-0.6-2.5-1.4v1.1h-2v-9.4h2v5.3c0,1.6,0.7,2.4,2,2.4
						c0.4,0,0.8-0.1,1.3-0.2l0.6,1.9C19.7-39.8,19.1-39.7,18.7-39.7 M1.3-40H-2v2.8h-2.1V-40H-6v-1.9h1.9v-4.3
						c0-2.2,0.8-3.5,3.3-3.5c0.9,0,1.9,0.3,2.6,0.7l-0.6,1.7c-0.6-0.4-1.3-0.5-1.8-0.5c-1,0-1.4,0.6-1.4,1.6v4.2h3.3L1.3-40z
						 M-29.2-49.3v5.9c0,2.2-1.4,3.7-3.7,3.7c-1.2,0-2.4-0.4-3.3-1.7c-0.6,1-1.7,1.7-3.1,1.7c-1,0-2-0.3-2.7-1.4v1.2h-2v-9.4h2.1
						v5.2c0,1.6,0.9,2.5,2.3,2.5c1.4,0,2-0.9,2-2.5v-5.2h2.1v5.2c0,1.6,0.9,2.5,2.3,2.5c1.4,0,2.1-0.9,2.1-2.5v-5.2H-29.2z"/>
				</g>
			</g>
		</g>
		<g transform="matrix(1.25 0 0 -1.25 1103.2 710.77)">
			<g>
				<g>
					<path style="&st11;" d="M62.8-31.7v1.4h-0.4L62-31.3l-0.4,0.9h-0.4v-1.4h0.3v1l0.4-0.9h0.3l0.4,0.9v-1H62.8z M60.5-31.7v1.1
						h0.5v0.2h-1.2v-0.2h0.5v-1.1H60.5z"/>
				</g>
			</g>
		</g>
		<g>
			<g>
				<path style="&st12;" d="M1130.9,757.8h-38.6v-69.4h38.6V757.8z"/>
			</g>
		</g>
		<g transform="matrix(1.25 0 0 -1.25 1064.5 698.59)">
			<g>
				<g>
					<path style="&st13;" d="M24.2-19.6c0,11.3,5.3,21.3,13.5,27.8c-6,4.7-13.6,7.6-21.8,7.6c-19.5,0-35.3-15.8-35.3-35.3
						s15.8-35.3,35.3-35.3c8.2,0,15.8,2.8,21.8,7.6C29.5-40.9,24.2-30.9,24.2-19.6"/>
				</g>
			</g>
		</g>
		<g transform="matrix(1.25 0 0 -1.25 1103.8 698.59)">
			<g>
				<g>
					<path style="&st14;" d="M63.3-19.6c0-19.5-15.8-35.3-35.3-35.3c-8.2,0-15.8,2.8-21.8,7.6c8.2,6.5,13.5,16.5,13.5,27.8
						S14.4,1.7,6.2,8.2c6,4.7,13.6,7.6,21.8,7.6C47.5,15.7,63.3-0.1,63.3-19.6"/>
				</g>
			</g>
		</g>
	</g>
</g>
</svg>
