<?xml version="1.0" encoding="utf-8"?>
<!-- Generator: Adobe Illustrator 18.0.0, SVG Export Plug-In . SVG Version: 6.00 Build 0)  -->
<!DOCTYPE svg PUBLIC "-//W3C//DTD SVG 1.1//EN" "http://www.w3.org/Graphics/SVG/1.1/DTD/svg11.dtd" [
	<!ENTITY st0 "fill:#DEB237;">
	<!ENTITY st1 "fill:#F2ECE4;">
	<!ENTITY st2 "fill:#926152;">
	<!ENTITY st3 "fill:#FFFFFF;">
	<!ENTITY st4 "fill:#C27760;">
	<!ENTITY st5 "fill:#0061B2;">
	<!ENTITY st6 "fill:#FDB827;">
	<!ENTITY st7 "fill:#253B80;">
	<!ENTITY st8 "fill:#179BD7;">
	<!ENTITY st9 "fill:#222D65;">
	<!ENTITY st10 "fill:#231F20;">
	<!ENTITY st11 "fill:#F79410;">
	<!ENTITY st12 "fill:#FF5F00;">
	<!ENTITY st13 "fill:#EB001B;">
	<!ENTITY st14 "fill:#F79E1B;">
]>
<svg version="1.1" id="Layer_1" xmlns="http://www.w3.org/2000/svg" xmlns:xlink="http://www.w3.org/1999/xlink" x="0px" y="0px"
	 viewBox="0 0 493.7 309.2" style="enable-background:new 0 0 493.7 309.2;" xml:space="preserve">
<g>
	<g id="g3177_2_">
		<g id="rect3062_2_">
			<g>
				<g>
					<path inkscape:connector-curvature="0" style="&st3;" d="M2.6,2.6h488.5v304.1H2.6L2.6,2.6z"/>
				</g>
			</g>
			<g>
				<g>
					<path style="&st5;" d="M493.7,309.2H0V0h493.7V309.2z M5.1,304.1h483.4V5.1H5.1V304.1z"/>
				</g>
			</g>
		</g>
		<g id="path3065_2_">
			<g>
				<g>
					<path inkscape:connector-curvature="0" style="&st5;" d="M19.1,21.6h452.5v64H19.1L19.1,21.6z"/>
				</g>
			</g>
		</g>
		<g id="path3069_2_">
			<g>
				<g>
					<path inkscape:connector-curvature="0" style="&st6;" d="M19.1,223.7h452.5v64H19.1L19.1,223.7z"/>
				</g>
			</g>
		</g>
		<g id="path3071_2_">
			<g>
				<g>
					<path sodipodi:nodetypes="ccccccccccccc" inkscape:connector-curvature="0" style="&st5;" d="M94.3,101.8L94.3,101.8l-18.6,0
						v3.2v0c14.5,0.5,18.9,7.3,20.5,15.2l8.6,84.9h28.2l60.2-103.3h-28.2l-36.2,62.1l-6.3-62.1L94.3,101.8z"/>
				</g>
			</g>
		</g>
		<g id="rect3086_2_">
			<g>
				<g>
					<path sodipodi:nodetypes="ccccc" inkscape:connector-curvature="0" style="&st5;" d="M208.1,101.8h27.3l-33.5,103.4h-27.3
						L208.1,101.8z"/>
				</g>
			</g>
		</g>
		<g id="path3089_2_">
			<g>
				<g>
					<path sodipodi:nodetypes="ccccccccccccc" inkscape:connector-curvature="0" style="&st5;" d="M358.7,103.8l-52.9,101.4h29.7
						l7.7-15.5h34.4l1.2,15.5h27.3l-7.7-101.4C385.1,103.8,371.9,103.8,358.7,103.8z M373,129.8l3.3,42.9h-24.6L373,129.8z"/>
				</g>
			</g>
		</g>
		<g id="path3105_2_">
			<g>
				<g>
					<path sodipodi:nodetypes="ssccssssccsss" inkscape:connector-curvature="0" style="&st5;" d="M242.1,128.1
						c4.1-16.4,17.6-27.6,40.5-27.6c21.5,0,37.4,13.4,37.4,13.4l-16.2,17c0,0-12-9.3-19.1-9.3c-9.4,0-13.6,3.4-14.4,9
						c-1.7,11.2,38.1,18,36.9,44.1c-0.8,17.4-18.9,34.3-39.5,34.3c-30.9,0-46.2-12.4-46.2-12.4l13.9-19.9c0,0,14,11.2,27.1,10.6
						c8.9-0.4,15.7-3.8,15.2-9.8C276.7,164,234.7,157.8,242.1,128.1L242.1,128.1z"/>
				</g>
			</g>
		</g>
		<g id="path3151_2_">
			<g>
				<g>
					<path inkscape:connector-curvature="0" style="&st5;" d="M409.4,103.8c-1,0-1.9,0.2-2.8,0.7c-0.9,0.5-1.6,1.2-2.1,2.1
						c-0.5,0.9-0.8,1.9-0.8,2.9c0,1,0.3,1.9,0.8,2.8c0.5,0.9,1.2,1.6,2.1,2.1c0.9,0.5,1.8,0.8,2.8,0.8c1,0,1.9-0.3,2.8-0.8
						c0.9-0.5,1.6-1.2,2.1-2.1c0.5-0.9,0.7-1.8,0.7-2.8c0-1-0.3-1.9-0.8-2.9c-0.5-0.9-1.2-1.6-2.1-2.1
						C411.2,104.1,410.3,103.8,409.4,103.8L409.4,103.8z M409.4,104.8c0.8,0,1.6,0.2,2.3,0.6c0.8,0.4,1.3,1,1.8,1.8
						c0.4,0.8,0.6,1.6,0.6,2.4c0,0.8-0.2,1.6-0.6,2.4c-0.4,0.8-1,1.3-1.8,1.8c-0.8,0.4-1.5,0.6-2.4,0.6c-0.8,0-1.6-0.2-2.4-0.6
						c-0.8-0.4-1.3-1-1.8-1.8c-0.4-0.8-0.6-1.5-0.6-2.4c0-0.8,0.2-1.6,0.6-2.4c0.4-0.8,1-1.3,1.8-1.8
						C407.8,105,408.6,104.8,409.4,104.8z"/>
				</g>
			</g>
		</g>
		<g id="path3147_2_">
			<g>
				<g>
					<path inkscape:connector-curvature="0" style="&st5;" d="M407,106.4v6.7h1v-2.8h0.6c0.3,0,0.6,0.1,0.8,0.2
						c0.3,0.2,0.6,0.7,1,1.6l0.5,1.1h1.2l-0.7-1.3c-0.4-0.6-0.7-1.1-0.9-1.3c-0.1-0.1-0.3-0.3-0.5-0.4c0.5,0,1-0.3,1.3-0.6
						c0.3-0.4,0.5-0.8,0.5-1.3c0-0.3-0.1-0.7-0.3-1c-0.2-0.3-0.4-0.5-0.8-0.7c-0.3-0.1-0.8-0.2-1.6-0.2H407L407,106.4z M408,107.3
						h1.1c0.5,0,0.8,0,1,0.1c0.2,0.1,0.3,0.2,0.4,0.4c0.1,0.2,0.1,0.3,0.1,0.5c0,0.3-0.1,0.6-0.3,0.7c-0.2,0.2-0.6,0.3-1.2,0.3H408
						L408,107.3L408,107.3z"/>
				</g>
			</g>
		</g>
		<g id="path3159_2_">
			<g>
				<g>
					<path inkscape:connector-curvature="0" style="&st5;" d="M461.8,272.4c-1,0-1.9,0.2-2.8,0.7c-0.9,0.5-1.6,1.2-2.1,2.1
						c-0.5,0.9-0.8,1.9-0.8,2.9c0,1,0.3,1.9,0.8,2.8c0.5,0.9,1.2,1.6,2.1,2.1c0.9,0.5,1.8,0.8,2.8,0.8c1,0,1.9-0.3,2.8-0.8
						c0.9-0.5,1.6-1.2,2.1-2.1c0.5-0.9,0.7-1.8,0.7-2.8c0-1-0.3-1.9-0.8-2.9c-0.5-0.9-1.2-1.6-2.1-2.1
						C463.7,272.7,462.7,272.4,461.8,272.4L461.8,272.4z M461.8,273.4c0.8,0,1.6,0.2,2.3,0.6c0.8,0.4,1.3,1,1.8,1.8
						c0.4,0.8,0.6,1.6,0.6,2.4c0,0.8-0.2,1.6-0.6,2.4c-0.4,0.8-1,1.3-1.8,1.8c-0.8,0.4-1.5,0.6-2.4,0.6c-0.8,0-1.6-0.2-2.4-0.6
						c-0.8-0.4-1.3-1-1.8-1.8c-0.4-0.8-0.6-1.5-0.6-2.4c0-0.8,0.2-1.6,0.6-2.4c0.4-0.8,1-1.3,1.8-1.8
						C460.2,273.6,461,273.4,461.8,273.4z"/>
				</g>
			</g>
		</g>
		<g id="path3161_2_">
			<g>
				<g>
					<path inkscape:connector-curvature="0" style="&st5;" d="M459.4,275v6.7h1v-2.8h0.6c0.3,0,0.6,0.1,0.8,0.2
						c0.3,0.2,0.6,0.7,1,1.6l0.5,1.1h1.2l-0.7-1.3c-0.4-0.6-0.7-1.1-0.9-1.3c-0.1-0.1-0.3-0.3-0.5-0.4c0.5,0,1-0.3,1.3-0.6
						c0.3-0.4,0.5-0.8,0.5-1.3c0-0.3-0.1-0.7-0.3-1s-0.4-0.5-0.8-0.7c-0.3-0.1-0.8-0.2-1.6-0.2H459.4L459.4,275z M460.4,275.9h1.1
						c0.5,0,0.8,0,1,0.1c0.2,0.1,0.3,0.2,0.4,0.4c0.1,0.2,0.1,0.3,0.1,0.5c0,0.3-0.1,0.6-0.3,0.7c-0.2,0.2-0.6,0.3-1.2,0.3h-1.2
						L460.4,275.9L460.4,275.9z"/>
				</g>
			</g>
		</g>
	</g>
</g>
</svg>
