<?xml version="1.0" encoding="utf-8"?>
<!-- Generator: Adobe Illustrator 18.0.0, SVG Export Plug-In . SVG Version: 6.00 Build 0)  -->
<!DOCTYPE svg PUBLIC "-//W3C//DTD SVG 1.1//EN" "http://www.w3.org/Graphics/SVG/1.1/DTD/svg11.dtd" [
	<!ENTITY st0 "fill:#DEB237;">
	<!ENTITY st1 "fill:#F2ECE4;">
	<!ENTITY st2 "fill:#926152;">
	<!ENTITY st3 "fill:#FFFFFF;">
	<!ENTITY st4 "fill:#C27760;">
	<!ENTITY st5 "fill:#0061B2;">
	<!ENTITY st6 "fill:#FDB827;">
	<!ENTITY st7 "fill:#253B80;">
	<!ENTITY st8 "fill:#179BD7;">
	<!ENTITY st9 "fill:#222D65;">
	<!ENTITY st10 "fill:#231F20;">
	<!ENTITY st11 "fill:#F79410;">
	<!ENTITY st12 "fill:#FF5F00;">
	<!ENTITY st13 "fill:#EB001B;">
	<!ENTITY st14 "fill:#F79E1B;">
]>
<svg version="1.1" id="Layer_1" xmlns="http://www.w3.org/2000/svg" xmlns:xlink="http://www.w3.org/1999/xlink" x="0px" y="0px"
	 viewBox="0 0 133.1 106.5" style="enable-background:new 0 0 133.1 106.5;" xml:space="preserve">
<g>
	<g>
		<path style="&st4;" d="M88.4,100.2v2.1c0,0.7,0.1,1.5,0.4,2.3c-1.7,1.2-3.5,1.9-5.6,1.9H10c-2.8,0-5.1-1-7.1-2.9S0,99.3,0,96.5
			v-8.7c0-5,1.2-9.6,3.7-13.9s5.9-7.7,10.2-10.2c4.3-2.5,8.9-3.7,13.9-3.7h3.5c4.9,2.2,9.9,3.3,15.2,3.3s10.3-1.1,15.2-3.3h3.5
			l2.3,0.2L67,62c-0.6,1.8-0.5,3.6,0.2,5.4c0.7,1.8,1.9,3.2,3.5,4.2l1.7,0.8V74l-1.7,1c-1.7,1-2.8,2.3-3.5,4.1
			c-0.7,1.7-0.8,3.5-0.2,5.3c1.7,5.4,4.4,10.3,8.3,14.6c1.7,1.8,3.7,2.7,6,2.7c1.4,0,2.8-0.4,4.2-1.2l1.5-0.8h0.4
			C87.8,100,88.1,100.2,88.4,100.2z M46.6,53.2c-4.9,0-9.3-1.2-13.4-3.5c-4.1-2.4-7.3-5.6-9.7-9.7S20,31.5,20,26.6s1.2-9.3,3.5-13.4
			s5.6-7.3,9.7-9.7S41.7,0,46.6,0S55.9,1.2,60,3.5s7.3,5.6,9.7,9.7s3.5,8.6,3.5,13.4S72,35.9,69.7,40s-5.6,7.3-9.7,9.7
			C55.9,52.1,51.4,53.2,46.6,53.2z M127.1,77.6l5.2,3.1c0.7,0.4,1,1,0.8,1.9c-1.4,4.4-3.7,8.4-7.1,11.9c-0.6,0.6-1.2,0.6-1.9,0.2
			l-5.2-2.9c-2.4,1.9-4.9,3.4-7.7,4.4v6.2c0,0.8-0.4,1.3-1.2,1.5c-4.6,1-9.2,1-13.7,0c-0.8-0.1-1.2-0.6-1.2-1.5v-6.2
			c-2.8-1-5.3-2.4-7.7-4.4l-5.4,2.9c-0.7,0.4-1.3,0.3-1.9-0.2c-3.2-3.5-5.5-7.4-6.9-11.9c-0.3-0.8,0-1.5,0.8-1.9l5.2-3.1
			c-0.6-2.9-0.6-5.8,0-8.7L74,65.7c-0.7-0.4-1-1-0.8-1.9c1.4-4.4,3.7-8.4,6.9-11.9c0.6-0.6,1.2-0.7,1.9-0.4l5.4,3.1
			c2.4-1.9,4.9-3.4,7.7-4.4v-6.2c0-0.8,0.4-1.3,1.2-1.5c4.6-1,9.2-1,13.7,0c0.8,0.1,1.2,0.6,1.2,1.5v6.2c2.8,1,5.3,2.4,7.7,4.4
			l5.2-2.9c0.7-0.4,1.3-0.3,1.9,0.2c3.3,3.5,5.7,7.4,7.1,11.9c0.1,0.8-0.1,1.5-0.8,1.9l-5.4,3.1C127.4,71.7,127.5,74.7,127.1,77.6z
			 M103.1,83.2c2.8,0,5.2-1,7.2-2.9c2-1.9,3-4.3,3-7.1s-1-5.2-3-7.2c-2-2-4.4-3-7.2-2.9c-2.8,0.1-5.1,1.1-7.1,3
			c-1.9,1.9-2.9,4.3-2.9,7.1s1,5.1,2.9,7.1C98,82.2,100.4,83.2,103.1,83.2z"/>
	</g>
</g>
</svg>
