<?xml version="1.0" encoding="utf-8"?>
<!-- Generator: Adobe Illustrator 18.0.0, SVG Export Plug-In . SVG Version: 6.00 Build 0)  -->
<!DOCTYPE svg PUBLIC "-//W3C//DTD SVG 1.1//EN" "http://www.w3.org/Graphics/SVG/1.1/DTD/svg11.dtd" [
	<!ENTITY st0 "fill:#DEB237;">
	<!ENTITY st1 "fill:#F2ECE4;">
	<!ENTITY st2 "fill:#926152;">
	<!ENTITY st3 "fill:#FFFFFF;">
	<!ENTITY st4 "fill:#C27760;">
	<!ENTITY st5 "fill:#0061B2;">
	<!ENTITY st6 "fill:#FDB827;">
	<!ENTITY st7 "fill:#253B80;">
	<!ENTITY st8 "fill:#179BD7;">
	<!ENTITY st9 "fill:#222D65;">
	<!ENTITY st10 "fill:#231F20;">
	<!ENTITY st11 "fill:#F79410;">
	<!ENTITY st12 "fill:#FF5F00;">
	<!ENTITY st13 "fill:#EB001B;">
	<!ENTITY st14 "fill:#F79E1B;">
]>
<svg version="1.1" id="Layer_1" xmlns="http://www.w3.org/2000/svg" xmlns:xlink="http://www.w3.org/1999/xlink" x="0px" y="0px"
	 viewBox="0 0 360.7 360.7" style="enable-background:new 0 0 360.7 360.7;" xml:space="preserve">
<g>
	<g>
		<g>
			<g>
				<g>
					<path style="&st0;" d="M244.4,121.3c-2.8,0-5-2.2-5-5c0-67.7-48.8-99.4-59.8-105.7c-11.2,6.2-59.7,37.3-59.7,105.7
						c0,2.8-2.2,5-5,5c-2.8,0-5-2.2-5-5c0-82.1,66.9-115.5,67.6-115.8c1.4-0.7,3-0.7,4.4,0c0.7,0.3,67.6,33.7,67.6,115.8
						C249.4,119.1,247.1,121.3,244.4,121.3z"/>
				</g>
			</g>
		</g>
	</g>
	<g>
		<g>
			<g>
				<g>
					<path style="&st0;" d="M244.4,250.9c-2.8,0-5-2.2-5-5c0-2.8,2.2-5,5-5c68.4,0,99.4-48.6,105.7-59.8
						c-6.2-11.2-37.2-59.8-105.7-59.8c-2.8,0-5-2.2-5-5c0-2.8,2.2-5,5-5c82.1,0,115.5,66.9,115.8,67.6c0.7,1.4,0.7,3,0,4.4
						C359.9,184,326.5,250.9,244.4,250.9z"/>
				</g>
			</g>
		</g>
	</g>
	<g>
		<g>
			<g>
				<g>
					<path style="&st0;" d="M116.3,249.4c-82.1,0-115.5-66.9-115.8-67.6c-0.7-1.4-0.7-3,0-4.4c0.3-0.7,33.7-67.6,115.8-67.6
						c2.8,0,5,2.2,5,5c0,2.8-2.2,5-5,5c-68.4,0-99.4,48.6-105.7,59.8c6.2,11.2,37.2,59.8,105.7,59.8c2.8,0,5,2.2,5,5
						C121.3,247.2,119.1,249.4,116.3,249.4z"/>
				</g>
			</g>
		</g>
	</g>
	<g>
		<g>
			<g>
				<g>
					<path style="&st0;" d="M181.1,360.7c-0.7,0-1.5-0.2-2.2-0.5c-0.7-0.3-67.6-33.7-67.6-115.8c0-2.8,2.2-5,5-5c2.8,0,5,2.2,5,5
						c0,67.7,48.8,99.4,59.8,105.7c11.2-6.2,59.7-37.3,59.7-105.7c0-2.8,2.2-5,5-5c2.8,0,5,2.2,5,5c0,82.1-66.9,115.5-67.6,115.8
						C182.6,360.5,181.8,360.7,181.1,360.7z"/>
				</g>
			</g>
		</g>
	</g>
	<g>
		<g>
			<g>
				<g>
					<path style="&st0;" d="M244.4,250.9H114.8c-2.8,0-5-2.2-5-5V116.3c0-2.8,2.2-5,5-5h129.5c2.8,0,5,2.2,5,5v129.6
						C249.4,248.6,247.1,250.9,244.4,250.9z M119.8,240.9h119.5V121.3H119.8V240.9z"/>
				</g>
			</g>
		</g>
	</g>
	<g>
		<g>
			<g>
				<g>
					<path style="&st0;" d="M179.6,250.3c-1.3,0-2.6-0.5-3.5-1.5l-64.2-64.2c-2-2-2-5.1,0-7.1l64.2-64.2c1.9-1.9,5.2-1.9,7.1,0
						l64.2,64.2c2,2,2,5.1,0,7.1l-64.2,64.2C182.2,249.8,180.9,250.3,179.6,250.3z M122.5,181.1l57.1,57.1l57.1-57.1L179.6,124
						L122.5,181.1z"/>
				</g>
			</g>
		</g>
	</g>
</g>
</svg>
