<?xml version="1.0" encoding="utf-8"?>
<!-- Generator: Adobe Illustrator 18.0.0, SVG Export Plug-In . SVG Version: 6.00 Build 0)  -->
<!DOCTYPE svg PUBLIC "-//W3C//DTD SVG 1.1//EN" "http://www.w3.org/Graphics/SVG/1.1/DTD/svg11.dtd" [
	<!ENTITY st0 "fill:#DEB237;">
	<!ENTITY st1 "fill:#F2ECE4;">
	<!ENTITY st2 "fill:#926152;">
	<!ENTITY st3 "fill:#FFFFFF;">
	<!ENTITY st4 "fill:#C27760;">
	<!ENTITY st5 "fill:#0061B2;">
	<!ENTITY st6 "fill:#FDB827;">
	<!ENTITY st7 "fill:#253B80;">
	<!ENTITY st8 "fill:#179BD7;">
	<!ENTITY st9 "fill:#222D65;">
	<!ENTITY st10 "fill:#231F20;">
	<!ENTITY st11 "fill:#F79410;">
	<!ENTITY st12 "fill:#FF5F00;">
	<!ENTITY st13 "fill:#EB001B;">
	<!ENTITY st14 "fill:#F79E1B;">
]>
<svg version="1.1" id="Layer_1" xmlns="http://www.w3.org/2000/svg" xmlns:xlink="http://www.w3.org/1999/xlink" x="0px" y="0px"
	 viewBox="0 0 104.8 79.9" style="enable-background:new 0 0 104.8 79.9;" xml:space="preserve">
<g>
	<g>
		<path style="&st4;" d="M39.9,77.4c0,0.7-0.2,1.3-0.7,1.8c-0.5,0.5-1.1,0.7-1.8,0.7H20c-5.5,0-10.3-1.9-14.1-5.8
			C1.9,70.2,0,65.4,0,59.9V20C0,14.4,1.9,9.7,5.8,5.8S14.4,0,20,0h17.5c0.7,0,1.3,0.2,1.8,0.7s0.7,1.1,0.7,1.8v8.3
			c0,0.7-0.2,1.3-0.7,1.8c-0.5,0.5-1.1,0.7-1.8,0.7H20c-1.8,0-3.4,0.7-4.7,2s-2,2.9-2,4.7v39.9c0,1.8,0.7,3.4,2,4.7
			c1.3,1.3,2.9,2,4.7,2h17.5c0.7,0,1.3,0.2,1.8,0.7c0.5,0.5,0.7,1.1,0.7,1.8V77.4z M103.4,43.5c1-1,1.5-2.2,1.5-3.5
			s-0.5-2.6-1.5-3.5L68.4,1.5c-1-1-2.1-1.5-3.5-1.5c-1.4,0-2.6,0.5-3.5,1.5c-1,1-1.5,2.2-1.5,3.5v20H31.6c-1.4,0-2.6,0.5-3.5,1.5
			c-1,1-1.5,2.2-1.5,3.5v20c0,1.4,0.5,2.6,1.5,3.5c1,1,2.1,1.5,3.5,1.5h28.3v20c0,1.4,0.5,2.6,1.5,3.5c1,1,2.1,1.5,3.5,1.5
			c1.4,0,2.6-0.5,3.5-1.5L103.4,43.5z"/>
	</g>
</g>
</svg>
