<?xml version="1.0" encoding="utf-8"?>
<!-- Generator: Adobe Illustrator 18.0.0, SVG Export Plug-In . SVG Version: 6.00 Build 0)  -->
<!DOCTYPE svg PUBLIC "-//W3C//DTD SVG 1.1//EN" "http://www.w3.org/Graphics/SVG/1.1/DTD/svg11.dtd" [
	<!ENTITY st0 "fill:#DEB237;">
	<!ENTITY st1 "fill:#F2ECE4;">
	<!ENTITY st2 "fill:#926152;">
	<!ENTITY st3 "fill:#FFFFFF;">
	<!ENTITY st4 "fill:#C27760;">
	<!ENTITY st5 "fill:#0061B2;">
	<!ENTITY st6 "fill:#FDB827;">
	<!ENTITY st7 "fill:#253B80;">
	<!ENTITY st8 "fill:#179BD7;">
	<!ENTITY st9 "fill:#222D65;">
	<!ENTITY st10 "fill:#231F20;">
	<!ENTITY st11 "fill:#F79410;">
	<!ENTITY st12 "fill:#FF5F00;">
	<!ENTITY st13 "fill:#EB001B;">
	<!ENTITY st14 "fill:#F79E1B;">
]>
<svg version="1.1" id="Layer_1" xmlns="http://www.w3.org/2000/svg" xmlns:xlink="http://www.w3.org/1999/xlink" x="0px" y="0px"
	 viewBox="0 0 79.9 106.5" style="enable-background:new 0 0 79.9 106.5;" xml:space="preserve">
<g>
	<g>
		<path style="&st4;" d="M46.6,28.3c0,1.4,0.5,2.6,1.5,3.5c1,1,2.1,1.5,3.5,1.5h28.3v68.2c0,1.4-0.5,2.6-1.5,3.5
			c-1,1-2.1,1.5-3.5,1.5H5c-1.4,0-2.6-0.5-3.5-1.5S0,102.9,0,101.5V5c0-1.4,0.5-2.6,1.5-3.5S3.6,0,5,0h41.6V28.3z M59.9,49.1
			c0-0.7-0.2-1.3-0.7-1.8c-0.5-0.5-1.1-0.7-1.8-0.7H22.5c-0.7,0-1.3,0.2-1.8,0.7c-0.5,0.5-0.7,1.1-0.7,1.8v1.7
			c0,0.7,0.2,1.3,0.7,1.8c0.5,0.5,1.1,0.7,1.8,0.7h34.9c0.7,0,1.3-0.2,1.8-0.7c0.5-0.5,0.7-1.1,0.7-1.8V49.1z M59.9,64.1v-1.7
			c0-0.7-0.2-1.3-0.7-1.8c-0.5-0.5-1.1-0.7-1.8-0.7H22.5c-0.7,0-1.3,0.2-1.8,0.7c-0.5,0.5-0.7,1.1-0.7,1.8v1.7
			c0,0.7,0.2,1.3,0.7,1.8c0.5,0.5,1.1,0.7,1.8,0.7h34.9c0.7,0,1.3-0.2,1.8-0.7C59.6,65.3,59.9,64.7,59.9,64.1z M59.9,77.4v-1.7
			c0-0.7-0.2-1.3-0.7-1.8c-0.5-0.5-1.1-0.7-1.8-0.7H22.5c-0.7,0-1.3,0.2-1.8,0.7C20.2,74.4,20,75,20,75.7v1.7c0,0.7,0.2,1.3,0.7,1.8
			c0.5,0.5,1.1,0.7,1.8,0.7h34.9c0.7,0,1.3-0.2,1.8-0.7C59.6,78.6,59.9,78.1,59.9,77.4z M79.9,25.4c0-1.4-0.5-2.6-1.5-3.5L58,1.5
			c-1-1-2.1-1.5-3.5-1.5h-1.2v26.6h26.6V25.4z"/>
	</g>
</g>
</svg>
