<?xml version="1.0" encoding="utf-8"?>
<!-- Generator: Adobe Illustrator 18.0.0, SVG Export Plug-In . SVG Version: 6.00 Build 0)  -->
<!DOCTYPE svg PUBLIC "-//W3C//DTD SVG 1.1//EN" "http://www.w3.org/Graphics/SVG/1.1/DTD/svg11.dtd" [
	<!ENTITY st0 "fill:#DEB237;">
	<!ENTITY st1 "fill:#F2ECE4;">
	<!ENTITY st2 "fill:#926152;">
	<!ENTITY st3 "fill:#FFFFFF;">
	<!ENTITY st4 "fill:#C27760;">
	<!ENTITY st5 "fill:#0061B2;">
	<!ENTITY st6 "fill:#FDB827;">
	<!ENTITY st7 "fill:#253B80;">
	<!ENTITY st8 "fill:#179BD7;">
	<!ENTITY st9 "fill:#222D65;">
	<!ENTITY st10 "fill:#231F20;">
	<!ENTITY st11 "fill:#F79410;">
	<!ENTITY st12 "fill:#FF5F00;">
	<!ENTITY st13 "fill:#EB001B;">
	<!ENTITY st14 "fill:#F79E1B;">
]>
<svg version="1.1" id="Layer_1" xmlns="http://www.w3.org/2000/svg" xmlns:xlink="http://www.w3.org/1999/xlink" x="0px" y="0px"
	 viewBox="0 0 746 182.2" style="enable-background:new 0 0 746 182.2;" xml:space="preserve">
<g>
	<g>
		<g>
			<path style="&st7;" d="M278.9,40.7h-41.3c-2.8,0-5.2,2.1-5.7,4.8l-16.7,105.9c-0.3,2.1,1.3,4,3.4,4h19.7c2.8,0,5.2-2.1,5.7-4.8
				l4.5-28.6c0.4-2.8,2.8-4.8,5.7-4.8h13.1c27.2,0,42.9-13.2,47-39.2c1.8-11.4,0.1-20.4-5.3-26.6C303.2,44.4,292.8,40.7,278.9,40.7z
				 M283.7,79.4c-2.3,14.8-13.6,14.8-24.5,14.8H253l4.4-27.7c0.3-1.7,1.7-2.9,3.4-2.9h2.9c7.5,0,14.5,0,18.1,4.2
				C283.9,70.4,284.5,74.2,283.7,79.4z"/>
		</g>
	</g>
	<g>
		<g>
			<path style="&st7;" d="M402.3,78.9h-19.8c-1.7,0-3.1,1.2-3.4,2.9l-0.9,5.5l-1.4-2c-4.3-6.2-13.8-8.3-23.3-8.3
				c-21.8,0-40.5,16.5-44.1,39.8c-1.9,11.6,0.8,22.6,7.4,30.4c6,7.1,14.6,10.1,24.9,10.1c17.6,0,27.4-11.3,27.4-11.3l-0.9,5.5
				c-0.3,2.1,1.3,4,3.4,4h17.8c2.8,0,5.2-2.1,5.7-4.8l10.7-67.7C406.1,80.8,404.5,78.9,402.3,78.9z M374.8,117.4
				c-1.9,11.3-10.9,18.9-22.3,18.9c-5.7,0-10.3-1.8-13.3-5.3c-2.9-3.5-4-8.4-3.1-13.9c1.8-11.2,10.9-19,22.2-19
				c5.6,0,10.2,1.9,13.2,5.4C374.5,107,375.6,111.9,374.8,117.4z"/>
		</g>
	</g>
	<g>
		<g>
			<path style="&st7;" d="M507.6,78.9h-19.9c-1.9,0-3.7,0.9-4.8,2.5l-27.4,40.4L444,83c-0.7-2.4-3-4.1-5.5-4.1H419
				c-2.4,0-4,2.3-3.3,4.6l21.9,64.2l-20.6,29c-1.6,2.3,0,5.4,2.8,5.4h19.8c1.9,0,3.6-0.9,4.7-2.5l66.1-95.4
				C512,82,510.4,78.9,507.6,78.9z"/>
		</g>
	</g>
	<g>
		<g>
			<path style="&st8;" d="M573.4,40.7h-41.3c-2.8,0-5.2,2.1-5.7,4.8l-16.7,105.9c-0.3,2.1,1.3,4,3.4,4h21.2c2,0,3.7-1.4,4-3.4
				l4.7-30c0.4-2.8,2.8-4.8,5.7-4.8h13.1c27.2,0,42.9-13.2,47-39.2c1.9-11.4,0.1-20.4-5.3-26.6C597.6,44.4,587.2,40.7,573.4,40.7z
				 M578.2,79.4c-2.3,14.8-13.6,14.8-24.5,14.8h-6.2l4.4-27.7c0.3-1.7,1.7-2.9,3.4-2.9h2.9c7.4,0,14.5,0,18.1,4.2
				C578.3,70.4,579,74.2,578.2,79.4z"/>
		</g>
	</g>
	<g>
		<g>
			<path style="&st8;" d="M696.8,78.9H677c-1.7,0-3.1,1.2-3.4,2.9l-0.9,5.5l-1.4-2c-4.3-6.2-13.8-8.3-23.3-8.3
				c-21.8,0-40.5,16.5-44.1,39.8c-1.9,11.6,0.8,22.6,7.4,30.4c6,7.1,14.6,10.1,24.9,10.1c17.6,0,27.4-11.3,27.4-11.3l-0.9,5.5
				c-0.3,2.1,1.3,4,3.4,4h17.8c2.8,0,5.2-2.1,5.7-4.8l10.7-67.7C700.5,80.8,698.9,78.9,696.8,78.9z M669.2,117.4
				c-1.9,11.3-10.9,18.9-22.3,18.9c-5.7,0-10.3-1.8-13.3-5.3c-2.9-3.5-4-8.4-3.1-13.9c1.8-11.2,10.9-19,22.2-19
				c5.6,0,10.2,1.9,13.2,5.4C668.9,107,670.1,111.9,669.2,117.4z"/>
		</g>
	</g>
	<g>
		<g>
			<path style="&st8;" d="M720.1,43.6l-16.9,107.8c-0.3,2.1,1.3,4,3.4,4h17c2.8,0,5.2-2.1,5.7-4.8l16.7-105.9c0.3-2.1-1.3-4-3.4-4
				h-19.1C721.8,40.7,720.3,42,720.1,43.6z"/>
		</g>
	</g>
	<g>
		<g>
			<path style="&st7;" d="M43.9,176l3.2-20.1l-7-0.2H6.4l23.3-148c0.1-0.4,0.3-0.9,0.7-1.2c0.3-0.3,0.8-0.5,1.2-0.5h56.6
				c18.8,0,31.8,3.9,38.5,11.6c3.2,3.6,5.2,7.4,6.2,11.6c1,4.4,1,9.6,0,16l-0.1,0.5v4.1l3.2,1.8c2.7,1.4,4.8,3,6.4,4.9
				c2.7,3.1,4.5,7,5.2,11.7c0.8,4.8,0.5,10.5-0.7,17c-1.4,7.4-3.8,13.9-7,19.2c-2.9,4.9-6.6,8.9-11,12.1c-4.2,3-9.2,5.2-14.8,6.7
				c-5.5,1.4-11.7,2.1-18.5,2.1h-4.4c-3.2,0-6.2,1.1-8.6,3.2c-2.4,2.1-4,4.9-4.5,8l-0.3,1.8l-5.6,35.3L72,175
				c-0.1,0.4-0.2,0.6-0.4,0.8c-0.2,0.1-0.4,0.2-0.6,0.2L43.9,176z"/>
		</g>
	</g>
	<g>
		<g>
			<path style="&st8;" d="M139.1,46.3L139.1,46.3L139.1,46.3c-0.2,1.1-0.4,2.2-0.6,3.3c-7.5,38.3-33,51.6-65.6,51.6H56.3
				c-4,0-7.4,2.9-8,6.8l0,0l0,0L39.8,162l-2.4,15.3c-0.4,2.6,1.6,4.9,4.2,4.9h29.5c3.5,0,6.5-2.5,7-6l0.3-1.5l5.5-35.2l0.4-1.9
				c0.5-3.5,3.5-6,7-6h4.4c28.5,0,50.9-11.6,57.4-45.1c2.7-14,1.3-25.7-5.9-33.9C145,50,142.3,48,139.1,46.3z"/>
		</g>
	</g>
	<g>
		<g>
			<path style="&st9;" d="M131.3,43.2c-1.1-0.3-2.3-0.6-3.5-0.9c-1.2-0.3-2.5-0.5-3.7-0.7c-4.5-0.7-9.4-1.1-14.6-1.1H65
				c-1.1,0-2.1,0.2-3.1,0.7c-2,1-3.6,2.9-3.9,5.3l-9.4,59.8l-0.3,1.7c0.6-3.9,4-6.8,8-6.8h16.6c32.6,0,58.2-13.2,65.6-51.6
				c0.2-1.1,0.4-2.2,0.6-3.3c-1.9-1-3.9-1.9-6.1-2.6C132.4,43.5,131.9,43.3,131.3,43.2z"/>
		</g>
	</g>
	<g>
		<g>
			<path style="&st7;" d="M58,46.5c0.4-2.4,1.9-4.3,3.9-5.3c0.9-0.4,2-0.7,3.1-0.7h44.4c5.3,0,10.2,0.3,14.6,1.1
				c1.3,0.2,2.5,0.4,3.7,0.7c1.2,0.3,2.4,0.6,3.5,0.9c0.6,0.2,1.1,0.3,1.7,0.5c2.2,0.7,4.2,1.6,6.1,2.6c2.2-14.2,0-23.8-7.7-32.5
				C123,4.1,107.8,0,88.3,0H31.6c-4,0-7.4,2.9-8,6.8L0.1,156.3c-0.5,3,1.8,5.6,4.8,5.6h35l8.8-55.7L58,46.5z"/>
		</g>
	</g>
</g>
</svg>
