<?xml version="1.0" encoding="utf-8"?>
<!-- Generator: Adobe Illustrator 18.0.0, SVG Export Plug-In . SVG Version: 6.00 Build 0)  -->
<!DOCTYPE svg PUBLIC "-//W3C//DTD SVG 1.1//EN" "http://www.w3.org/Graphics/SVG/1.1/DTD/svg11.dtd" [
	<!ENTITY st0 "fill:#DEB237;">
	<!ENTITY st1 "fill:#F2ECE4;">
	<!ENTITY st2 "fill:#926152;">
	<!ENTITY st3 "fill:#FFFFFF;">
	<!ENTITY st4 "fill:#C27760;">
	<!ENTITY st5 "fill:#0061B2;">
	<!ENTITY st6 "fill:#FDB827;">
	<!ENTITY st7 "fill:#253B80;">
	<!ENTITY st8 "fill:#179BD7;">
	<!ENTITY st9 "fill:#222D65;">
	<!ENTITY st10 "fill:#231F20;">
	<!ENTITY st11 "fill:#F79410;">
	<!ENTITY st12 "fill:#FF5F00;">
	<!ENTITY st13 "fill:#EB001B;">
	<!ENTITY st14 "fill:#F79E1B;">
]>
<svg version="1.1" id="Layer_1" xmlns="http://www.w3.org/2000/svg" xmlns:xlink="http://www.w3.org/1999/xlink" x="0px" y="0px"
	 viewBox="0 0 178.9 156.6" style="enable-background:new 0 0 178.9 156.6;" xml:space="preserve">
<g>
	<g>
		<path style="&st3;" d="M167.8,44.7c3,0,5.7,1.1,7.9,3.3s3.3,4.8,3.3,7.9v28c0,1.6-0.5,3-1.6,4c-1,1-2.4,1.6-4,1.6H5.6
			c-1.6,0-3-0.5-4-1.6c-1-1-1.6-2.4-1.6-4v-28c0-3,1.1-5.7,3.3-7.9s4.8-3.3,7.9-3.3h15.4c-2.3-4.4-3.5-9.1-3.5-14
			c0-8.4,3-15.6,9.1-21.7S45.4,0,53.8,0c7,0,13.3,2,18.9,5.9c5.1,3.5,10.8,9.4,17.1,17.8c6.3-8.4,12-14.3,17.1-17.8
			c5.6-4,11.9-5.9,18.9-5.9c8.4,0,15.6,3,21.7,9.1c6.1,6.1,9.1,13.3,9.1,21.7c0,4.7-1.2,9.3-3.5,14H167.8z M11.2,145.4v-44.7h67.1
			v55.9H22.4c-3,0-5.7-1.1-7.9-3.3C12.3,151,11.2,148.4,11.2,145.4z M53.8,44.7h30.1c-5.8-8.6-10.6-15-14.3-19.2
			c-3.3-3.7-6.2-6.2-8.7-7.3c-1.9-0.9-4.2-1.4-7-1.4c-4,0-7.3,1.3-10,4s-4,6-4,10s1.3,7.3,4,10S49.9,44.7,53.8,44.7z M125.8,44.7
			c4,0,7.3-1.3,10-4c2.7-2.7,4-6,4-10s-1.3-7.3-4-10c-2.7-2.7-6-4-10-4c-2.8,0-5.1,0.5-7,1.4c-2.6,1.2-5.5,3.6-8.7,7.3
			c-3.7,4.2-8.5,10.6-14.3,19.2H125.8z M100.7,156.6v-55.9h67.1v44.7c0,3-1.1,5.7-3.3,7.9c-2.2,2.2-4.8,3.3-7.9,3.3H100.7z"/>
	</g>
</g>
</svg>
