<?xml version="1.0" encoding="utf-8"?>
<!-- Generator: Adobe Illustrator 18.0.0, SVG Export Plug-In . SVG Version: 6.00 Build 0)  -->
<!DOCTYPE svg PUBLIC "-//W3C//DTD SVG 1.1//EN" "http://www.w3.org/Graphics/SVG/1.1/DTD/svg11.dtd" [
	<!ENTITY st0 "fill:#DEB237;">
	<!ENTITY st1 "fill:#F2ECE4;">
	<!ENTITY st2 "fill:#926152;">
	<!ENTITY st3 "fill:#FFFFFF;">
	<!ENTITY st4 "fill:#C27760;">
	<!ENTITY st5 "fill:#0061B2;">
	<!ENTITY st6 "fill:#FDB827;">
	<!ENTITY st7 "fill:#253B80;">
	<!ENTITY st8 "fill:#179BD7;">
	<!ENTITY st9 "fill:#222D65;">
	<!ENTITY st10 "fill:#231F20;">
	<!ENTITY st11 "fill:#F79410;">
	<!ENTITY st12 "fill:#FF5F00;">
	<!ENTITY st13 "fill:#EB001B;">
	<!ENTITY st14 "fill:#F79E1B;">
]>
<svg version="1.1" id="Layer_1" xmlns="http://www.w3.org/2000/svg" xmlns:xlink="http://www.w3.org/1999/xlink" x="0px" y="0px"
	 viewBox="0 0 116 116" style="enable-background:new 0 0 116 116;" xml:space="preserve">
<g>
	<g>
		<path style="&st0;" d="M58,0c10.8,0,20.5,2.2,29.4,6.6s15.7,10.4,20.7,18c5.3,8.1,8,17.4,8,27.8c0,9.8-2.7,17.8-8,23.9
			c-6.2,7-15.3,10.5-27.1,10.5c-4.8,0-8.2-0.3-10.1-0.9c-3.4-1.1-5.6-3.4-6.6-7c-2,2.7-4.7,4.8-8,6.6c-3.3,1.7-6.5,2.6-9.6,2.6
			c-6.9,0-12.3-2.2-16.4-6.7s-6.1-10.5-6.1-18.1c0-6.9,1.4-13,4.3-18.4s6.8-9.6,11.8-12.6s10.4-4.6,16.1-4.6c6.6,0,11.2,1.7,14,5.1
			c0-0.8,0.3-1.4,0.9-2c0.6-0.5,1.3-0.8,2.1-0.8h10.5c1.9,0,3.4,0.7,4.4,2s1.5,2.9,1.2,4.8L84.2,65c-0.5,2.3-0.5,4-0.2,4.9
			c0.5,1.2,1.6,1.9,3.5,2.1c4.1-0.5,7.4-2.7,10.1-6.8c2.3-3.7,3.5-8,3.5-12.9c0-7.8-1.9-14.6-5.8-20.4c-3.7-5.5-8.9-9.7-15.4-12.6
			C73.2,16.5,66,15,58.1,15S43,16.9,36.5,20.8s-11.8,9.1-15.7,15.7S15,50.2,15,58s1.9,15,5.8,21.5s9.1,11.8,15.7,15.7
			c6.6,3.9,13.7,5.8,21.5,5.8c8.4,0,16.1-2.3,23.2-6.8c1.2-0.8,2.6-1.1,4-0.8c1.4,0.2,2.6,0.9,3.5,2l2.3,2.8
			c1.1,1.4,1.5,2.9,1.2,4.6c-0.3,1.6-1.2,2.9-2.6,3.9c-9.5,6.2-20,9.4-31.6,9.4c-10.4,0-20.1-2.6-29-7.8S13.1,95.9,7.8,87
			S0,68.5,0,58s2.6-20.1,7.8-29S20.1,13.1,29,7.8S47.6,0,58,0z M52.9,71.1c2,0,4.1-0.7,6.2-2.1c2.1-1.4,3.9-3.3,5.3-5.6
			c1.4-2.8,2.1-5.8,2.1-8.9c0-3.1-0.7-5.5-2.1-7.3c-1.4-1.7-3.4-2.6-6.1-2.6c-3.6,0-6.7,1.5-9.4,4.4c-3,3.4-4.4,7.6-4.4,12.6
			c0,3,0.8,5.3,2.3,6.9C48.3,70.3,50.4,71.1,52.9,71.1z"/>
	</g>
</g>
</svg>
