<?xml version="1.0" encoding="utf-8"?>
<!-- Generator: Adobe Illustrator 18.0.0, SVG Export Plug-In . SVG Version: 6.00 Build 0)  -->
<!DOCTYPE svg PUBLIC "-//W3C//DTD SVG 1.1//EN" "http://www.w3.org/Graphics/SVG/1.1/DTD/svg11.dtd" [
	<!ENTITY st0 "fill:#DEB237;">
	<!ENTITY st1 "fill:#F2ECE4;">
	<!ENTITY st2 "fill:#926152;">
	<!ENTITY st3 "fill:#FFFFFF;">
	<!ENTITY st4 "fill:#C27760;">
	<!ENTITY st5 "fill:#0061B2;">
	<!ENTITY st6 "fill:#FDB827;">
	<!ENTITY st7 "fill:#253B80;">
	<!ENTITY st8 "fill:#179BD7;">
	<!ENTITY st9 "fill:#222D65;">
	<!ENTITY st10 "fill:#231F20;">
	<!ENTITY st11 "fill:#F79410;">
	<!ENTITY st12 "fill:#FF5F00;">
	<!ENTITY st13 "fill:#EB001B;">
	<!ENTITY st14 "fill:#F79E1B;">
]>
<svg version="1.1" id="Layer_1" xmlns="http://www.w3.org/2000/svg" xmlns:xlink="http://www.w3.org/1999/xlink" x="0px" y="0px"
	 viewBox="0 0 371.6 371.6" style="enable-background:new 0 0 371.6 371.6;" xml:space="preserve">
<g>
	<g>
		<g>
			<g>
				<g>
					<path style="&st4;" d="M250.8,128.6c-4.3,0-7.8-3.5-7.8-7.8c0-65.5-44.9-96.5-57.9-104.1c-13,7.6-57.9,38.6-57.9,104.1
						c0,4.3-3.5,7.8-7.8,7.8s-7.8-3.5-7.8-7.8c0-85,67.3-118.6,70.2-120c2.2-1.1,4.7-1.1,6.8,0c2.9,1.4,70.2,35,70.2,120
						C258.6,125.1,255.1,128.6,250.8,128.6z"/>
				</g>
			</g>
		</g>
	</g>
	<g>
		<g>
			<g>
				<g>
					<path style="&st4;" d="M250.8,260.2c-4.3,0-7.8-3.5-7.8-7.8s3.5-7.8,7.8-7.8c65.5,0,96.5-44.9,104.1-57.9
						c-7.6-13-38.6-57.9-104.1-57.9c-4.3,0-7.8-3.5-7.8-7.8c0-4.3,3.5-7.8,7.8-7.8c85,0,118.6,67.3,120,70.2c1,2.2,1,4.7,0,6.8
						C369.5,192.9,335.9,260.2,250.8,260.2z"/>
				</g>
			</g>
		</g>
	</g>
	<g>
		<g>
			<g>
				<g>
					<path style="&st4;" d="M120.8,258.6c-85,0-118.6-67.3-120-70.2c-1-2.2-1-4.7,0-6.8c1.4-2.9,35-70.2,120-70.2
						c4.3,0,7.8,3.5,7.8,7.8c0,4.3-3.5,7.8-7.8,7.8c-65.5,0-96.5,44.9-104.1,57.9c7.6,13,38.6,57.9,104.1,57.9
						c4.3,0,7.8,3.5,7.8,7.8S125.1,258.6,120.8,258.6z"/>
				</g>
			</g>
		</g>
	</g>
	<g>
		<g>
			<g>
				<g>
					<path style="&st4;" d="M186.6,371.6c-1.2,0-2.3-0.3-3.4-0.8c-2.9-1.4-70.2-35-70.2-120c0-4.3,3.5-7.8,7.8-7.8s7.8,3.5,7.8,7.8
						c0,64.9,45.1,96.4,58,104.1c13.1-7.6,57.9-38.6,57.9-104.1c0-4.3,3.5-7.8,7.8-7.8s7.8,3.5,7.8,7.8c0,85-67.3,118.6-70.2,120
						C188.9,371.4,187.7,371.6,186.6,371.6z"/>
				</g>
			</g>
		</g>
	</g>
	<g>
		<g>
			<g>
				<g>
					<path style="&st4;" d="M250.8,260.2H119.3c-4.3,0-7.8-3.5-7.8-7.8V120.8c0-4.3,3.5-7.8,7.8-7.8h131.5c4.3,0,7.8,3.5,7.8,7.8
						v131.5C258.6,256.7,255.1,260.2,250.8,260.2z M127.1,244.5H243V128.6H127.1V244.5z"/>
				</g>
			</g>
		</g>
	</g>
	<g>
		<g>
			<g>
				<g>
					<path style="&st4;" d="M185.1,259.6c-2.1,0-4.1-0.8-5.5-2.3l-65.2-65.2c-1.5-1.5-2.3-3.4-2.3-5.5s0.8-4.1,2.3-5.5l65.2-65.2
						c2.9-2.9,8.1-2.9,11.1,0l65.2,65.2c3.1,3.1,3.1,8,0,11.1l-65.2,65.2C189.1,258.8,187.1,259.6,185.1,259.6z M130.9,186.6
						l54.1,54.1l54.1-54.1l-54.1-54.1L130.9,186.6z"/>
				</g>
			</g>
		</g>
	</g>
</g>
</svg>
