<?xml version="1.0" encoding="utf-8"?>
<!-- Generator: Adobe Illustrator 16.0.0, SVG Export Plug-In . SVG Version: 6.00 Build 0)  -->
<!DOCTYPE svg PUBLIC "-//W3C//DTD SVG 1.1//EN" "http://www.w3.org/Graphics/SVG/1.1/DTD/svg11.dtd">
<svg version="1.1" id="Layer_1" xmlns="http://www.w3.org/2000/svg" xmlns:xlink="http://www.w3.org/1999/xlink" x="0px" y="0px"
	 width="360.714px" height="180.358px" viewBox="0 0 360.714 180.358" enable-background="new 0 0 360.714 180.358"
	 xml:space="preserve">
<g>
	<defs>
		<rect id="SVGID_1_" width="360.714" height="360.716"/>
	</defs>
	<clipPath id="SVGID_2_">
		<use xlink:href="#SVGID_1_"  overflow="visible"/>
	</clipPath>
	<path clip-path="url(#SVGID_2_)" fill="#DEB237" d="M244.387,121.329c-2.763,0-5.002-2.24-5.002-5.002
		c0-67.738-48.845-99.408-59.797-105.654c-11.212,6.248-59.747,37.257-59.747,105.654c0,2.762-2.24,5.002-5.002,5.002
		c-2.763,0-5.003-2.24-5.003-5.002c0-82.1,66.92-115.498,67.595-115.825c1.378-0.669,2.987-0.669,4.365,0
		c0.675,0.327,67.595,33.725,67.595,115.825C249.39,119.089,247.15,121.329,244.387,121.329"/>
	<path clip-path="url(#SVGID_2_)" fill="#DEB237" d="M244.387,250.881c-2.763,0-5.002-2.24-5.002-5.002
		c0-2.764,2.239-5.003,5.002-5.003c68.446,0,99.447-48.601,105.669-59.772c-6.212-11.16-37.213-59.775-105.669-59.775
		c-2.763,0-5.002-2.24-5.002-5.002c0-2.763,2.239-5.002,5.002-5.002c82.103,0,115.5,66.921,115.827,67.598
		c0.667,1.377,0.667,2.985,0,4.365C359.887,183.962,326.489,250.881,244.387,250.881"/>
	<path clip-path="url(#SVGID_2_)" fill="#DEB237" d="M116.327,249.391c-82.101,0-115.497-66.919-115.826-67.593
		c-0.668-1.38-0.668-2.988,0-4.368c0.329-0.674,33.725-67.593,115.826-67.593c2.763,0,5.002,2.24,5.002,5.002
		c0,2.763-2.239,5.003-5.002,5.003c-68.445,0-99.447,48.6-105.668,59.772c6.212,11.16,37.215,59.772,105.668,59.772
		c2.763,0,5.002,2.24,5.002,5.003C121.329,247.15,119.09,249.391,116.327,249.391"/>
	<path clip-path="url(#SVGID_2_)" fill="#DEB237" d="M181.103,360.716c-0.746,0-1.494-0.166-2.182-0.501
		c-0.676-0.327-67.596-33.724-67.596-115.827c0-2.762,2.24-5.002,5.002-5.002c2.763,0,5.003,2.24,5.003,5.002
		c0,67.738,48.846,99.411,59.799,105.656c11.21-6.248,59.746-37.256,59.746-105.656c0-2.762,2.239-5.002,5.003-5.002
		c2.762,0,5.002,2.24,5.002,5.002c0,82.104-66.919,115.5-67.594,115.827C182.597,360.55,181.849,360.716,181.103,360.716"/>
	<path clip-path="url(#SVGID_2_)" fill="#DEB237" d="M244.387,250.881H114.838c-2.763,0-5.002-2.24-5.002-5.003V116.327
		c0-2.763,2.239-5.003,5.002-5.003h129.549c2.764,0,5.003,2.24,5.003,5.003v129.551C249.39,248.641,247.15,250.881,244.387,250.881
		 M119.84,240.876h119.544V121.329H119.84V240.876z"/>
	<path clip-path="url(#SVGID_2_)" fill="#DEB237" d="M179.612,250.316c-1.326,0-2.599-0.528-3.537-1.466l-64.209-64.21
		c-1.954-1.954-1.954-5.12,0-7.074l64.209-64.21c1.876-1.876,5.198-1.876,7.074,0l64.211,64.21c1.954,1.954,1.954,5.12,0,7.074
		l-64.211,64.21C182.211,249.788,180.939,250.316,179.612,250.316 M122.479,181.104l57.134,57.137l57.137-57.137l-57.137-57.137
		L122.479,181.104z"/>
</g>
</svg>
