<?xml version="1.0" encoding="utf-8"?>
<!-- Generator: Adobe Illustrator 18.0.0, SVG Export Plug-In . SVG Version: 6.00 Build 0)  -->
<!DOCTYPE svg PUBLIC "-//W3C//DTD SVG 1.1//EN" "http://www.w3.org/Graphics/SVG/1.1/DTD/svg11.dtd" [
	<!ENTITY st0 "fill:#DEB237;">
	<!ENTITY st1 "fill:#F2ECE4;">
	<!ENTITY st2 "fill:#926152;">
	<!ENTITY st3 "fill:#FFFFFF;">
	<!ENTITY st4 "fill:#C27760;">
	<!ENTITY st5 "fill:#0061B2;">
	<!ENTITY st6 "fill:#FDB827;">
	<!ENTITY st7 "fill:#253B80;">
	<!ENTITY st8 "fill:#179BD7;">
	<!ENTITY st9 "fill:#222D65;">
	<!ENTITY st10 "fill:#231F20;">
	<!ENTITY st11 "fill:#F79410;">
	<!ENTITY st12 "fill:#FF5F00;">
	<!ENTITY st13 "fill:#EB001B;">
	<!ENTITY st14 "fill:#F79E1B;">
]>
<svg version="1.1" id="Layer_1" xmlns="http://www.w3.org/2000/svg" xmlns:xlink="http://www.w3.org/1999/xlink" x="0px" y="0px"
	 viewBox="0 0 117.2 159.8" style="enable-background:new 0 0 117.2 159.8;" xml:space="preserve">
<path style="&st2;" d="M115.7,97.4c-2.1-2.1-5.6-2.1-7.7,0l-43.9,43.9V5.4c0-3-2.4-5.4-5.4-5.4s-5.4,2.4-5.4,5.4v135.9L9.3,97.4
	c-2.1-2.1-5.6-2.1-7.7,0C0.5,98.4,0,99.8,0,101.2s0.5,2.8,1.6,3.8l53.2,53.2c0.1,0.1,0.1,0.1,0.2,0.1c0.2,0.2,0.4,0.3,0.7,0.5
	c0.2,0.1,0.4,0.3,0.7,0.4c0.1,0,0.1,0.1,0.2,0.1c0.2,0.1,0.3,0.1,0.5,0.1c0.3,0.1,0.5,0.2,0.8,0.2c0.3,0,0.5,0,0.8,0
	c0.3,0,0.5,0,0.8,0c0.3,0,0.5-0.1,0.8-0.2c0.2-0.1,0.3-0.1,0.5-0.1c0.1,0,0.1-0.1,0.2-0.1c0.2-0.1,0.5-0.3,0.7-0.4
	c0.2-0.2,0.5-0.3,0.7-0.5c0.1-0.1,0.1-0.1,0.2-0.1l53.2-53.2C117.8,102.9,117.8,99.5,115.7,97.4z"/>
</svg>
