<?xml version="1.0" encoding="utf-8"?>
<!-- Generator: Adobe Illustrator 18.0.0, SVG Export Plug-In . SVG Version: 6.00 Build 0)  -->
<!DOCTYPE svg PUBLIC "-//W3C//DTD SVG 1.1//EN" "http://www.w3.org/Graphics/SVG/1.1/DTD/svg11.dtd" [
	<!ENTITY st0 "fill:#DEB237;">
	<!ENTITY st1 "fill:#F2ECE4;">
	<!ENTITY st2 "fill:#926152;">
	<!ENTITY st3 "fill:#FFFFFF;">
	<!ENTITY st4 "fill:#C27760;">
	<!ENTITY st5 "fill:#0061B2;">
	<!ENTITY st6 "fill:#FDB827;">
	<!ENTITY st7 "fill:#253B80;">
	<!ENTITY st8 "fill:#179BD7;">
	<!ENTITY st9 "fill:#222D65;">
	<!ENTITY st10 "fill:#231F20;">
	<!ENTITY st11 "fill:#F79410;">
	<!ENTITY st12 "fill:#FF5F00;">
	<!ENTITY st13 "fill:#EB001B;">
	<!ENTITY st14 "fill:#F79E1B;">
]>
<svg version="1.1" id="Layer_1" xmlns="http://www.w3.org/2000/svg" xmlns:xlink="http://www.w3.org/1999/xlink" x="0px" y="0px"
	 viewBox="0 0 281 210" style="enable-background:new 0 0 281 210;" xml:space="preserve">
<g>
	<g>
		<g>
			<g>
				<g>
					<path style="&st4;" d="M75.2,0l43.9,35.5c-19.3,8.4-46.9,34.9-54.7,57.8c3-1.2,9-2.4,15.6-2.4c28.9,0,52.3,22.3,52.3,55.9
						c0,34.9-28.9,63.2-62.6,63.2C33.1,210,0,181.7,0,132.4C0,79.4,28.3,33.1,75.2,0z M223.8,0l43.9,35.5
						c-19.3,8.4-46.9,34.9-54.7,57.8c3-1.2,9-2.4,15.6-2.4c28.9,0,52.4,22.3,52.4,55.9c0,34.9-28.9,63.2-62.6,63.2
						c-36.7,0-69.8-28.3-69.8-77.6C148.6,79.4,176.9,33.1,223.8,0z"/>
				</g>
			</g>
		</g>
	</g>
</g>
</svg>
