<?xml version="1.0" encoding="utf-8"?>
<!-- Generator: Adobe Illustrator 18.0.0, SVG Export Plug-In . SVG Version: 6.00 Build 0)  -->
<!DOCTYPE svg PUBLIC "-//W3C//DTD SVG 1.1//EN" "http://www.w3.org/Graphics/SVG/1.1/DTD/svg11.dtd" [
	<!ENTITY st0 "fill:#DEB237;">
	<!ENTITY st1 "fill:#F2ECE4;">
	<!ENTITY st2 "fill:#926152;">
	<!ENTITY st3 "fill:#FFFFFF;">
	<!ENTITY st4 "fill:#C27760;">
	<!ENTITY st5 "fill:#0061B2;">
	<!ENTITY st6 "fill:#FDB827;">
	<!ENTITY st7 "fill:#253B80;">
	<!ENTITY st8 "fill:#179BD7;">
	<!ENTITY st9 "fill:#222D65;">
	<!ENTITY st10 "fill:#231F20;">
	<!ENTITY st11 "fill:#F79410;">
	<!ENTITY st12 "fill:#FF5F00;">
	<!ENTITY st13 "fill:#EB001B;">
	<!ENTITY st14 "fill:#F79E1B;">
]>
<svg version="1.1" id="Layer_1" xmlns="http://www.w3.org/2000/svg" xmlns:xlink="http://www.w3.org/1999/xlink" x="0px" y="0px"
	 viewBox="0 0 122.3 122.3" style="enable-background:new 0 0 122.3 122.3;" xml:space="preserve">
<g>
	<path style="&st0;" d="M122.3,115.5c0,1.8-0.6,3.4-1.9,4.8s-2.9,2-4.9,2H84.3V74.8h15.8l2.5-18.3H84.3V44.8c0-3.1,0.5-5.3,1.6-6.6
		c1.5-1.6,3.9-2.5,7.4-2.5h9.8V19.1c-3.8-0.4-8.6-0.5-14.2-0.5c-7.1,0-12.8,2.1-17.2,6.3c-4.4,4.2-6.6,10.2-6.6,18v13.6H49.4v18.3
		h15.8v47.5H6.8c-2,0-3.6-0.7-4.9-2s-1.9-3-1.9-4.8V6.8c0-2,0.6-3.6,1.9-4.9S4.8,0,6.8,0h108.6c1.8,0,3.4,0.6,4.8,1.9s2,2.9,2,4.9
		V115.5z"/>
</g>
</svg>
