<?xml version="1.0" encoding="utf-8"?>
<!-- Generator: Adobe Illustrator 18.0.0, SVG Export Plug-In . SVG Version: 6.00 Build 0)  -->
<!DOCTYPE svg PUBLIC "-//W3C//DTD SVG 1.1//EN" "http://www.w3.org/Graphics/SVG/1.1/DTD/svg11.dtd" [
	<!ENTITY st0 "fill:#DEB237;">
	<!ENTITY st1 "fill:#F2ECE4;">
	<!ENTITY st2 "fill:#926152;">
	<!ENTITY st3 "fill:#FFFFFF;">
	<!ENTITY st4 "fill:#C27760;">
	<!ENTITY st5 "fill:#0061B2;">
	<!ENTITY st6 "fill:#FDB827;">
	<!ENTITY st7 "fill:#253B80;">
	<!ENTITY st8 "fill:#179BD7;">
	<!ENTITY st9 "fill:#222D65;">
	<!ENTITY st10 "fill:#231F20;">
	<!ENTITY st11 "fill:#F79410;">
	<!ENTITY st12 "fill:#FF5F00;">
	<!ENTITY st13 "fill:#EB001B;">
	<!ENTITY st14 "fill:#F79E1B;">
]>
<svg version="1.1" id="Layer_1" xmlns="http://www.w3.org/2000/svg" xmlns:xlink="http://www.w3.org/1999/xlink" x="0px" y="0px"
	 viewBox="0 0 104.8 119.8" style="enable-background:new 0 0 104.8 119.8;" xml:space="preserve">
<g>
	<g>
		<path style="&st0;" d="M73.5,67.4c5.6,0,10.8,1.4,15.7,4.2c4.8,2.8,8.7,6.6,11.5,11.5c2.8,4.8,4.2,10.1,4.2,15.7v9.8
			c0,3.1-1.1,5.8-3.3,8s-4.8,3.3-8,3.3H11.2c-3.1,0-5.8-1.1-8-3.3s-3.3-4.8-3.3-8v-9.8c0-5.6,1.4-10.8,4.2-15.7
			c2.8-4.8,6.6-8.7,11.5-11.5s10.1-4.2,15.7-4.2h4c5.5,2.5,11.2,3.7,17.1,3.7s11.6-1.2,17.1-3.7H73.5z M52.4,59.9
			c-5.5,0-10.5-1.3-15.1-4c-4.6-2.7-8.2-6.3-10.9-10.9s-4-9.6-4-15.1s1.3-10.5,4-15.1S32.7,6.6,37.3,4s9.6-4,15.1-4s10.5,1.3,15.1,4
			s8.2,6.3,10.9,10.9s4,9.6,4,15.1S81,40.4,78.4,45s-6.3,8.2-10.9,10.9C62.9,58.6,57.9,59.9,52.4,59.9z"/>
	</g>
</g>
</svg>
