<?xml version="1.0" encoding="utf-8"?>
<!-- Generator: Adobe Illustrator 18.0.0, SVG Export Plug-In . SVG Version: 6.00 Build 0)  -->
<!DOCTYPE svg PUBLIC "-//W3C//DTD SVG 1.1//EN" "http://www.w3.org/Graphics/SVG/1.1/DTD/svg11.dtd" [
	<!ENTITY st0 "fill:#DEB237;">
	<!ENTITY st1 "fill:#F2ECE4;">
	<!ENTITY st2 "fill:#926152;">
	<!ENTITY st3 "fill:#FFFFFF;">
	<!ENTITY st4 "fill:#C27760;">
	<!ENTITY st5 "fill:#0061B2;">
	<!ENTITY st6 "fill:#FDB827;">
	<!ENTITY st7 "fill:#253B80;">
	<!ENTITY st8 "fill:#179BD7;">
	<!ENTITY st9 "fill:#222D65;">
	<!ENTITY st10 "fill:#231F20;">
	<!ENTITY st11 "fill:#F79410;">
	<!ENTITY st12 "fill:#FF5F00;">
	<!ENTITY st13 "fill:#EB001B;">
	<!ENTITY st14 "fill:#F79E1B;">
]>
<svg version="1.1" id="Layer_1" xmlns="http://www.w3.org/2000/svg" xmlns:xlink="http://www.w3.org/1999/xlink" x="0px" y="0px"
	 viewBox="0 0 116 116" style="enable-background:new 0 0 116 116;" xml:space="preserve">
<g>
	<g>
		<path style="&st0;" d="M58,0c10.4,0,20.1,2.6,29,7.8S103,20.1,108.2,29s7.8,18.6,7.8,29s-2.6,20.1-7.8,29S95.9,103,87,108.2
			S68.5,116,58,116s-20.1-2.6-29-7.8S13.1,95.9,7.8,87S0,68.5,0,58s2.6-20.1,7.8-29S20.1,13.1,29,7.8S47.6,0,58,0z M58,104.8
			c8.4,0,16.2-2.1,23.4-6.3s12.9-9.9,17.1-17.1s6.3-15,6.3-23.4s-2.1-16.2-6.3-23.4s-9.9-12.9-17.1-17.1s-15-6.3-23.4-6.3
			s-16.2,2.1-23.4,6.3s-12.9,9.9-17.1,17.1s-6.3,15-6.3,23.4s2.1,16.2,6.3,23.4s9.9,12.9,17.1,17.1S49.6,104.8,58,104.8z"/>
	</g>
</g>
</svg>
