<?xml version="1.0" encoding="utf-8"?>
<!-- Generator: Adobe Illustrator 18.0.0, SVG Export Plug-In . SVG Version: 6.00 Build 0)  -->
<!DOCTYPE svg PUBLIC "-//W3C//DTD SVG 1.1//EN" "http://www.w3.org/Graphics/SVG/1.1/DTD/svg11.dtd" [
	<!ENTITY st0 "fill:#DEB237;">
	<!ENTITY st1 "fill:#F2ECE4;">
	<!ENTITY st2 "fill:#926152;">
	<!ENTITY st3 "fill:#FFFFFF;">
	<!ENTITY st4 "fill:#C27760;">
	<!ENTITY st5 "fill:#0061B2;">
	<!ENTITY st6 "fill:#FDB827;">
	<!ENTITY st7 "fill:#253B80;">
	<!ENTITY st8 "fill:#179BD7;">
	<!ENTITY st9 "fill:#222D65;">
	<!ENTITY st10 "fill:#231F20;">
	<!ENTITY st11 "fill:#F79410;">
	<!ENTITY st12 "fill:#FF5F00;">
	<!ENTITY st13 "fill:#EB001B;">
	<!ENTITY st14 "fill:#F79E1B;">
]>
<svg version="1.1" id="Layer_1" xmlns="http://www.w3.org/2000/svg" xmlns:xlink="http://www.w3.org/1999/xlink" x="0px" y="0px"
	 viewBox="0 0 505.5 437.6" style="enable-background:new 0 0 505.5 437.6;" xml:space="preserve">
<g>
	<path style="&st2;" d="M494.8,46.4c-7.3-1.6-14.8,2.9-16.5,10.3l-37.6,163.5c-3.4,8.5-11.7,14.2-20.9,14.2h-208
		c-20.3,0-37.5-13.8-42-33.5L145.2,92.7c-4-17.5-12.4-33.8-24.3-47.2C106.7,29.4,88.1,18.2,67.2,13L17.1,0.4
		C9.7-1.5,2.3,3.1,0.4,10.4c-1.9,7.4,2.6,14.8,10,16.7l50.1,12.5c15.5,3.9,29.3,12.2,39.9,24.1c8.8,9.9,15,22,18,35L143,207
		c7.4,32.4,35.7,55,68.9,55h208c21,0,39.9-13.3,47-33.1c0.2-0.5,0.3-1,0.5-1.5l37.8-164.4C506.8,55.5,502.2,48.1,494.8,46.4z"/>
	<path style="&st2;" d="M448.8,299H168c-7.6,0-13.8,6.2-13.8,13.8s6.2,13.8,13.8,13.8h280.8c7.6,0,13.8-6.2,13.8-13.8
		S456.4,299,448.8,299z"/>
	<path style="&st2;" d="M235.5,354.7c-16.3-3.9-33.2,1.9-43.3,14.8c-8,10.2-10.9,23.4-7.8,36.3c3.6,15,15.6,27,30.6,30.6
		c3.4,0.8,6.8,1.2,10.3,1.2c13,0,25-5.9,33.1-16.1c8-10.2,10.9-23.4,7.8-36.3C262.4,370.3,250.4,358.3,235.5,354.7z M236.7,404.5
		c-3.6,4.5-9.4,6.5-15.3,5.1c-4.9-1.2-9.1-5.4-10.3-10.3c-1.5-6.3,1-10.8,2.6-12.8c2.8-3.5,7-5.6,11.5-5.6c1.2,0,2.5,0.2,3.8,0.5
		c4.9,1.2,9.1,5.4,10.3,10.3C240.8,398,238.3,402.4,236.7,404.5z"/>
	<path style="&st2;" d="M399.9,354.7c-16.3-3.9-33.2,1.9-43.3,14.8c-8,10.2-10.9,23.4-7.8,36.3c3.6,15,15.6,27,30.6,30.6
		c3.4,0.8,6.8,1.2,10.3,1.2c13,0,25-5.8,33-16c8-10.2,10.9-23.4,7.8-36.3C426.9,370.3,414.9,358.3,399.9,354.7z M401.1,404.5
		c-3.6,4.5-9.4,6.5-15.3,5.1c-4.9-1.2-9.1-5.4-10.3-10.3c-1.5-6.3,1-10.7,2.6-12.8c2.8-3.5,7-5.6,11.5-5.6c1.3,0,2.5,0.2,3.8,0.5
		c4.9,1.2,9.1,5.4,10.3,10.3C405.3,398,402.7,402.4,401.1,404.5z"/>
</g>
</svg>
