<?xml version="1.0" encoding="utf-8"?>
<!-- Generator: Adobe Illustrator 18.0.0, SVG Export Plug-In . SVG Version: 6.00 Build 0)  -->
<!DOCTYPE svg PUBLIC "-//W3C//DTD SVG 1.1//EN" "http://www.w3.org/Graphics/SVG/1.1/DTD/svg11.dtd" [
	<!ENTITY st0 "fill:#DEB237;">
	<!ENTITY st1 "fill:#F2ECE4;">
	<!ENTITY st2 "fill:#926152;">
	<!ENTITY st3 "fill:#FFFFFF;">
	<!ENTITY st4 "fill:#C27760;">
	<!ENTITY st5 "fill:#0061B2;">
	<!ENTITY st6 "fill:#FDB827;">
	<!ENTITY st7 "fill:#253B80;">
	<!ENTITY st8 "fill:#179BD7;">
	<!ENTITY st9 "fill:#222D65;">
	<!ENTITY st10 "fill:#231F20;">
	<!ENTITY st11 "fill:#F79410;">
	<!ENTITY st12 "fill:#FF5F00;">
	<!ENTITY st13 "fill:#EB001B;">
	<!ENTITY st14 "fill:#F79E1B;">
]>
<svg version="1.1" id="Layer_1" xmlns="http://www.w3.org/2000/svg" xmlns:xlink="http://www.w3.org/1999/xlink" x="0px" y="0px"
	 viewBox="0 0 139.7 113.5" style="enable-background:new 0 0 139.7 113.5;" xml:space="preserve">
<g>
	<path style="&st0;" d="M125.6,31.9c0,13.1-3.2,25.7-9.6,37.9c-6.6,12.9-15.7,23.2-27.6,30.8c-12.9,8.6-27.7,12.8-44.5,12.8
		c-16,0-30.7-4.3-43.9-12.8c2,0.2,4.3,0.3,6.8,0.3c13.3,0,25.2-4.1,35.8-12.3c-6.4,0-12-1.9-16.8-5.6s-8.1-8.4-10-14.1
		c1.8,0.2,3.5,0.3,5.2,0.3c2.5,0,5.1-0.3,7.6-0.8c-6.6-1.5-12-4.8-16.4-10.1s-6.6-11.3-6.6-18v-0.5c4,2.4,8.3,3.6,12.8,3.8
		c-3.8-2.7-6.9-6.2-9.3-10.4s-3.5-8.8-3.5-13.8S7.1,9.7,9.8,5.2c7.1,8.9,15.8,16,26.1,21.3s21.2,8.2,32.9,8.7
		c-0.4-2.2-0.5-4.4-0.5-6.6c0-5.1,1.3-9.9,3.8-14.3s6-8,10.4-10.5C86.8,1.3,91.5,0,96.6,0c4.2,0,8.1,0.8,11.6,2.5s6.7,3.8,9.4,6.6
		c6.6-1.3,12.6-3.5,18.3-6.8c-2.2,6.7-6.4,12-12.6,15.8c5.5-0.7,10.9-2.3,16.4-4.6c-4,5.8-8.8,10.8-14.5,15
		C125.5,29.1,125.6,30.3,125.6,31.9z"/>
</g>
</svg>
