<?xml version="1.0" encoding="utf-8"?>
<!-- Generator: Adobe Illustrator 18.0.0, SVG Export Plug-In . SVG Version: 6.00 Build 0)  -->
<!DOCTYPE svg PUBLIC "-//W3C//DTD SVG 1.1//EN" "http://www.w3.org/Graphics/SVG/1.1/DTD/svg11.dtd" [
	<!ENTITY st0 "fill:#DEB237;">
	<!ENTITY st1 "fill:#F2ECE4;">
	<!ENTITY st2 "fill:#926152;">
	<!ENTITY st3 "fill:#FFFFFF;">
	<!ENTITY st4 "fill:#C27760;">
	<!ENTITY st5 "fill:#0061B2;">
	<!ENTITY st6 "fill:#FDB827;">
	<!ENTITY st7 "fill:#253B80;">
	<!ENTITY st8 "fill:#179BD7;">
	<!ENTITY st9 "fill:#222D65;">
	<!ENTITY st10 "fill:#231F20;">
	<!ENTITY st11 "fill:#F79410;">
	<!ENTITY st12 "fill:#FF5F00;">
	<!ENTITY st13 "fill:#EB001B;">
	<!ENTITY st14 "fill:#F79E1B;">
]>
<svg version="1.1" id="Layer_1" xmlns="http://www.w3.org/2000/svg" xmlns:xlink="http://www.w3.org/1999/xlink" x="0px" y="0px"
	 viewBox="0 0 122.3 122.3" style="enable-background:new 0 0 122.3 122.3;" xml:space="preserve">
<g>
	<path style="&st0;" d="M122,35.8c0.2,5.1,0.3,13.6,0.3,25.4s-0.1,20.3-0.4,25.5c-0.3,5.2-1,9.7-2.3,13.5c-1.6,4.5-4.1,8.5-7.5,11.9
		c-3.4,3.4-7.3,5.9-11.9,7.5c-3.8,1.3-8.3,2.1-13.5,2.3c-5.2,0.3-13.7,0.4-25.5,0.4s-20.3-0.1-25.5-0.4c-5.2-0.3-9.7-1.1-13.5-2.6
		c-4.5-1.5-8.5-3.9-11.9-7.2s-5.9-7.3-7.5-11.9c-1.3-3.8-2-8.3-2.3-13.5S0,73,0,61.1s0.1-20.3,0.4-25.5s1-9.7,2.3-13.5
		c1.6-4.5,4.1-8.5,7.5-11.9s7.3-5.9,11.9-7.5c3.8-1.3,8.3-2,13.5-2.3S49.3,0,61.1,0s20.3,0.1,25.5,0.4c5.2,0.3,9.7,1,13.5,2.3
		c4.5,1.6,8.5,4.1,11.9,7.5c3.4,3.4,5.9,7.3,7.5,11.9C120.8,25.9,121.6,30.5,122,35.8z M108.9,97.2c1.1-3.1,1.8-8,2.2-14.7
		c0.2-4,0.3-9.6,0.3-16.9v-8.7c0-7.5-0.1-13.1-0.3-16.9c-0.4-6.9-1.1-11.8-2.2-14.7c-2.2-5.6-6.1-9.6-11.7-11.7
		c-2.9-1.1-7.8-1.8-14.7-2.2c-4-0.2-9.6-0.3-16.9-0.3h-8.7c-7.3,0-12.9,0.1-16.9,0.3c-6.7,0.4-11.6,1.1-14.7,2.2
		c-5.6,2.2-9.6,6.1-11.7,11.7c-1.1,2.9-1.8,7.8-2.2,14.7c-0.2,4-0.3,9.6-0.3,16.9v8.7c0,7.3,0.1,12.9,0.3,16.9
		c0.4,6.7,1.1,11.6,2.2,14.7c2.4,5.6,6.3,9.6,11.7,11.7c3.1,1.1,8,1.8,14.7,2.2c4,0.2,9.6,0.3,16.9,0.3h8.7c7.5,0,13.1-0.1,16.9-0.3
		c6.9-0.4,11.8-1.1,14.7-2.2C102.8,106.5,106.7,102.6,108.9,97.2z M61.1,29.8c5.6,0,10.9,1.4,15.7,4.2s8.6,6.6,11.5,11.5
		s4.2,10,4.2,15.7S91.1,72,88.3,76.8s-6.6,8.6-11.5,11.5c-4.8,2.8-10.1,4.2-15.7,4.2s-10.9-1.4-15.7-4.2c-4.8-2.8-8.6-6.6-11.5-11.5
		c-2.8-4.8-4.2-10.1-4.2-15.7s1.4-10.9,4.2-15.7c2.8-4.8,6.6-8.6,11.5-11.5S55.5,29.8,61.1,29.8z M61.1,81.6c5.6,0,10.5-2,14.5-6
		c4-4,6-8.8,6-14.5s-2-10.5-6-14.5s-8.8-6-14.5-6s-10.5,2-14.5,6s-6,8.8-6,14.5s2,10.5,6,14.5C50.7,79.6,55.5,81.6,61.1,81.6z
		 M101.3,28.4c0-2-0.7-3.7-2.2-5.2c-1.5-1.5-3.2-2.2-5.2-2.2s-3.7,0.7-5.2,2.2s-2.2,3.2-2.2,5.2s0.7,3.7,2.2,5.2
		c1.5,1.5,3.2,2.2,5.2,2.2s3.7-0.7,5-2.2C100.3,32.1,101.1,30.4,101.3,28.4z"/>
</g>
</svg>
