<?xml version="1.0" encoding="utf-8"?>
<!-- Generator: Adobe Illustrator 18.0.0, SVG Export Plug-In . SVG Version: 6.00 Build 0)  -->
<!DOCTYPE svg PUBLIC "-//W3C//DTD SVG 1.1//EN" "http://www.w3.org/Graphics/SVG/1.1/DTD/svg11.dtd" [
	<!ENTITY st0 "fill:#DEB237;">
	<!ENTITY st1 "fill:#F2ECE4;">
	<!ENTITY st2 "fill:#926152;">
	<!ENTITY st3 "fill:#FFFFFF;">
	<!ENTITY st4 "fill:#C27760;">
	<!ENTITY st5 "fill:#0061B2;">
	<!ENTITY st6 "fill:#FDB827;">
	<!ENTITY st7 "fill:#253B80;">
	<!ENTITY st8 "fill:#179BD7;">
	<!ENTITY st9 "fill:#222D65;">
	<!ENTITY st10 "fill:#231F20;">
	<!ENTITY st11 "fill:#F79410;">
	<!ENTITY st12 "fill:#FF5F00;">
	<!ENTITY st13 "fill:#EB001B;">
	<!ENTITY st14 "fill:#F79E1B;">
]>
<svg version="1.1" id="Layer_1" xmlns="http://www.w3.org/2000/svg" xmlns:xlink="http://www.w3.org/1999/xlink" x="0px" y="0px"
	 viewBox="0 0 159.8 117.2" style="enable-background:new 0 0 159.8 117.2;" xml:space="preserve">
<path style="&st0;" d="M159.8,58.6c0-0.3,0-0.5,0-0.8c0-0.3-0.1-0.5-0.2-0.8c-0.1-0.2-0.1-0.3-0.1-0.5c0-0.1-0.1-0.1-0.1-0.2
	c-0.1-0.2-0.3-0.5-0.4-0.7c-0.2-0.2-0.3-0.5-0.5-0.7c-0.1-0.1-0.1-0.1-0.1-0.2L105.1,1.6c-2.1-2.1-5.6-2.1-7.7,0s-2.1,5.6,0,7.7
	l43.9,43.9H5.4c-3,0-5.4,2.4-5.4,5.4s2.4,5.4,5.4,5.4h135.9L97.4,108c-2.1,2.1-2.1,5.6,0,7.7c1.1,1.1,2.5,1.6,3.8,1.6
	s2.8-0.5,3.8-1.6l53.2-53.2c0.1-0.1,0.1-0.1,0.1-0.2c0.2-0.2,0.3-0.4,0.5-0.7c0.1-0.2,0.3-0.4,0.4-0.7c0-0.1,0.1-0.1,0.1-0.2
	c0.1-0.2,0.1-0.3,0.1-0.5c0.1-0.3,0.2-0.5,0.2-0.8C159.8,59.1,159.8,58.9,159.8,58.6z"/>
</svg>
