<?xml version="1.0" encoding="utf-8"?>
<!-- Generator: Adobe Illustrator 18.0.0, SVG Export Plug-In . SVG Version: 6.00 Build 0)  -->
<!DOCTYPE svg PUBLIC "-//W3C//DTD SVG 1.1//EN" "http://www.w3.org/Graphics/SVG/1.1/DTD/svg11.dtd" [
	<!ENTITY st0 "fill:#DEB237;">
	<!ENTITY st1 "fill:#F2ECE4;">
	<!ENTITY st2 "fill:#926152;">
	<!ENTITY st3 "fill:#FFFFFF;">
	<!ENTITY st4 "fill:#C27760;">
	<!ENTITY st5 "fill:#0061B2;">
	<!ENTITY st6 "fill:#FDB827;">
	<!ENTITY st7 "fill:#253B80;">
	<!ENTITY st8 "fill:#179BD7;">
	<!ENTITY st9 "fill:#222D65;">
	<!ENTITY st10 "fill:#231F20;">
	<!ENTITY st11 "fill:#F79410;">
	<!ENTITY st12 "fill:#FF5F00;">
	<!ENTITY st13 "fill:#EB001B;">
	<!ENTITY st14 "fill:#F79E1B;">
]>
<svg version="1.1" id="Layer_1" xmlns="http://www.w3.org/2000/svg" xmlns:xlink="http://www.w3.org/1999/xlink" x="0px" y="0px"
	 viewBox="0 0 104.8 104.8" style="enable-background:new 0 0 104.8 104.8;" xml:space="preserve">
<g>
	<g>
		<path style="&st0;" d="M93.6,0c3.1,0,5.8,1.1,8,3.3c2.2,2.2,3.3,4.8,3.3,8v82.4c0,3.1-1.1,5.8-3.3,8c-2.2,2.2-4.8,3.3-8,3.3H11.2
			c-3.1,0-5.8-1.1-8-3.3S0,96.7,0,93.6V11.2c0-3.1,1.1-5.8,3.3-8S8.1,0,11.2,0H93.6z M93.6,93.6V11.2H11.2v82.4H93.6z M85.2,37
			c0.6-0.5,0.9-1.1,0.9-1.9s-0.3-1.5-0.9-2.1L80,27.8c-0.6-0.6-1.3-0.9-2.1-0.9s-1.4,0.3-1.9,0.9L42.8,60.6L29,46.3
			c-0.6-0.5-1.3-0.7-2.1-0.7c-0.8,0-1.4,0.2-1.9,0.7l-5.4,5.4c-0.6,0.5-0.9,1.1-0.9,1.9s0.3,1.5,0.9,2.1L40.9,77
			c0.5,0.6,1.1,0.9,1.9,0.9s1.5-0.3,2.1-0.9L85.2,37z"/>
	</g>
</g>
</svg>
